<?xml version="1.0" encoding="UTF-8" standalone="no"?>
<!-- Created with Inkscape (http://www.inkscape.org/) -->

<svg
   version="1.1"
   id="svg2"
   width="8000"
   height="5333.3335"
   viewBox="0 0 8000 5333.3335"
   sodipodi:docname="vecteezy_video-game-controller-set-outline-vector-illustration-on_.eps"
   xmlns:inkscape="http://www.inkscape.org/namespaces/inkscape"
   xmlns:sodipodi="http://sodipodi.sourceforge.net/DTD/sodipodi-0.dtd"
   xmlns="http://www.w3.org/2000/svg"
   xmlns:svg="http://www.w3.org/2000/svg">
  <defs
     id="defs6" />
  <sodipodi:namedview
     id="namedview4"
     pagecolor="#ffffff"
     bordercolor="#000000"
     borderopacity="0.25"
     inkscape:showpageshadow="2"
     inkscape:pageopacity="0.0"
     inkscape:pagecheckerboard="0"
     inkscape:deskcolor="#d1d1d1" />
  <g
     id="g8"
     inkscape:groupmode="layer"
     inkscape:label="ink_ext_XXXXXX"
     transform="matrix(1.3333333,0,0,-1.3333333,0,5333.3333)">
    <g
       id="g10"
       transform="scale(0.1)">
      <path
         d="M 60000,0 H 0 V 40000 H 60000 V 0"
         style="fill:#fefefe;fill-opacity:1;fill-rule:nonzero;stroke:none"
         id="path12" />
      <path
         d="m 6167.47,36921.5 c 0,0.5 0,0.9 0,1.4 180.81,0 361.73,3.8 542.38,-1.6 83.13,-2.5 91.44,30.9 79.14,100 -12.66,71.2 -61.63,65.3 -111.13,65.3 -328.75,-0.1 -657.49,-0.2 -986.24,-0.4 -16.43,0 -33.04,1 -49.26,-1 -74.47,-9.1 -83.68,-75.5 -87.35,-125.1 -4.62,-62.5 57.87,-36.5 89.79,-37.1 174.17,-3.2 348.44,-1.5 522.67,-1.5 z m 10059.53,-2.2 c 0,-0.5 0,-1.1 0,-1.7 171,0 342.1,-1.2 513.1,1 36.1,0.4 95.6,-27.7 104.1,16 10.2,52.5 -23.1,111 -73.2,140.2 -28.4,16.6 -70,14.7 -105.6,14.6 -230.3,-0.7 -460.5,-3.3 -690.7,-4.9 -98.7,-0.7 -197.4,-2.3 -296.1,-0.2 -84.6,1.8 -81.9,-61 -87,-114.9 -6.5,-67.9 48.7,-48.9 82.8,-49.2 184.2,-1.8 368.4,-0.9 552.6,-0.9 z m -2847.1,-3965.2 c -823.5,0.8 -1505.4,-687.8 -1508,-1522.7 -2.6,-839.1 678.2,-1532.3 1508.2,-1535.6 826.3,-3.3 1523.9,697.6 1525.4,1532.3 1.5,837.7 -685.9,1525.3 -1525.6,1526 z m -4371.34,2.5 c -841.15,4.2 -1522.95,-674 -1530.19,-1522 -7.12,-834.3 677.47,-1535.5 1504.31,-1540.9 818.82,-5.3 1526.42,704 1529.72,1533.4 3.3,829 -681.39,1525.3 -1503.84,1529.5 z m 2196.74,3951.5 c 0,0.3 0,0.7 0,1.1 -595.3,0 -1190.7,0 -1786.09,0 -89.03,0 -177.33,-5.3 -263.94,-28.9 -383.15,-104.6 -650.52,-484.4 -581.01,-836.1 81.59,-412.8 165.72,-825.2 255.91,-1236.1 80.07,-365 292.36,-528.2 665.27,-527.4 907.86,1.7 1815.76,3.2 2723.66,4.7 259.8,0.4 520,-7.9 779.3,2.9 292.6,12.1 488.6,175.1 554.7,459.5 99,425.9 190.1,853.6 268.2,1284 25.2,139.1 3.1,268.7 -59.1,392.4 -155.1,308.2 -397.1,483.7 -751,483.8 -601.9,0.3 -1203.9,0.1 -1805.9,0.1 z m -4659.73,-404 c 0,-0.2 0,-0.5 0,-0.7 -269.83,0 -539.67,0 -809.5,0 -224.81,0 -436.01,-55.4 -636.01,-156.3 -532.58,-268.8 -901.05,-685.8 -1110.45,-1242 -705.18,-1873 -1049.5,-3812.7 -1071.1,-5812 -3.09,-286.4 65.9,-554.4 194.17,-807.4 465.77,-918.4 1564.37,-1100.3 2276.54,-381.5 669.22,675.4 1340.87,1348.4 2015.3,2018.7 71.36,70.9 72.87,115.3 17.07,195.3 -288.43,413.2 -418.69,871.8 -336.93,1373.2 134.85,827.2 610.12,1379.1 1415.02,1601.8 789.66,218.4 1460.68,-42.1 1984.12,-648.5 521.4,-603.9 576.3,-1486.1 176.2,-2190.9 -57.3,-100.9 -57.3,-101.8 57.6,-102.1 315.9,-0.6 631.8,-0.7 947.7,-0.3 111.6,0.1 110.4,0.3 57,101.6 -358.5,680.9 -368.3,1360.8 50,2015.2 399.1,624.4 990.2,935.5 1728.4,888.2 756,-48.5 1319.7,-435 1637.3,-1127.3 309.2,-674.1 221.1,-1326.7 -190,-1938.6 -32.9,-49.1 -60.3,-83 -1.9,-140.9 710.1,-704.3 1412.8,-1416 2126.6,-2116.4 420,-411.9 1084,-489.5 1590.8,-191.1 537.5,316.3 790.9,808.2 793.2,1420.6 2.5,638.4 -39.7,1275.7 -116,1910.3 -151,1255.6 -428.6,2480.6 -861.9,3670.7 -139.1,382.2 -310.3,739 -593.3,1035.6 -333.8,349.8 -726.8,598.6 -1219.2,617.1 -552.1,20.7 -1105.6,14.8 -1658.2,4.5 -438.7,-8.1 -709,-247.4 -799.8,-676 -79,-373.2 -152.1,-747.7 -235,-1120 -113.5,-509.2 -500.6,-839.9 -992.7,-841.3 -1168.2,-3.3 -2336.3,-0.9 -3504.54,-0.1 -152.67,0.1 -302.23,22.8 -442.93,84.6 -367.95,161.7 -550.34,461.4 -625.35,842.1 -69.93,355 -138.18,710.4 -217.22,1063.4 -90.45,403.9 -402.37,648 -815.74,650.2 -276.41,1.5 -552.83,0.3 -829.25,0.3 z M 19868.2,29705.7 c 28.2,-380.3 19.3,-793.6 -125.3,-1198 -387.2,-1082.8 -1603.1,-1574 -2594.5,-1042.1 -275.1,147.6 -477.2,379.4 -693.7,595 -596.9,594.3 -1194.6,1187.8 -1792.4,1781.2 -33.8,33.6 -60.4,72 -122.2,27 -706.9,-515.8 -1599.1,-495.7 -2314.6,4.1 -68.7,48 -137.1,65.7 -219.8,65 -556.1,-4.3 -1112.2,-5.4 -1668.3,-4.7 -69.4,0.1 -125.1,-18.1 -182.3,-57 -630.29,-429.1 -1295.83,-517.3 -2000.66,-198.9 -108.09,48.9 -213.99,104.8 -305,180.6 -57.5,47.9 -90.01,38.3 -138.25,-10.3 -558.37,-563 -1118.48,-1124.2 -1678.37,-1685.7 -132.41,-132.8 -263.73,-266.8 -398.88,-396.7 -934.32,-898.5 -2321.46,-573.5 -2883.58,518.4 -171.69,333.5 -257.9,688 -250.29,1064.7 30.23,1496.4 216.92,2970.9 612.21,4416.8 139.8,511.3 305.75,1014.7 498.44,1507.6 269.95,690.6 728.94,1212.9 1427.35,1500.7 51.25,21.1 68.13,50.4 72.64,101.9 5.43,62 17.19,124 32.71,184.3 75.52,293.4 242.51,425.5 543.2,427.9 335.64,2.7 671.3,3.1 1006.95,3.6 325.67,0.4 477.49,-125.4 521.01,-451.9 13.2,-99 46.18,-122.9 140.38,-119.4 308.62,11.7 584.12,-82.6 817.03,-287.4 55.85,-49.2 72.34,-32.9 102.14,24.3 231.42,444.7 603.03,667.3 1101.33,668.1 1224.14,1.7 2448.24,0.5 3672.34,-4.5 491.7,-2 842.6,-239.5 1062.4,-674.7 24.4,-48.3 35.7,-69.7 86.6,-23.5 236.7,215.5 524.1,295.4 836.5,291 91.9,-1.3 128.6,26.1 138,115.8 6.7,64.5 26.5,129.4 51,189.8 66.9,165.3 194.5,259.7 371.3,263 391.5,7.4 783.2,7.8 1174.7,5 212.6,-1.5 370.9,-124.3 442.3,-331.4 34.4,-99.6 58.4,-202.5 64,-308.3 2.1,-39.9 12.4,-66.2 52.6,-84 817.5,-362 1280.7,-1016 1570,-1839.6 516.4,-1470.3 903.4,-3238.5 971,-5217.7"
         style="fill:#231f20;fill-opacity:1;fill-rule:nonzero;stroke:none"
         id="path14" />
      <path
         d="m 7131.69,33673.3 c 0,-1.3 0,-2.5 0,-3.7 82.22,0 164.9,5.3 246.51,-1.8 62.05,-5.3 82.33,14.3 80.99,74.3 -2.79,124.9 -4.9,250 -0.57,374.9 2.63,75.6 -27.71,95.3 -98.96,93.4 -164.19,-4.3 -328.9,-19.3 -492.84,0.5 -246.75,29.9 -389.02,185.5 -396.3,434.7 -3.84,131.4 -1.94,263.1 1.14,394.6 1.48,63.6 -21.87,87.7 -86.53,85.6 -147.9,-4.7 -295.98,-5.4 -443.97,-4.5 -55.41,0.3 -75.93,-21.3 -74.97,-75.8 2.15,-121.7 1.97,-243.4 0.3,-365.1 -4.1,-298.7 -164.27,-465.1 -461.37,-476 -141.29,-5.2 -282.87,-5.6 -424.24,-3.4 -61.64,1 -89.67,-15 -87.45,-82.5 3.89,-118.2 3.82,-236.9 -1.83,-355.1 -3.47,-72.7 27.13,-88.5 92.36,-86.6 141.33,4.1 282.89,4.7 424.25,1.8 281.24,-6 454.26,-175.8 464.38,-455.1 4.06,-111.7 5.04,-223.7 1.95,-335.4 -1.82,-65.6 16.48,-95.8 88.21,-93.5 141.3,4.4 282.87,4.1 424.24,1.1 60.34,-1.3 80.84,20.4 79.49,80 -2.92,128.2 -4.53,256.6 0.84,384.7 9.83,234.2 172.73,398 407.96,412 85.18,5.2 170.92,0.9 256.41,0.9 z m -967.58,1849.2 c 105.25,0 210.66,3.7 315.72,-0.7 225.01,-9.5 370.1,-138.8 394.25,-363.8 13.96,-130.2 7.23,-262.6 8.04,-394.1 1,-161.9 0.76,-162.7 166.5,-160.4 115.11,1.6 230.2,5.8 345.3,5.7 298.51,-0.3 474.21,-171.8 478.94,-468.3 2.31,-144.7 3.93,-289.5 -0.41,-434.1 -7.59,-252.5 -177.41,-424.9 -430.41,-434.5 -157.67,-6 -315.79,-4.5 -473.58,-0.8 -65.32,1.6 -86.01,-20.7 -83.91,-84.7 3.78,-115 1.38,-230.2 -0.41,-345.3 -4.12,-265.3 -166.35,-444 -429.68,-456.7 -190.25,-9.2 -381.84,-8.4 -571.99,2.6 -258.32,14.9 -414.19,186.7 -418.25,444.2 -1.77,111.8 -2.74,223.8 1.26,335.5 2.91,81.2 -31.67,112.3 -110.86,111.2 -147.97,-2.1 -296.17,-3.9 -443.97,2 -246.85,9.7 -429.52,198.8 -433.53,445.9 -2.4,148 -2.43,296.1 2.35,444 8.36,258.7 181.47,428.6 440.04,434.6 131.52,3.1 263.13,1.6 394.7,2.8 140.86,1.1 140.95,1.4 141.2,138 0.21,111.8 -1.44,223.7 0.54,335.5 5,282.6 161.41,438.2 441.72,440.8 88.81,0.8 177.62,0.1 266.44,0.1 0,0.2 0,0.4 0,0.5"
         style="fill:#231f20;fill-opacity:1;fill-rule:nonzero;stroke:none"
         id="path16" />
      <path
         d="m 16705.6,33287.5 c 4.1,265.2 -201,480.2 -465.3,487.5 -260.1,7.3 -479.5,-206.1 -482.5,-469.1 -3,-266.8 204.7,-496 454.4,-501.7 267.4,-6 489.2,211.2 493.4,483.3 z m -1356.4,20.8 c 9.7,502.7 402.4,880.5 905.8,871.3 482.5,-8.8 876.2,-415.6 865.3,-893.9 -11.6,-510.1 -409.3,-906.3 -898.8,-895.4 -501.8,11.2 -882,411.3 -872.3,918"
         style="fill:#231f20;fill-opacity:1;fill-rule:nonzero;stroke:none"
         id="path18" />
      <path
         d="m 16216.2,35236.5 c 207.2,0.2 375.1,159.8 372.7,354.4 -2.1,180.5 -177.6,344.1 -366.7,342 -187.6,-2 -348.4,-162.8 -347.2,-346.9 1.3,-194.5 152.7,-349.6 341.2,-349.5 z m -746.7,353.2 c 6,428.6 345,761 771.2,756.2 422.4,-4.6 759.1,-340.2 753.3,-750.7 -6.3,-437.8 -349,-773.3 -783.6,-767.1 -418.4,5.9 -746.8,343.5 -740.9,761.6"
         style="fill:#231f20;fill-opacity:1;fill-rule:nonzero;stroke:none"
         id="path20" />
      <path
         d="m 15163.9,34497.9 c 1,179.1 -146.1,327.5 -324.7,327.4 -186.2,0 -333.8,-146 -333.4,-329.7 0.3,-181.5 135.8,-322.1 313.4,-325.3 195.3,-3.6 343.6,137.4 344.7,327.6 z m 418.6,14.1 c 1.2,-417.6 -340.7,-760.6 -759.4,-761.9 -397.9,-1.3 -731.6,335.5 -733.2,739.9 -1.6,415 333.6,748.3 756.1,752.1 412.4,3.6 735.3,-316.5 736.5,-730.1"
         style="fill:#231f20;fill-opacity:1;fill-rule:nonzero;stroke:none"
         id="path22" />
      <path
         d="m 17629.4,34171.4 c 183.5,0 326,139.8 328.3,321.9 2.3,176.6 -155,331.4 -335.2,329.8 -179.6,-1.7 -322.2,-148.4 -320.2,-329.6 2,-182.3 144.1,-322.2 327.1,-322.1 z m -738.8,342.6 c -0.3,402.5 329.2,724.6 742.6,726 403,1.4 740.5,-338.4 739.8,-744.7 -0.7,-408.8 -336.4,-748 -738.3,-746 -410.3,2.1 -743.9,344.9 -744.1,764.7"
         style="fill:#231f20;fill-opacity:1;fill-rule:nonzero;stroke:none"
         id="path24" />
      <path
         d="m 10641.1,33442.8 c -6.1,-125.7 -117.1,-235.8 -234.8,-232.8 -118.1,2.9 -219.8,116.2 -213.6,237.7 5.8,115.2 114.5,217 228.8,214.1 118.8,-3 224.9,-108.8 219.6,-219"
         style="fill:#231f20;fill-opacity:1;fill-rule:nonzero;stroke:none"
         id="path26" />
      <path
         d="m 11985.4,33655.9 c 115.4,1.7 222.2,-95.2 225.2,-204.4 3.3,-121.1 -93.7,-233.4 -204.5,-236.6 -124.5,-3.5 -238.9,102.5 -242.1,224.4 -3.2,117.6 96.1,214.7 221.4,216.6"
         style="fill:#231f20;fill-opacity:1;fill-rule:nonzero;stroke:none"
         id="path28" />
      <path
         d="m 11807.4,32971.5 c 1.3,-118.4 -91.5,-212 -211.2,-213.2 -126,-1.2 -229,93.1 -228.3,209.2 0.7,118.2 102.5,221.3 219.1,221.9 121.5,0.7 219,-95.8 220.4,-217.9"
         style="fill:#231f20;fill-opacity:1;fill-rule:nonzero;stroke:none"
         id="path30" />
      <path
         d="m 11198.4,32725.5 c 109,2.2 215.8,-110 216.1,-226.9 0.2,-113.9 -99.4,-211.2 -216.3,-211.2 -120,0 -221.2,93.2 -223,205.3 -1.9,117.5 106.4,230.4 223.2,232.8"
         style="fill:#231f20;fill-opacity:1;fill-rule:nonzero;stroke:none"
         id="path32" />
      <path
         d="m 10805.5,32755.2 c -120.8,-0.7 -221.3,99.2 -219.7,218.5 1.5,112.7 103.8,213.1 216.9,212.9 116.4,-0.2 215.5,-95.9 217.7,-210.1 2.4,-123.3 -92,-220.5 -214.9,-221.3"
         style="fill:#231f20;fill-opacity:1;fill-rule:nonzero;stroke:none"
         id="path34" />
      <path
         d="m 11195.8,33228.8 c -120,-1.1 -217.9,97.6 -217.8,219.6 0.1,110.5 103.9,209.6 219.1,209.1 117.2,-0.5 217.6,-96.5 218.8,-209.3 1.3,-116.5 -100.8,-218.3 -220.1,-219.4"
         style="fill:#231f20;fill-opacity:1;fill-rule:nonzero;stroke:none"
         id="path36" />
      <path
         d="m 8991.75,30618.8 c 422.26,-5.7 805.01,373.1 813.16,804.9 8.22,435.4 -355.89,803.3 -800.14,808.5 -435.84,5 -808.81,-355 -813.41,-785.2 -4.89,-457.2 347.65,-822.1 800.39,-828.2 z m 1.2,2027.7 c 684.93,-6 1219.85,-547.3 1214.05,-1228.6 -5.6,-669 -558.76,-1212 -1230.2,-1207.6 -669.75,4.3 -1203.6,548.9 -1198.38,1222.4 5.17,667.5 557.63,1219.6 1214.53,1213.8"
         style="fill:#231f20;fill-opacity:1;fill-rule:nonzero;stroke:none"
         id="path38" />
      <path
         d="m 14196.5,31434.2 c -0.5,430 -369.5,800.9 -798.5,802.7 -444,1.9 -818.5,-368 -815.4,-805.4 3.2,-454.4 365,-813.9 817.8,-812.4 431.9,1.4 796.7,374.8 796.1,815.1 z m -2022.7,-5.9 c -0.6,676.2 543.6,1221.6 1216.2,1218.8 664.9,-2.8 1217.3,-553.7 1217.3,-1214 0,-682.5 -548.1,-1225.1 -1235.3,-1223 -654.6,2 -1197.6,554.1 -1198.2,1218.2"
         style="fill:#231f20;fill-opacity:1;fill-rule:nonzero;stroke:none"
         id="path40" />
      <path
         d="m 54079.6,37621.5 c -39.9,65.7 -80.6,61.8 -113.3,67.9 -371.7,70.5 -744.1,86.8 -1116.8,6.5 -30.8,-6.7 -83.6,-3.9 -80.4,-38.9 4.4,-47.4 58.4,-27.4 90.1,-27.9 309.2,-4 618.4,-5.5 927.5,-7.5 91.3,-0.6 182.6,-0.1 292.9,-0.1 z m -9399,19.4 c -191.7,144.4 -1125,140.5 -1343.5,-10.2 463.9,-15.9 903.2,-6 1343.5,10.2 z m 6098.2,-4084 c -639.5,3.1 -1182.3,-528 -1184.2,-1158.7 -2.1,-642.9 523.4,-1178.1 1160.6,-1182.3 649.2,-4.2 1167,509.6 1171,1162 4.2,664.7 -493.3,1175.9 -1147.4,1179 z m -5256.4,-1159.4 c -4.5,-653.6 497.9,-1175.4 1137.4,-1181.2 636.2,-5.8 1174.8,519.9 1177.8,1149.6 3.2,657.1 -510.1,1191.1 -1150.1,1196.6 -643.1,5.6 -1160.5,-511.8 -1165.1,-1165 z m 3175.1,2215.5 c 0,0.2 0,0.4 0,0.6 602,0 1204,-0.2 1806,0.1 223.1,0.2 264.5,41.9 264.6,265.2 0.4,746.8 0.4,1493.5 0.6,2240.2 0,179.9 -46.1,225.1 -228.6,225.1 -1223.7,0.2 -2447.4,0.5 -3671.2,0.8 -167.1,0.1 -218.7,-49.4 -219,-216.1 -1.3,-766.5 -2.2,-1533 -2.7,-2299.5 -0.1,-174.3 42.4,-216.4 214.7,-216.4 611.9,-0.1 1223.7,0 1835.6,0 z m -7751.3,-134 c -48,-53.9 -59.1,-103 -76.5,-148.2 -123.8,-322.8 -216.4,-655.5 -310,-987.9 -306.2,-1087.5 -511.3,-2190.1 -502.2,-3325.6 1.8,-232.5 32.6,-459.3 101,-680.6 395.6,-1279.6 1919.4,-1633.9 2804.2,-734.8 52.6,53.5 77.1,77.9 -18.9,109.8 -233.5,77.8 -430.3,207.8 -561.2,425.7 -52.3,87.1 -119.9,164.9 -177.8,248.9 -44.5,64.6 -101.9,108.9 -174.6,138.5 -274.3,111.2 -548.8,222.2 -821.1,338.1 -526,223.7 -741.1,559.9 -708.9,1116 15.3,262.6 46,524.3 85.4,784.6 14.8,97.4 25.9,196.2 51.4,290.9 28.7,107.2 139.4,174.6 232.4,155.4 107.3,-22.2 165.4,-104 158.3,-226.2 -2.1,-36 -7.9,-72 -14.9,-107.3 -61.7,-310.2 -104.5,-623.1 -123,-938.6 -21.1,-361.1 90.4,-542.9 421.8,-687.9 289.2,-126.5 580.9,-247.5 873.2,-366.9 126.3,-51.7 225.9,-128.5 299.6,-244.7 70.4,-111 149.1,-216.7 226.3,-323.3 36.7,-50.6 79,-95.8 137.9,-123.9 103.9,-49.5 209.2,-97.4 308.3,-155.4 86,-50.2 137.8,-38.2 205.1,40.4 672.1,784.6 1299,1606.8 1983.2,2381.1 43.2,48.8 32.6,82.8 3.7,129.4 -159.1,256.2 -226.5,536.6 -218,837.3 24.4,860.5 748.9,1551.1 1588.6,1508.8 830.2,-41.8 1522.1,-693.7 1491.5,-1528.6 -2.7,-73.5 28.1,-87.6 92.8,-87.2 276.4,1.9 552.9,1.6 829.2,-1.9 67.6,-0.8 93.5,18.8 89.9,89.4 -8.7,169.4 21,334.7 74.6,494.9 288.8,863.3 1295.9,1278.9 2153.3,889.6 798.1,-362.4 1109.3,-1402.6 649.2,-2188.6 -47.4,-81 -31.9,-123.5 20.3,-186.1 371,-444.5 738.4,-892 1107.7,-1337.9 287.6,-347.1 575.9,-693.5 864.9,-1039.3 27.1,-32.4 45.8,-74.9 110.9,-44 270,128.2 529.7,265.5 666.3,553.3 8.4,17.5 24.5,31.3 33.6,48.6 90.2,170.7 239.7,261.4 415.6,326.5 283.6,105.2 564.8,217.1 839.5,344.9 187.5,87.3 300.1,230.1 343.5,429.3 19.6,90.4 22.9,182.5 16.1,275 -37.8,516.5 -116.7,1025.6 -265.9,1522.6 -9.3,31.1 -15.2,64.4 -15.1,96.7 0.1,107.1 62.6,185 155.1,198.6 112.4,16.5 201.7,-41.9 231.3,-151.7 10.3,-38.1 18.9,-76.6 29.1,-114.8 133.1,-496.9 230.8,-1000.9 256.5,-1515 29.5,-591.2 -185.2,-931.6 -667,-1134.2 -209.2,-88 -415.7,-184.4 -630.1,-257.4 -238.3,-81.1 -426.1,-212.1 -545,-437.1 -130.5,-247.2 -349.7,-387.9 -602,-481.5 -88.5,-32.8 -59.9,-61 -15,-103.6 516.4,-489.8 1120.3,-617.7 1778.2,-371.6 698.3,261.3 1032.6,823.4 1106.9,1538.3 56.3,541.5 0.8,1085.1 -67.6,1624.1 -131.5,1035.8 -401.7,2037.8 -755.6,3018.4 -6.4,17.9 -8,40.1 -35.3,41.6 -21.5,-23.1 -21.5,-54.1 -25,-82.1 -25.4,-200.1 -77.3,-393.7 -142.9,-583.6 -92.6,-268.4 -204,-528.2 -384.5,-751.4 -64.7,-80 -153.6,-92.3 -238,-44.8 -64.1,36.2 -101.7,146.3 -72.3,227.2 15.6,42.8 38.5,83.6 62.9,122.3 155.8,246.7 271.8,510.1 344.3,793.3 101.7,397.5 154,804.3 44.9,1200.6 -131.3,476.6 -354.8,916.7 -724,1260.5 -447.1,416.5 -954.4,680.2 -1593.6,663.7 -812.3,-20.8 -1625.5,-6.9 -2438.3,-8.2 -141.8,-0.2 -146.9,-5 -147.3,-152.7 -2.1,-747 -3.6,-1494 -5.7,-2241 -0.2,-72.2 2.8,-144.8 -14.5,-216.1 -59.5,-244 -264,-394.5 -543.8,-395.3 -1263.6,-3.4 -2527.2,-6 -3790.8,-8.5 -320.8,-0.6 -551.8,233 -551.5,554.6 0.9,783.2 0.3,1566.4 3.9,2349.6 0.4,83.7 -18.1,113.6 -108.4,113.2 -914.8,-3.9 -1829.6,-2.9 -2744.4,-4.4 -55.7,-0.1 -112.3,-3.6 -166.8,-14.3 -467.3,-91.8 -853.6,-332 -1193.6,-656.1 -333,-317.4 -515,-725.7 -687.8,-1140.1 -58.2,-139.7 -74.7,-285.2 -78.2,-433.9 -8.7,-371.8 57.1,-733.4 147.9,-1091.8 21,-82.7 49.8,-163.9 51.8,-250.6 1.6,-73.8 -9.4,-140 -97,-159.3 -91.2,-20.1 -154.9,12.8 -187.1,101 -38.3,104.9 -76.4,210 -111.7,316.1 -60,180.6 -98.8,366.8 -139.2,567.2 z m 16796.4,-4425.2 c 14.3,-312 -53.3,-788.6 -284.1,-1234.1 -588.5,-1136.5 -2118.8,-1464.3 -3094.2,-661.8 -127.8,105.2 -233.3,231.3 -338.3,358.1 -728.1,879.1 -1456.9,1757.7 -2183.7,2637.8 -42.9,51.9 -67.4,57.4 -123.3,12.6 -763.5,-612.6 -1966.4,-328.2 -2361.3,569.4 -77.9,177 -167.2,227.5 -347.2,216.4 -252.4,-15.5 -506.6,-6 -759.9,-1.7 -71.2,1.2 -101.6,-24.3 -126.1,-90.2 -370.9,-998.5 -1565.9,-1340.5 -2414.1,-690.6 -60.4,46.3 -85.8,37.7 -131.3,-17.2 -748.7,-904.7 -1504.7,-1803.3 -2248.8,-2711.8 -780.7,-953.1 -2220.6,-949.9 -3044.3,-78.4 -423.9,448.5 -599.6,990.2 -610.8,1591.5 -22.2,1191.6 195.6,2348.8 513.4,3491.7 263,945.4 637.5,1845.2 1081.3,2717.6 302.2,593.9 784.1,996.2 1378.2,1276.3 5.9,2.7 11.8,5.9 18.1,7.7 193.8,53.5 332.7,148.3 326.5,380.2 -2.4,87.2 59.2,143.8 151.1,170.5 580,168.8 1160.3,171.1 1743.2,16.3 100,-26.5 133.3,-92.5 146.1,-185.3 29.3,-211.7 31.1,-211.6 246.2,-210.9 253.4,0.8 506.7,1.5 760.1,2.8 96.2,0.5 191.5,-1 273.8,-61.7 32.1,-23.7 57.3,-16.9 84.8,12.7 113.1,121.3 256.8,160.3 419,160.3 1247.1,-0.2 2494.2,1.5 3741.2,3.6 186.5,0.3 362.5,-22.3 489.7,-180.5 18.3,-22.7 39.3,-37.9 64.3,-8.6 66.6,77.9 158.7,71.6 246.6,71.7 306,0.4 612,-0.6 918,-4.8 71.2,-1 104.2,11.1 106.5,95.1 6.8,249.9 41.9,288.2 288,340.9 533.9,114.2 1064.5,99.9 1592.2,-42.4 93.5,-25.2 156.6,-70.5 158.6,-171.4 4.2,-214.7 119,-311.2 316.2,-393.2 673.1,-280 1158.6,-764.1 1479.8,-1423.1 455.4,-934 838.8,-1894.4 1101.1,-2900.3 246.3,-944.9 407.1,-1903.3 423.4,-3065.2"
         style="fill:#231f20;fill-opacity:1;fill-rule:nonzero;stroke:none"
         id="path42" />
      <path
         d="m 44614.7,35005.2 c -39.5,0 -78.9,-0.7 -118.4,0.1 -300.4,6.1 -480.5,186.8 -486.5,489.6 -1.9,95.3 2.3,190.8 -0.8,286.1 -3.6,109.6 -77.3,178.4 -182.9,176.5 -109.3,-1.9 -175.7,-67 -178.5,-179.6 -2.2,-88.7 1.1,-177.6 -0.7,-266.4 -6.5,-319.7 -203.4,-514.7 -521.3,-517.7 -95.4,-0.9 -190.9,1.7 -286.1,-3.3 -115.1,-6 -175.5,-72 -176.1,-182.9 -0.5,-102 71.1,-173.5 183.1,-177.2 101.9,-3.3 203.9,-0.7 305.9,-2.5 276,-4.9 479.2,-198.3 494.5,-474 5.5,-98.4 0.7,-197.3 2.4,-296 2.1,-121 68.7,-189.6 179.4,-187.6 114.4,2.1 181.1,69.5 183,186.2 1.6,95.4 0.5,190.8 2.9,286.1 7.2,280.9 177.8,461.5 457.8,480.9 71.8,5 144.6,0 216.7,-3.8 63.2,-3.4 125.3,0 184.7,21.6 88.3,32.2 129.9,97.3 123.1,190.9 -6.6,91 -59.4,142.9 -146.1,162.4 -78,17.6 -157.4,7.5 -236.1,10.6 z m -1357.6,657.9 c 4.1,72.1 1.6,145.3 13.6,216.1 47.3,278.5 305.5,483.2 585.8,469.4 282.5,-13.9 524.1,-249.9 540.8,-533 5.6,-95.1 0.3,-190.7 0.8,-286 0.6,-126.1 34.8,-159.3 159,-154.4 121.4,4.8 242.5,17.5 363.7,-8.4 282.9,-60.5 476.1,-300.4 463.7,-579.1 -12.2,-273.3 -223.2,-503.2 -502.5,-534.9 -123.6,-14 -249.4,-11.2 -374.2,-10.4 -80.8,0.4 -114.2,-36.1 -112,-113.3 2.7,-98.5 10.2,-197.3 6.1,-295.6 -13.1,-309.1 -277.1,-558.9 -581.6,-555.1 -299.2,3.8 -554.3,258.4 -561.8,563.5 -2.4,95.3 2.5,190.7 3.3,286.1 0.6,80.8 -37.4,120 -121.2,118.1 -128.1,-3 -256.4,-11 -384.1,8.6 -272.1,41.6 -473.5,264.1 -480.9,531.7 -7.3,266.7 183.5,499.9 453.1,556.7 110.9,23.4 222.4,18 334.1,15.3 175.1,-4.2 201.4,21.6 199.8,196 -0.3,36.2 0,72.4 0,108.5 -1.8,0.1 -3.7,0.2 -5.5,0.2"
         style="fill:#231f20;fill-opacity:1;fill-rule:nonzero;stroke:none"
         id="path44" />
      <path
         d="m 53514.7,33147 c 184,-1 325.6,139.6 324.8,322.4 -0.8,176.1 -143.1,318.5 -319.6,320 -195.7,1.7 -340.4,-131.4 -343.5,-316 -3,-176 151.8,-325.3 338.3,-326.4 z m 717,334.6 c -1,-388.5 -331.6,-718.8 -718.7,-718.3 -393.8,0.6 -712.1,316.7 -711.2,706 0.9,389.1 330,711.9 722.7,708.7 375.3,-3 708.1,-330.8 707.2,-696.4"
         style="fill:#231f20;fill-opacity:1;fill-rule:nonzero;stroke:none"
         id="path46" />
      <path
         d="m 53844.2,35699.9 c 2.4,185.5 -132.6,325.5 -318.4,330.5 -187.1,5 -338.7,-137.3 -341.3,-320.3 -2.7,-182.4 144.4,-329.7 331.2,-331.7 182.5,-1.8 326.2,138.8 328.5,321.5 z m -325,-694.5 c -404.1,2.1 -712.1,307.3 -708.3,701.8 4,411.7 303.3,706.5 714.2,703.7 401.8,-2.8 711.7,-311.8 707.6,-705.5 -4.1,-394.8 -317.4,-702.1 -713.5,-700"
         style="fill:#231f20;fill-opacity:1;fill-rule:nonzero;stroke:none"
         id="path48" />
      <path
         d="m 54716.3,34916.5 c -182.1,2 -330.9,-137.3 -336.4,-315.2 -5.5,-179.5 148.9,-333.4 339.4,-338.1 171.3,-4.2 321.7,147.6 325.2,327.9 3.3,169.8 -151.7,323.4 -328.2,325.4 z m 700.9,-327.3 c -2.6,-399.1 -311,-703.4 -710.7,-701.4 -382.5,2 -700.7,318.8 -700,696.9 0.7,411.6 316.1,720.9 730.2,716.3 381.3,-4.3 683,-319.9 680.5,-711.8"
         style="fill:#231f20;fill-opacity:1;fill-rule:nonzero;stroke:none"
         id="path50" />
      <path
         d="m 52318.6,34272.3 c 178.8,1.2 322.1,150 318.6,330.8 -3.3,167.2 -157.9,312.7 -331.6,311.9 -184.9,-0.9 -329.9,-142.9 -328,-321.4 1.9,-180.5 152.7,-322.5 341,-321.3 z m 695,329.7 c 1,-409.7 -300.5,-712.2 -709.1,-711.3 -385.4,0.7 -699.2,318.3 -698.8,706.9 0.5,387.5 309.7,702.3 690.7,703.2 400,0.9 716.3,-307.2 717.2,-698.8"
         style="fill:#231f20;fill-opacity:1;fill-rule:nonzero;stroke:none"
         id="path52" />
      <path
         d="m 51905.7,36641.9 c 0,-55.8 1.4,-111.6 -0.3,-167.3 -3.7,-115.8 -69.9,-185.1 -180.3,-191 -93.3,-5 -196.8,68.8 -203.3,163.6 -9.6,137.1 -9.3,275.5 -1.7,412.8 4.7,84.1 117.3,157.6 213.5,155.3 91.1,-2.2 166,-72 176,-166.9 3.7,-35.7 1.6,-72.1 1.9,-108.1 0.2,-32.8 0,-65.6 0,-98.4 -1.9,0 -3.9,0 -5.8,0"
         style="fill:#231f20;fill-opacity:1;fill-rule:nonzero;stroke:none"
         id="path54" />
      <path
         d="m 45899.8,36647 c 0,-59.1 2.7,-118.3 -0.6,-177.2 -6,-106.2 -81.7,-178.7 -183.1,-179.8 -107.5,-1.2 -190.4,70.1 -196,178.1 -6,118 -8.5,236.5 -4.1,354.4 4.6,121.7 82.6,193 194.1,189.9 106.3,-2.9 186,-85 189.8,-197.9 1.9,-55.8 0.3,-111.7 0.3,-167.5 -0.1,0 -0.2,0 -0.4,0"
         style="fill:#231f20;fill-opacity:1;fill-rule:nonzero;stroke:none"
         id="path56" />
      <path
         d="m 40972.5,32482.4 c -117.7,-0.2 -213.2,92.9 -215.8,210.4 -2.7,117.1 93.4,215.3 210.3,215.1 119.3,-0.2 216,-100.6 215.3,-223.7 -0.7,-115.3 -90.3,-201.5 -209.8,-201.8"
         style="fill:#231f20;fill-opacity:1;fill-rule:nonzero;stroke:none"
         id="path58" />
      <path
         d="m 48069.7,33925.6 c 110.2,-0.8 178.6,-64 178.2,-164.8 -0.4,-103.7 -85.9,-188.3 -187.9,-186.1 -92.5,2.1 -175.4,93.3 -173.8,191.2 1.6,99.1 72.1,160.5 183.5,159.7"
         style="fill:#231f20;fill-opacity:1;fill-rule:nonzero;stroke:none"
         id="path60" />
      <path
         d="m 49333.8,33927.9 c 109.6,0.6 187.1,-69.1 189.9,-170.6 2.7,-96.2 -74.6,-179.1 -169.7,-182.1 -100.8,-3.3 -195.5,84.8 -194.1,180.4 1.6,105.4 68.6,171.8 173.9,172.3"
         style="fill:#231f20;fill-opacity:1;fill-rule:nonzero;stroke:none"
         id="path62" />
      <path
         d="m 48880.1,33361.1 c -1.3,-94 -77.2,-169.4 -169.9,-168.9 -98.4,0.6 -177.4,85.4 -174.7,187.7 2.4,90 85.6,175.7 168.2,172.9 90.5,-3 177.7,-97.8 176.4,-191.7"
         style="fill:#231f20;fill-opacity:1;fill-rule:nonzero;stroke:none"
         id="path64" />
      <path
         d="m 48661.8,33742.1 c -2.1,-99.9 -77.1,-171.8 -177.4,-170 -88.5,1.6 -165.3,95 -163.7,198.9 1.5,90.7 78.7,157.3 179.1,154.6 98.2,-2.6 164.1,-77.4 162,-183.5"
         style="fill:#231f20;fill-opacity:1;fill-rule:nonzero;stroke:none"
         id="path66" />
      <path
         d="m 49082,33745 c -4.1,-104.4 -79.6,-178.7 -175.6,-172.5 -94.8,6.1 -170.6,88.8 -169,184.7 1.6,100.6 75.5,169.3 180,167.4 103.4,-1.9 168.8,-73.3 164.6,-179.6"
         style="fill:#231f20;fill-opacity:1;fill-rule:nonzero;stroke:none"
         id="path68" />
      <path
         d="m 48451.6,33372.1 c 1.8,-100.1 -63.4,-164.8 -166.3,-164.8 -97.8,-0.1 -184.2,76.2 -187.2,165.2 -2.9,84.2 88.5,175 177.9,176.7 88.7,1.7 174,-84.3 175.6,-177.1"
         style="fill:#231f20;fill-opacity:1;fill-rule:nonzero;stroke:none"
         id="path70" />
      <path
         d="m 49132.9,33206.3 c -94.3,0.3 -168.4,72.9 -170.2,166.5 -1.9,98.6 74.4,181.5 167,181.3 92.8,-0.1 179.6,-84.2 179.3,-173.5 -0.3,-96.4 -79.4,-174.6 -176.1,-174.3"
         style="fill:#231f20;fill-opacity:1;fill-rule:nonzero;stroke:none"
         id="path72" />
      <path
         d="m 46676.8,31940.2 c 242.3,-1.1 442.6,192.5 447,432.1 4.5,238.9 -209.8,446.8 -458.3,444.8 -229.5,-1.9 -425.9,-198.7 -428.4,-429.3 -2.6,-247.7 192.7,-446.6 439.7,-447.6 z m -2.2,-373.6 c -468.2,-2.8 -828.8,352.6 -831.1,819.2 -2.3,461.5 371.6,837.5 831.8,836.4 447.4,-1 834.3,-376.9 839.5,-815.6 5.5,-462 -369.9,-837.3 -840.2,-840"
         style="fill:#231f20;fill-opacity:1;fill-rule:nonzero;stroke:none"
         id="path74" />
      <path
         d="m 50771.2,31946.7 c 247.6,-1.6 453.8,196.6 453.8,436.1 0,236.7 -199.7,432.6 -444.1,435.8 -254.1,3.3 -462.6,-193 -464.1,-437 -1.5,-238.7 201.7,-433.3 454.4,-434.9 z m 5.4,1272.5 c 469.7,-0.8 834.9,-360.2 833,-819.8 -1.9,-472.1 -370.7,-841 -840,-840.1 -469.9,0.9 -845.2,371.9 -845.6,835.8 -0.3,465.1 371.9,824.9 852.6,824.1"
         style="fill:#231f20;fill-opacity:1;fill-rule:nonzero;stroke:none"
         id="path76" />
      <path
         d="m 44386.3,11068.6 c 232.8,0 433.1,-0.9 633.4,0.4 87.1,0.6 113.9,48.4 74.4,127 -26.5,52.8 -72.5,75.2 -128.6,75.5 -400.6,2 -801.1,5 -1201.6,2.9 -99.7,-0.6 -163.8,-96.4 -143.8,-193.4 5.1,-24.7 9.1,-44.7 42.4,-37.6 250.5,53.7 504.5,7 723.8,25.2 z m 9862.9,206.8 c 0,-0.2 0,-0.5 0,-0.7 -177.6,0 -355.3,0.5 -533,-0.4 -35.9,-0.2 -73.5,0.4 -107.4,-9.4 -80.1,-23.4 -107.4,-91.4 -97.6,-162.7 9.1,-65.9 75.2,-35.8 115,-36.1 368.5,-2.1 737,-0.4 1105.5,-0.6 68.6,-0.1 137.7,6.7 203.8,-24.2 45.5,-21.3 65.6,4.1 71.6,49 15,111.4 -49.2,182.8 -175.5,184.4 -194.1,2.6 -388.2,0.7 -582.4,0.7 z m -7624,-7567 c 749.7,0.8 1379.9,651.9 1380.5,1426.3 0.5,760.4 -627.4,1381 -1395.6,1379.3 -744.5,-1.7 -1366.6,-641.7 -1364.4,-1403.9 2.2,-765.4 629.1,-1402.5 1379.5,-1401.7 z m 5365.3,-4.8 c 730.5,0.9 1361.9,644.2 1362.6,1388.5 0.8,781.6 -614.8,1417.9 -1371.1,1417 -762.6,-0.8 -1388.1,-639.6 -1386.5,-1416 1.5,-753.8 640.7,-1390.4 1395,-1389.5 z m -2694,4446.7 c 0,-1.9 0,-3.8 0,-5.7 697.4,0 1394.8,0.5 2092.2,-0.3 232.4,-0.2 385.3,107.5 454.7,331.7 161.5,521.2 321.5,1042.9 507.2,1556.3 47.6,131.4 33,260.8 -41.3,378.9 -120.4,191.4 -292.6,301.1 -522.2,301.4 -1644.9,1.9 -3289.7,2.2 -4934.5,3.1 -201.6,0.1 -363,-89.3 -491.3,-235.7 -118.4,-135.2 -154.4,-294.8 -96.7,-469.9 169.8,-515 338.8,-1030.4 510.2,-1544.9 67.6,-202.7 227.7,-314.8 439.4,-314.8 694.1,-0.2 1388.2,-0.1 2082.3,-0.1 z m -3158.1,2571.8 c -59.1,0 -94.9,0 -130.6,0 -641.7,0.6 -1283.4,4.3 -1925,1.1 -841,-4.2 -1492.5,-366.3 -1960.2,-1060.6 -265.5,-394.1 -349.5,-843.5 -395.8,-1307.4 -116.7,-1168.6 -242.6,-2336.2 -365.9,-3504.1 -33.5,-317.6 -72.3,-634.3 -8.3,-953.1 154.7,-770.7 572.3,-1324 1323,-1600.1 191.2,-70.3 392,-95.3 593,-58 320.8,59.5 523,257.9 654.2,554 286.6,646.4 583.6,1288.2 881.9,1929.3 61.9,133 111.7,260.6 98.8,412 -7.7,90.1 9.7,183.8 25.3,274.3 144.1,837.8 859,1445.3 1692.7,1440.7 867.1,-4.9 1581.6,-628 1709.9,-1492.6 9.4,-63.9 9,-115.4 103.5,-114.7 582.4,4.3 1164.8,2.6 1747.2,-0.1 68.3,-0.3 87.5,23.6 94.9,88.8 103.6,910.5 911,1584.4 1809.7,1513.2 931.2,-73.8 1644.2,-857.6 1609.3,-1773.8 -3.3,-85.8 11.5,-161 47.3,-237.2 332.3,-708.7 665.5,-1417 992.7,-2128.1 77.1,-167.4 194.6,-286.3 354,-369.2 289.3,-150.4 587.8,-134.4 880.9,-25.1 807.1,301.1 1201.4,921.9 1314,1745.6 50,365.7 -27.9,728.3 -67.2,1090.6 -125.4,1157.7 -257.6,2314.7 -383.5,3472.3 -65.8,604.2 -298.9,1123.4 -768.6,1519.1 -433,364.8 -927.6,582 -1504.2,581.9 -648.3,0 -1296.5,1 -1944.7,0.7 -30.9,-0.1 -64.6,10.3 -101.9,-17.2 248.8,-285.7 232.3,-594.7 110.9,-931.6 -165.9,-460.7 -304.2,-931.3 -454.2,-1397.8 -126.9,-394.5 -367.1,-575.1 -782.2,-575.6 -1382,-1.6 -2764,-1.5 -4146,0.2 -413.1,0.5 -664.4,183.1 -796.8,577 -172.9,514.3 -340.1,1030.6 -511.5,1545.4 -63.6,191.2 -48.3,374.8 35.7,556.2 38.8,84 95.3,155.1 167.7,243.9 z m -1088.8,-6307 c -39.7,-30.2 -46.3,-67.2 -60.7,-99.1 -255.4,-566.7 -519.8,-1129.6 -762.4,-1701.8 -252.1,-594.7 -888.3,-839.3 -1432.5,-706.3 -948.2,231.6 -1517.2,849.2 -1754.6,1783.8 -92,362.4 -74.8,730.2 -35.4,1098.9 131.3,1226.7 266.8,2453 385,3681 64.6,670.2 276.2,1269.4 739.8,1767.2 294.2,316 637.9,558.6 1054.4,686.7 64.7,19.9 85.2,48.3 82.4,118 -14.7,359 195.5,578.9 554.9,581.8 381.7,3.1 763.5,3 1145.2,0.6 257.1,-1.5 482.4,-207.4 494.9,-457.9 4.3,-86.4 36.3,-100.8 112.5,-100.4 681.2,3.3 1362.4,4.5 2043.5,3.9 1796.8,-1.7 3593.5,-4 5390.2,-8.8 91,-0.2 137.5,6.9 148.6,118.6 24.9,250.1 232.4,436.6 489,441.4 407.9,7.6 816.1,8 1224,0.4 292,-5.4 502.6,-252.6 479.4,-560.8 -7.4,-97.8 27.2,-126.3 107.9,-159 990.5,-400.3 1581.8,-1123.4 1711.9,-2189.4 161.4,-1322.4 295.8,-2648.1 452.4,-3971.2 88.6,-748.8 -42.8,-1437.5 -514.8,-2037.9 -360,-458.1 -827.4,-746.7 -1413.5,-819.5 -524,-65.1 -1034.2,189.1 -1236.9,613.2 -163.2,341.3 -323,684.1 -483.2,1026.8 -132.2,283 -262.7,566.9 -394.3,850.3 -5.2,11.1 -13.2,20.9 -19.3,30.3 -28.6,-5.8 -30.7,-28.4 -38.2,-44.6 -296.7,-642.1 -916.8,-1027.4 -1611,-1000.2 -677.5,26.5 -1298.4,476.8 -1539.6,1116.4 -41.9,111 -78.5,223.9 -94.4,341.7 -7.5,56.3 -29.1,76.1 -88.2,75.8 -585.8,-2.4 -1171.5,-3 -1757.3,-0.6 -72.1,0.2 -93.8,-26.1 -106,-93.9 -136.3,-762.1 -778.6,-1355.5 -1545.5,-1432.3 -684.9,-68.6 -1390.5,332.1 -1687.6,958.5 -12.6,26.5 -24.5,53.4 -40.6,88.4"
         style="fill:#231f20;fill-opacity:1;fill-rule:nonzero;stroke:none"
         id="path78" />
      <path
         d="m 44518.7,9088.4 c -0.1,0 -0.2,0 -0.4,0 0,69.1 -3.9,138.5 1.2,207.2 5,67.4 -16.2,95.2 -87.1,91.1 -98.5,-5.6 -197.5,-6.8 -296,-2.4 -68.4,3 -82.7,-26.3 -80.9,-87.2 3.3,-115.1 2.2,-230.4 -0.7,-345.5 -5.6,-225.7 -130.8,-351 -358.3,-358.1 -115.1,-3.6 -230.4,-3.7 -345.5,-2.1 -50.2,0.8 -71.5,-16.6 -70.3,-68.2 2.1,-92.1 3,-184.4 -0.9,-276.3 -2.9,-67.1 27.7,-84 88.7,-82.8 115,2.2 230.3,0.1 345.4,-2.7 214.9,-5.2 333.1,-122.8 338.8,-338.6 2.9,-111.8 4.6,-223.8 0,-335.5 -3.1,-73.7 14.8,-109.2 97.3,-102.7 88.3,7 177.9,6.3 266.3,0.5 77,-5 96.1,27.6 93.7,98 -4.1,118.3 -2.3,236.9 0,355.3 3.9,209.5 105.1,315.8 314.2,324.2 118.2,4.7 237.1,4.2 355.2,-2.5 86.6,-4.9 129.5,16.4 118.7,112.9 -7.6,68.2 -6.3,138.6 0.8,207 9.2,88.7 -19.9,123.3 -112.5,118.8 -121.4,-5.9 -243.5,-1.8 -365.1,3.1 -180.8,7.3 -299.3,130.2 -302.4,308.8 -1,59.2 -0.2,118.4 -0.2,177.7 z m -238.3,-2040 c -82.2,0 -164.7,-4.5 -246.6,0.9 -185,12.2 -311.5,137.7 -323.7,322.7 -7.1,108.2 -4.4,217 -6,325.5 -2.3,151.7 21,139.3 -145.3,139.9 -88.8,0.3 -177.8,-2.3 -266.5,1.1 -185.9,7.1 -316.5,121.9 -342.3,306.4 -22.4,160.2 -21,322.1 1.8,482.1 24.2,170.1 169.6,294.1 341.4,298.4 98.6,2.5 197.4,0.2 296.1,-0.2 127.1,-0.6 126.6,-0.7 123.9,130.7 -2.1,101.9 -7.5,204.1 -3.5,305.8 10,255.7 130.3,368.1 386.8,368.3 134.8,0 269.8,2.4 404.6,-0.1 189.4,-3.5 337.8,-144.4 348.1,-334.2 6.7,-124.7 5.8,-250 3.5,-374.9 -1.1,-64.3 22.5,-86.8 86.8,-84 108.4,4.6 217.1,3.9 325.6,1.9 211.6,-3.9 367.7,-155.8 374.1,-366 3.6,-121.6 4.7,-243.6 -0.5,-365.1 -9.8,-224.8 -154.5,-363.1 -380.2,-368.4 -92.1,-2.2 -184.3,-1.5 -276.4,-1.7 -125.6,-0.3 -125.4,-0.1 -126.6,-130.6 -1,-105.3 0.1,-210.7 -4.7,-315.8 -9.5,-209.9 -141.6,-337.9 -353.3,-344.7 -72.3,-2.3 -144.7,-0.3 -217.1,-0.3 0,0.8 0,1.5 0,2.3"
         style="fill:#231f20;fill-opacity:1;fill-rule:nonzero;stroke:none"
         id="path80" />
      <path
         d="m 52833.2,8139.3 c 1.9,-160.1 139.2,-295.9 297.2,-293.8 156.6,2.1 300.1,143.5 299.6,295.3 -0.4,152.7 -152.3,288.3 -318.6,284.4 -156.8,-3.6 -280.1,-130.3 -278.2,-285.9 z m 295.5,630.2 c 356.8,-2.2 632.8,-279.3 631.1,-633.5 -1.8,-355.6 -281.1,-633.1 -634,-629.7 -349.1,3.3 -634.1,283.9 -633.5,623.5 0.7,361.2 280,641.9 636.4,639.7"
         style="fill:#231f20;fill-opacity:1;fill-rule:nonzero;stroke:none"
         id="path82" />
      <path
         d="m 54371.5,9601.4 c -164.7,-0.9 -295.9,-133.4 -293.2,-296.1 2.6,-150 136.1,-279.8 288.7,-280.7 146.1,-0.9 293,144 294.1,290 1.2,157.5 -130.3,287.6 -289.6,286.8 z m -18.2,-918.9 c -349.2,1.6 -612.4,276.5 -611.3,638.3 1.1,346.9 282.5,625.6 630.6,624.5 347.3,-1.1 623.3,-281.3 622.2,-631.7 -1.1,-362 -276.4,-632.8 -641.5,-631.1"
         style="fill:#231f20;fill-opacity:1;fill-rule:nonzero;stroke:none"
         id="path84" />
      <path
         d="m 55620.1,7856.6 c 165.3,-1.4 298.7,120.3 300.7,274.6 2.2,163.8 -134.8,297.1 -303.9,295.5 -150.9,-1.3 -277.1,-126.9 -277.2,-275.5 0,-163.7 123.4,-293.3 280.4,-294.6 z m 21.1,910.5 c 343.2,-5.9 622.8,-291.8 615.6,-629.6 -7.7,-364.8 -288.6,-635.1 -650,-625.3 -341.4,9.2 -610.7,295.9 -602.3,641.3 8.7,359.4 278.8,619.7 636.7,613.6"
         style="fill:#231f20;fill-opacity:1;fill-rule:nonzero;stroke:none"
         id="path86" />
      <path
         d="m 54366.1,7248.1 c -156.4,2.1 -275.5,-114 -278.4,-271.5 -2.8,-153.2 124.3,-291.1 273,-295.9 164.3,-5.4 294.6,118.2 294.2,279 -0.4,161 -125.8,286.2 -288.8,288.4 z m -4.8,340.9 c 360.5,2.5 633.2,-260.4 635.2,-612.4 2.1,-353.3 -277.4,-637 -627.8,-637.2 -340.8,-0.1 -612.5,283.1 -613.5,639.4 -1,337 268.1,607.9 606.1,610.2"
         style="fill:#231f20;fill-opacity:1;fill-rule:nonzero;stroke:none"
         id="path88" />
      <path
         d="m 49293.9,6135.1 c -167.8,0 -335.6,-2 -503.4,0.7 -131.9,2.1 -202,61.7 -203.6,164.7 -1.7,112.5 76.4,187.7 205.1,188.4 329,1.9 658.1,0.7 987.1,0.5 16.4,-0.1 32.8,-1.8 49.2,-3.6 110.5,-11.6 187.5,-84.1 189,-177.5 1.5,-96.7 -70.9,-167 -190.5,-170.1 -177.5,-4.5 -355.2,-1.1 -532.9,-1.1 0,-0.7 0,-1.3 0,-2"
         style="fill:#231f20;fill-opacity:1;fill-rule:nonzero;stroke:none"
         id="path90" />
      <path
         d="m 50840.3,7310.2 c 32.8,0 65.6,0.9 98.3,-0.2 103.5,-3.4 161,-59.7 159.8,-155.7 -1.2,-101.5 -60.8,-162.4 -164.9,-164.5 -75.3,-1.4 -151,-3.2 -226,2.5 -97.1,7.3 -142.6,65.8 -138.6,166.6 3.9,97.1 48.6,144.8 143.6,150.1 42.5,2.4 85.2,0.4 127.8,0.4 0,0.3 0,0.6 0,0.8"
         style="fill:#231f20;fill-opacity:1;fill-rule:nonzero;stroke:none"
         id="path92" />
      <path
         d="m 47783.6,6988.7 c -36.2,0 -72.5,-1.7 -108.6,0.3 -108.9,6.1 -164,58.5 -165.5,155.5 -1.6,103.3 51.6,157.8 167.1,163.1 68.9,3.2 138.4,2 207.1,-3.5 112.6,-9.1 161.6,-65.7 156.7,-172.6 -3.8,-84.3 -68.7,-139.6 -168,-142.6 -29.5,-0.8 -59.2,-0.1 -88.8,-0.2"
         style="fill:#231f20;fill-opacity:1;fill-rule:nonzero;stroke:none"
         id="path94" />
      <path
         d="m 50068.4,6989.4 c -36.1,0 -72.3,-1 -108.4,0.2 -104,3.4 -154.9,52.5 -155.6,148.7 -0.8,99.9 55.7,164.1 152,167.3 75.4,2.6 151.2,3.7 226.5,-0.6 92.7,-5.3 136.8,-60 135.4,-158.1 -1.5,-109.3 -41.9,-154.5 -141.5,-157 -36.1,-0.9 -72.3,-0.1 -108.4,-0.1 0,-0.1 0,-0.3 0,-0.4"
         style="fill:#231f20;fill-opacity:1;fill-rule:nonzero;stroke:none"
         id="path96" />
      <path
         d="m 48541.2,6989.8 c -39.4,0 -79.1,-2.5 -118.2,0.6 -92.4,7.2 -145.3,64.7 -145.1,153.8 0.3,99.5 49.1,157.8 145,162.8 75.2,3.9 151.2,3.1 226.4,-2.1 104.5,-7.1 158.2,-69.8 150.8,-167.2 -7.4,-96.1 -68.2,-149.7 -170.3,-149.9 -29.5,-0.1 -59.1,0 -88.6,0 0,0.7 0,1.4 0,2"
         style="fill:#231f20;fill-opacity:1;fill-rule:nonzero;stroke:none"
         id="path98" />
      <path
         d="m 49303.1,6989 c -32.8,0 -65.6,-1.3 -98.2,0.2 -113.4,5.3 -166.3,58.3 -164.4,163.1 1.9,103.5 48.5,149.6 161.2,153 71.9,2.2 144.2,2.1 215.8,-3.4 92.9,-7 135,-60.9 132.6,-159.4 -2.5,-100.6 -44.8,-148 -139.1,-153.2 -35.8,-2 -71.9,-0.4 -107.9,-0.3"
         style="fill:#231f20;fill-opacity:1;fill-rule:nonzero;stroke:none"
         id="path100" />
      <path
         d="m 49319.8,9966.7 c -680.7,0 -1361.5,0 -2042.2,0 -26.3,0 -52.7,-0.3 -78.9,1.3 -108.6,6.9 -169.1,63.8 -174.7,163.2 -4.9,88.2 62.5,171.6 155.1,188.6 25.6,4.7 52.4,3.7 78.6,3.7 1338.5,-0.2 2677,-0.5 4015.5,-1 52.5,0 105.5,1.3 157.6,-4.5 105,-11.5 166.7,-84.7 162.6,-186.6 -4,-100.5 -72.4,-163.8 -182,-163.9 -697.2,-0.5 -1394.4,-0.3 -2091.6,-0.3 0,-0.2 0,-0.3 0,-0.5"
         style="fill:#231f20;fill-opacity:1;fill-rule:nonzero;stroke:none"
         id="path102" />
      <path
         d="m 52573.1,5104.4 c 2.4,322.6 -271.6,599.8 -594.2,601.3 -317.4,1.5 -594.3,-270.8 -597.9,-588.1 -3.7,-325.9 257.1,-593.5 582.1,-597.1 328.6,-3.7 607.7,263.4 610,583.9 z m -1531.9,12.5 c -0.9,521.4 407.7,922.9 940.1,923.8 512.6,0.8 934.9,-411.4 934.7,-912.4 -0.2,-524.4 -415.7,-946.3 -934.6,-949 -524.7,-2.7 -939.3,410.8 -940.2,937.6"
         style="fill:#231f20;fill-opacity:1;fill-rule:nonzero;stroke:none"
         id="path104" />
      <path
         d="m 46026,5116.2 c 0.1,-326.1 263.7,-593.1 586.9,-594.3 331,-1.3 609.6,269.5 613,595.9 3.3,313.8 -275.9,591.1 -594.2,590.1 -325.5,-1 -605.8,-274.9 -605.7,-591.7 z m 612.7,-935.9 c -522.9,-7.3 -951.7,408.7 -956.2,927.6 -4.6,515.5 404.3,928.5 924.1,933.7 530.2,5.3 952.4,-387.9 961.1,-895.1 9.1,-526.2 -407,-958.9 -929,-966.2"
         style="fill:#231f20;fill-opacity:1;fill-rule:nonzero;stroke:none"
         id="path106" />
      <path
         d="m 19853.8,2936 c -717.8,-403.4 -1578,-246.5 -2087.2,399.3 -539.8,684.6 -1063.5,1381.8 -1597.1,2071.2 -47.1,60.7 -34.3,108.2 -11.7,168.7 214.3,574.8 172.7,1124.4 -184.7,1631.9 -265.7,377.4 -637,601 -1089.9,683 -94.2,17 -127.5,46.3 -127.1,146.6 5,1057.2 4.4,2114.4 5.9,3171.6 0.2,160.7 1.5,159.9 162.3,159.8 481.3,-0.5 962.6,-0.2 1443.9,-0.2 0,2 0,4 0,5.9 378.5,0 757.3,-10.8 1135.3,2.3 762.7,26.4 1354.2,-303.2 1849.9,-852.2 437.8,-485 650,-1065.4 752.4,-1700.2 200.4,-1242.1 445.1,-2476.3 682.1,-3711.8 170,-886.3 -204,-1765.6 -934.1,-2175.9 z m -5261.2,2050.8 c -690.1,5.3 -1250.8,564.4 -1242,1238.7 9.1,705.5 572.2,1259.6 1272.8,1252.6 682.8,-6.9 1231.7,-570.4 1224.6,-1257.4 -7.2,-699.6 -556.4,-1239.4 -1255.4,-1233.9 z m -1655.5,1000.8 c 18.6,-111.5 -35.1,-101.9 -105,-102 -596.8,-0.9 -1193.5,-2.8 -1790.2,-4.2 -119.3,-0.3 -238.9,4.8 -358,-0.7 -80.3,-3.7 -100.9,24 -85.1,100.1 14.2,68.2 22,138.5 24.3,208.1 26.7,790 -523.9,1509.3 -1299.32,1689.6 -99.73,23.2 -128.88,59.7 -127.74,162.1 5.94,530.8 2.76,1061.7 2.76,1592.6 0.5,0 0.99,0 1.48,0 0,530.8 3.82,1061.8 -2.96,1592.6 -1.5,117.4 35.19,141.4 145.3,141 991.78,-3.2 1983.58,-0.7 2975.38,0.5 57.5,0.1 115.2,2.7 172.5,7.3 6.9,0.5 12.9,1.9 19.2,3 h 801.2 c 20.4,-5.4 42.4,-8.6 66,-9.1 263.3,-5.4 527,-7.6 790,1.4 117.3,4 152,-25.9 151.7,-147.6 -2.5,-1045.3 2.1,-2090.6 4.8,-3135.9 0.5,-182.9 1.1,-182.9 -178.8,-232.1 -808.5,-220.8 -1344.8,-1044.7 -1207.5,-1866.7 z M 8948.43,4986.9 c -700.05,1.2 -1255.74,558.5 -1253.2,1256.9 2.49,679.5 562.76,1242 1233.13,1238 C 9642.91,7477.6 10202.8,6916.3 10197,6210 10191.6,5540.4 9625.41,4985.8 8948.43,4986.9 Z M 7374.77,5583 c 23.19,-60.2 39.61,-107.3 -7.9,-168.7 -520.88,-673.6 -1034.2,-1353.1 -1558.53,-2024 -368.56,-471.5 -853.14,-730.1 -1459.76,-665.2 -755.45,80.8 -1255.55,513.3 -1525.36,1213.6 -150.13,389.7 -160.9,790.7 -79.5,1201.6 257.33,1298.9 494.19,2601.8 719.43,3906.6 173.78,1006.7 733.65,1713.3 1638.91,2158.3 212.11,104.3 443.31,155.8 680.69,156.7 954.55,3.5 1909.1,2.3 2863.65,6.1 88.56,0.4 109.84,-30.7 109.34,-114.5 -3.24,-539 -1.65,-1078 -1.65,-1617 1.83,0 3.67,0 5.51,0 0,-534.8 -1.03,-1069.7 1.12,-1604.6 0.33,-79.7 -12.44,-121.6 -106.9,-139.6 C 7580.38,7687.5 6981.46,6603.3 7374.77,5583 Z m -1925.69,6645.9 c 44.5,66.5 100.84,97.7 185.23,97 419.76,-3.4 839.56,-2.6 1259.32,0.3 75.71,0.5 123.6,-26.7 158.25,-92.1 51.98,-98.1 108.66,-193.6 162.62,-290.7 71.01,-127.7 70.7,-129.3 -70.94,-129.7 -308.66,-0.8 -617.33,1.7 -925.98,-0.3 -348.23,-2.3 -699.44,22.8 -1042.83,-100.4 83.99,180.7 166.62,355.1 274.33,515.9 z m 10908.62,-295.8 c 214.5,392.4 214.5,392.2 663.7,391.3 291.8,-0.6 583.7,-3.2 875.5,1.2 106,1.6 182.8,-31.5 232.8,-126.2 84,-159.3 169.5,-317.8 269.5,-505.1 -671.2,207.9 -1324,98.2 -1969.7,120.8 -135.8,4.8 -135.9,0.7 -71.8,118 z m 4867.6,-6779.3 c -207.1,1191.3 -436.1,2378.7 -656,3567.8 -71.8,388.1 -130.5,779 -284.8,1147.1 -230,548.5 -594.6,992.3 -1055,1360.7 -111.7,89.3 -197.7,191.8 -262.8,319.5 -147.6,289.4 -304.2,574.3 -457.4,860.9 -120.2,225 -312.7,332.7 -563.1,334.8 -423.8,3.6 -847.7,2.9 -1271.6,1.9 -238.5,-0.6 -418,-107 -536.5,-314 -91.9,-160.6 -190.8,-318.1 -269.8,-485 -53.9,-113.9 -123,-150.7 -247.5,-147.7 -366,8.8 -732.4,3.3 -1098.7,3.7 -378.6,0.4 -757.2,0.4 -1135.8,2.2 -15.6,0 -30.6,-0.6 -45.1,-2.1 l -1422.5,-0.1 c -1328,0.7 -2656.03,1.7 -3984.02,-1.1 -105.26,-0.3 -163.98,31.9 -211.52,124.8 -89.85,175.6 -188.68,346.9 -290.06,516.2 -110.23,184.2 -268.64,302 -490.84,304.1 -432.06,4.1 -864.17,2.2 -1296.27,4 -281.09,1.2 -488.87,-117.6 -622.94,-367.2 -153.76,-286.2 -315.1,-568.5 -465.33,-856.6 -62.65,-120.2 -145.74,-212.5 -253.55,-293.9 -671.28,-506.3 -1107.84,-1163.6 -1253.41,-1999 -232.99,-1337.2 -482.17,-2671.4 -738.34,-4004.2 -97.98,-509.8 -74.87,-1006.9 113.3,-1492.7 597.7,-1543.2 2561.63,-2027.8 3682.84,-671.8 519.07,627.7 1011.48,1277.1 1494.77,1932.9 54.8,74.4 83.02,91.8 162.18,18 796.59,-742.3 2030.4,-585.5 2622.19,331.8 46.1,71.5 98.5,83.2 173,83.1 749,-0.8 1498.1,-6.2 2246.9,6.2 201.7,3.3 362,-17.9 443.7,-225.6 7.2,-18.2 25,-32.4 38.3,-48 648,-758.9 1724.4,-829.6 2471.5,-155.6 88.3,79.6 121.1,62.8 182.6,-20.4 259.3,-350.6 522.8,-698.1 788.3,-1044.1 217.9,-284 437.3,-566.9 662.1,-845.5 812.9,-1007.4 2169.4,-1110.6 3112.9,-221.7 657.3,619.2 870.6,1400.9 718.3,2276.6"
         style="fill:#231f20;fill-opacity:1;fill-rule:nonzero;stroke:none"
         id="path108" />
      <path
         d="m 13576.9,9541.2 c -2.6,-135.6 0.8,-271.5 3,-407.2 2.7,-168.9 69,-249.2 204.6,-250 137.4,-0.8 221.5,89.4 226.9,251.3 3.9,115 0.8,230.4 0.7,345.6 -0.1,355.4 -218.6,575 -576.6,575.8 -559.6,1.2 -1119.3,0.3 -1678.9,0.3 0,-0.2 0,-0.5 0,-0.8 -576.1,0 -1152.2,1 -1728.3,-0.4 -244.43,-0.7 -494.31,-197.3 -525.88,-437.8 -23.36,-178.1 -15.85,-361.6 -7.27,-541.9 5.57,-117.1 126.54,-200.1 247.39,-191.9 116.07,7.9 173.89,69 180.73,206 6.97,139.7 9.32,279.8 6.72,419.6 -1.62,87.4 24.81,123.4 119.51,123.1 1143.9,-3.8 2287.9,-4.7 3431.9,-3.9 67.6,0 96.9,-16 95.5,-87.8"
         style="fill:#231f20;fill-opacity:1;fill-rule:nonzero;stroke:none"
         id="path110" />
      <path
         d="m 11570.8,6922.6 c 128,0 251.1,0 392.8,0 -195.3,-230 -257.3,-228.6 -392.8,0 z m 623.9,432.7 c -135.6,-1.2 -271.3,-0.3 -407,-0.3 0,-0.6 0,-1.3 0,-2 -139.8,0 -279.7,2.8 -419.4,-0.5 -291.1,-7 -448,-283.7 -290.6,-530.4 144.3,-226.1 334.9,-416.2 539.3,-589.4 77.6,-65.7 177.4,-80.3 260.3,-7.7 213.7,187.1 409.7,392.8 584.9,616.3 82.3,105.1 86.4,228.3 26.1,349.7 -60.3,121.1 -163.9,165.4 -293.6,164.3"
         style="fill:#231f20;fill-opacity:1;fill-rule:nonzero;stroke:none"
         id="path112" />
      <path
         d="m 13191.7,8353.3 c -97.3,8.8 -196.6,11.2 -293.7,2.3 -119.9,-10.9 -180.5,-91.6 -174.7,-210 5.7,-116.6 64.8,-179.4 182.8,-189.4 44.6,-3.7 89.9,-0.6 134.9,-0.7 45,-0.1 90.2,-2.4 135,0.3 122.9,7.4 191,74.7 195.7,190.3 4.5,112 -63.4,196.7 -180,207.2"
         style="fill:#231f20;fill-opacity:1;fill-rule:nonzero;stroke:none"
         id="path114" />
      <path
         d="m 12335.3,8352.8 c -45.1,2.5 -90.4,0.4 -135.6,0.4 0,-0.1 0,-0.3 0,-0.4 -41.1,0 -82.3,1.9 -123.2,-0.4 -125.2,-6.9 -190.7,-66.5 -195.5,-175.6 -5.6,-127.5 57,-210.6 179.4,-221.1 93.8,-8 189.2,-8 283.1,-0.7 111.7,8.7 185.1,101.1 179.6,211.1 -5.5,109.7 -75.7,180.5 -187.8,186.7"
         style="fill:#231f20;fill-opacity:1;fill-rule:nonzero;stroke:none"
         id="path116" />
      <path
         d="m 11210.5,7953.5 c 85.5,-5 172.4,-5.8 257.5,2.8 121.6,12.3 182.1,94.3 176.2,222.4 -5.2,113.5 -65.6,168.9 -191.8,174.3 -40.9,1.8 -81.9,0.3 -122.8,0.3 0,-0.3 0,-0.5 0,-0.7 -36.8,0 -73.7,0.8 -110.5,-0.2 -136.5,-3.6 -206.7,-66.2 -209.5,-185.6 -3,-128.9 65.7,-205.4 200.9,-213.3"
         style="fill:#231f20;fill-opacity:1;fill-rule:nonzero;stroke:none"
         id="path118" />
      <path
         d="m 10600.6,8355.2 c -40.7,3.2 -81.8,0.5 -122.7,0.5 0,1.6 -0.1,3.2 -0.1,4.7 -53.1,-2.7 -106.4,-3.3 -159.3,-8.6 -115.5,-11.5 -159.7,-89 -166.7,-193 -7.2,-108.1 38.5,-184.9 150.8,-203.4 105.4,-17.3 212.8,-18.9 318.2,-1.7 104.7,17.2 168.4,105.7 163.5,212.4 -5,109.9 -72.4,180.5 -183.7,189.1"
         style="fill:#231f20;fill-opacity:1;fill-rule:nonzero;stroke:none"
         id="path120" />
      <path
         d="m 18582.2,8578.6 c -138.3,-0.4 -255,121.3 -252.5,263.4 2.5,143 120.3,263.7 256.8,263.1 140.5,-0.6 258.4,-118.3 259.6,-259.2 1.3,-147.7 -116.3,-266.8 -263.9,-267.3 z m 17.5,954.7 c -395.9,-1.9 -689.2,-301.7 -686.2,-701.4 3,-398.3 291.3,-685.9 686.2,-684.5 380.1,1.3 668.2,306.5 667.3,706.8 -0.7,379.8 -296.6,680.9 -667.3,679.1"
         style="fill:#231f20;fill-opacity:1;fill-rule:nonzero;stroke:none"
         id="path122" />
      <path
         d="m 17270.6,10172.2 c 149.6,1.5 252.7,-96.2 254,-240.8 1.3,-148.1 -111.3,-270.3 -246.8,-267.7 -140.9,2.6 -252.7,121.5 -250.4,266.3 2.1,134.9 108.5,240.9 243.2,242.2 z m 7.9,-938.9 c 388.9,-0.4 674,293.2 675.7,695.9 1.5,372 -297.6,676.9 -669.6,682.2 -374.3,5.4 -680.1,-299.1 -683,-680.1 -2.9,-389.7 295.6,-697.6 676.9,-698"
         style="fill:#231f20;fill-opacity:1;fill-rule:nonzero;stroke:none"
         id="path124" />
      <path
         d="m 15958.2,8576.2 c -141.3,-3.9 -253.3,102.8 -256.3,244 -3.1,145.1 109.2,265 250,266.9 146.2,2 262.9,-101.7 265.2,-235.6 2.7,-148.9 -112.5,-271.3 -258.9,-275.3 z m 8.1,940.7 c -392,-0.8 -690,-298.1 -688.6,-687.1 1.4,-375.4 303,-682.7 669.6,-682.4 386.4,0.4 699.8,309 696,685.2 -4,393 -293,685.1 -677,684.3"
         style="fill:#231f20;fill-opacity:1;fill-rule:nonzero;stroke:none"
         id="path126" />
      <path
         d="m 17268.7,7529.3 c -147.4,-0.3 -268,120.1 -264.4,263.9 3.4,136.6 125.9,253 266.3,253.2 138.7,0.2 258.2,-121.2 256.4,-260.4 -1.9,-143.2 -115.9,-256.5 -258.3,-256.7 z m -10.8,937.1 c -366,0.1 -662.7,-305.1 -665.4,-684.4 -2.7,-382.4 303.3,-687.1 689.3,-686.4 367.4,0.6 660,302.9 663.4,685.3 3.5,388.1 -294.6,685.3 -687.3,685.5"
         style="fill:#231f20;fill-opacity:1;fill-rule:nonzero;stroke:none"
         id="path128" />
      <path
         d="m 7378.08,8648.4 c -69.64,4.6 -139.84,1 -209.78,1 0,-0.3 0,-0.7 -0.01,-1 -74.02,0 -148.33,4.1 -222.03,-0.8 -204.26,-13.7 -323.3,-132.2 -335.92,-338.5 -7.52,-123.1 -7.86,-246.8 -5.4,-370.2 1.55,-77.5 -24.75,-113.2 -106.23,-111.1 -135.68,3.3 -271.64,3.6 -407.26,-1.2 -74.37,-2.6 -90.51,32.1 -89.73,96.5 1.63,131.6 2.24,263.4 -2.8,394.9 -7.41,193.6 -133.68,319.9 -328.69,328 -152.05,6.3 -304.41,7.4 -456.62,6.8 -69.77,-0.2 -106.17,18.6 -102.59,97.7 5.4,119.1 3.76,238.7 0.97,357.9 -1.57,67.5 22.87,96 92.99,95.5 148.07,-1 296.3,1.3 444.25,7.5 216.63,9 331.75,121.8 343.95,338.7 6.94,123.1 8.31,246.9 4.86,370.1 -2.15,76.6 17.02,113.1 102.25,110.1 143.81,-5.1 288.06,-3 431.94,1.5 70.07,2.2 94.11,-22.7 91.49,-92.4 -4.62,-123.3 -4.63,-246.9 -1.26,-370.2 6.16,-225.6 117.06,-341 343.27,-351.2 139.59,-6.3 279.8,-3.7 419.58,0.4 72.88,2.2 104.67,-20.4 101.85,-97.6 -4.5,-123.2 -5.38,-247 0.59,-370.2 4.14,-85.4 -33.08,-107.2 -109.67,-102.2 z m 560.28,54 c 3.64,156.1 2.35,312.5 -3.32,468.6 -9.86,271.8 -204.71,459.2 -475.52,462 -102.77,1.1 -205.72,3 -308.31,-1.6 -73.9,-3.3 -105.09,22.1 -100.97,98.5 4.62,86.1 4.45,172.8 -0.13,258.9 -13.64,256.5 -196.2,448 -451.5,469.8 -93.84,8 -188.93,1.3 -283.45,1.3 -0.07,3.4 -0.13,6.8 -0.2,10.1 -114.89,-5.5 -230.49,-4.9 -344.5,-18 -239.87,-27.6 -386.85,-182.5 -403.28,-422.4 -7,-102.4 -5.74,-205.6 -2.27,-308.2 2.33,-69 -23.15,-96.6 -92.36,-94.4 -110.92,3.5 -222.2,6.2 -332.96,1.2 -245.27,-11 -418.08,-167.2 -448.14,-409.4 -23.36,-188.1 -22.06,-378.2 3.82,-565.8 31.4,-227.5 185.42,-377.7 412.53,-411.4 68.75,-10.2 139.17,-12.1 208.86,-12.6 242.34,-1.4 242.29,-0.6 241.84,-236.5 -0.08,-45.2 -0.54,-90.5 0.67,-135.7 6.33,-237.8 187.25,-433.9 425.34,-444.8 205.14,-9.4 411.44,-11.3 616.44,-1.1 263.32,13.3 431.89,191.7 445.16,454.1 4.56,90.3 6.75,181.1 1.73,271.3 -4.83,86.3 23.26,119.2 113.02,106.7 122.57,-17.1 246.41,-10.3 369.01,6 232.35,30.9 402.98,218.1 408.49,453.4"
         style="fill:#231f20;fill-opacity:1;fill-rule:nonzero;stroke:none"
         id="path130" />
      <path
         d="m 25013.1,21331.3 c -12.8,-150.2 -4.7,-302.3 -6.7,-453.5 -1.5,-116.3 -30.7,-147.7 -144.9,-149.5 -124.9,-2 -250,-0.8 -375,-0.6 -84.4,0.2 -126.4,39.4 -124.7,127.5 2.7,144.7 2.9,289.5 0.7,434.2 -3.7,243.6 -148.6,393 -393.1,402 -121.5,4.4 -243.4,-2.1 -365,-1.2 -123.8,0.8 -164.8,42.3 -166.2,167.1 -1.3,121.7 -1.1,243.5 -0.1,365.2 1,128.4 34,161.9 165.9,164.6 105.2,2.3 210.5,-1.1 315.8,0.5 304.1,4.9 433,131.3 439.9,433.1 3,131.5 3,263.2 1.1,394.8 -1.1,84.5 29.7,128.3 121,125.8 141.3,-3.9 282.8,-3.5 424.1,-1.1 73.1,1.3 99.8,-30.8 97.2,-101.1 -3.1,-82.2 -0.7,-164.5 -0.7,-282.4 4.8,-72.4 -13.6,-181.4 11.9,-288.8 40.7,-171.4 170.5,-276.6 346.8,-277.5 134.9,-0.8 269.8,3.6 404.6,1.4 128.6,-2.1 164.8,-40.2 165.1,-165.9 0.3,-131.6 0.5,-263.2 -2.6,-394.8 -2.5,-107.3 -45.3,-147.2 -153.4,-146.5 -121.7,0.7 -243.4,6.5 -365,5.2 -247,-2.8 -375.8,-114.5 -396.7,-358.5 z m 431.5,66.9 c 131.6,1 263.3,-2.1 394.9,1.5 226,6.1 377.7,140 390.9,362.6 10.8,183.5 9.8,369 -4,552.2 -17.5,230.8 -169.2,360.4 -400.6,361.7 -125,0.7 -250.1,-1.6 -375.1,-5 -147.4,-4 -162.2,9.8 -162,161 0.3,151.3 5.1,302.9 -0.9,454 -8.5,212 -157.3,352.9 -369,357.8 -75.6,1.8 -151.3,0.3 -227,0.3 0,0.4 0,0.8 0,1.2 -75.7,0 -151.4,1.5 -227.1,-0.3 -252.5,-6 -388.5,-140.9 -393.5,-394.2 -3.1,-154.6 -1.6,-309.3 0,-464 0.9,-78.4 -32.9,-113.6 -112.8,-112.7 -144.7,1.7 -289.6,-0.1 -434.3,-2.5 -195.8,-3.3 -339.8,-124.1 -364.6,-318.1 -25.9,-202.7 -23.5,-407.8 -2.4,-610.5 21.6,-207.6 180.4,-338.4 391.4,-340.5 128.3,-1.3 256.7,0.6 385,-0.2 110.7,-0.7 134.2,-22.3 135.5,-132.3 1.8,-151.3 -1.2,-302.7 0,-454.1 1.6,-202.8 108,-339.8 310.5,-369.8 201.8,-29.8 407.8,-29.4 609.5,0.4 195,28.8 303.3,168 305.8,364.6 1.9,144.8 -0.7,289.6 0.5,434.4 1.1,126.6 25.9,151.5 149.3,152.5"
         style="fill:#231f20;fill-opacity:1;fill-rule:nonzero;stroke:none"
         id="path132" />
      <path
         d="m 35153.5,24675.4 c 314.1,500.4 1385.8,477.7 1776.7,-35.8 -595.4,235.6 -1178.7,249.8 -1776.7,35.8 z M 33180.7,21794 c -1,-262.2 -143.7,-400.2 -407,-400.3 -163.2,0 -326.4,-1.1 -489.6,-1.2 l -150.2,0.2 c -119.1,0.6 -238.1,1.9 -357.1,5.1 -15.2,0.4 -29.2,-1.2 -42.1,-4.3 l -943.4,1.7 c -11.5,1 -23.5,1.6 -36.3,1.5 -139.3,-0.2 -278.7,-0.4 -418,-0.6 h -8.4 v 0 c -802.3,-1.3 -1604.5,-2.5 -2406.8,-3.9 -249.6,-0.5 -402,144.7 -402.2,397.1 -0.6,822.7 1.5,1645.3 5,2467.9 1.1,249.3 153.4,394.8 404.5,394.8 1609.1,-0.1 3218.2,-0.3 4827.3,-0.8 293.3,-0.1 429.1,-133.5 429.1,-428.8 0,-809.5 -1.8,-1619 -4.8,-2428.4 z m -9395.8,2863 c 356.8,501.7 1430.7,523.1 1785.8,35.6 -667.1,159.7 -871.9,234.7 -1785.8,-35.6 z m 15706.2,-6940.1 c -14.1,155.7 -31.5,311 -50.2,466.3 h 0.2 l -1.5,10.6 c -41.6,344 -90.8,687.4 -133.5,1031.3 -2.8,22.8 -7.9,43.1 -14.9,61.2 l -111.9,823 c 0.2,5.4 0.3,10.7 0.3,16.3 -30.4,217.8 -62.8,448.4 -94.8,679.1 -44.4,320.7 -88.7,641.5 -133.1,962.3 h 0.1 l -0.1,0.6 c -5.6,39.9 -11.1,79.9 -16.6,119.8 -2.2,16 -6,30.3 -11.1,43 l -92,540.7 c 11.3,33.9 10.1,77.7 -4.5,131.8 -176.8,653.9 -519,1200.4 -1076.5,1593.7 -185,130.5 -361.7,257.2 -461.9,467.1 -16.7,35 -45,64.7 -69.2,95.8 -693.3,891.5 -2069.8,754.4 -2572.4,-256.9 -24.9,-50.1 -60.2,-82.9 -107.1,-110.4 -239.9,-140.2 -460.4,-305.3 -644.1,-515.9 -161.8,-185.6 -301.1,-386.1 -395.7,-619.1 -33.1,28.2 -18.7,55.8 -18.7,80 -0.1,325.7 4.5,651.5 0.1,977.2 -3.4,250.8 -121.6,437.6 -339.9,562.8 -103.8,59.5 -214.2,76.1 -331.7,76.1 -1648.6,-1 -3297.2,-0.6 -4945.7,-0.7 -346.8,0 -630.1,-274.9 -637.8,-621.8 -3.9,-174.3 -1.4,-348.8 -1.5,-523.2 -0.2,-179.9 0,-359.8 0,-539.7 -253.4,503.8 -625.9,882.5 -1104.2,1161.8 -27.4,16 -40.7,40.4 -54.5,67.3 -153.2,297.8 -374.2,532.4 -669,691.3 -751.6,405.2 -1723.7,71.5 -2110.6,-723.9 -26.4,-54.4 -62,-88.4 -110.8,-118.3 -311.5,-190.9 -580.4,-428.7 -806.6,-717.2 -422.6,-539.4 -577.1,-1170.2 -650.5,-1833.8 -54.9,-496.5 -126.7,-991.1 -190.4,-1486.6 -41.8,-326.1 -82.8,-652.2 -123.7,-978.4 -56,-446.9 -108.1,-894.4 -168.7,-1340.7 -42.2,-311.5 -57.9,-621.1 -1.1,-932.6 196.2,-1077.6 1040.1,-1914.7 2155.4,-2003 881.1,-69.8 1600,256.1 2115.6,979.5 220.8,309.8 404.6,646.2 602.3,972.3 129.5,213.8 253.9,430.7 380.1,646.4 33.1,56.6 50.7,116.8 9.9,176.2 -35.4,51.6 -86,81.6 -151.2,76.8 -75.9,-5.6 -111.9,-62.4 -145.7,-119.6 -239.6,-404.7 -478.1,-810.1 -718.2,-1214.5 -168.1,-283.3 -337.4,-565 -602,-774.3 -646.2,-511.2 -1543.7,-591.9 -2255.5,-205.7 -794.6,430.9 -1188.4,1276.6 -1121.2,2087.5 31.4,379.4 90.1,756.6 138.5,1134.5 63,492 129.3,983.6 191.9,1475.7 75.8,596.6 139.1,1195.1 226.2,1790.1 125.2,855.3 536.1,1538.6 1273.8,2007.8 615.7,391.7 1276.9,548.6 1997.6,359.7 1101.1,-288.6 1874.6,-1320.4 1892.7,-2486.6 1.3,-85.5 -1.4,-171.3 3.9,-256.5 21.2,-342.2 291.7,-599.6 635.2,-604.4 197.4,-2.7 394.9,-1.8 592.3,-1.9 688.2,-0.2 1376.4,-0.2 2064.6,0 l 0.1,-0.1 1231.8,-3.5 c 9.7,-1.2 19.6,-2 30.1,-2 109.7,0.5 219.4,0.8 329,1 h 2.5 v 0 c 254.7,0.6 509.4,1.2 764.2,4.6 113.8,1.6 219.1,43.3 312.8,108.9 213.6,149.6 303.6,362.5 285.5,614.8 -20.4,284.3 25.5,555.6 106.6,826 288.6,962.3 917.1,1593.5 1892.9,1805.9 1062.8,231.2 1920.6,-184.2 2599,-999.2 215.3,-258.7 354.1,-561.9 447.3,-885.7 L 38648,21767 c 40.7,-298.8 81.9,-597.6 123.5,-896.3 9.8,-70.1 19.5,-140.2 29.2,-210.3 v 0 l 309.9,-2303 c 11.5,-90.8 24.2,-181.3 36.4,-270.4 l 0.2,-1 v 0.1 c 27.3,-198.9 52.2,-390.2 55.2,-560 -5,-419 -95.1,-757.5 -279.7,-1100.7 -462.7,-860.5 -1478.2,-1277.4 -2399.9,-985.4 -19.7,6.2 -39,13 -58.3,20.1 -15.4,24.3 -61.6,46.8 -154.1,64.9 -56,26 -111.4,53.2 -167.3,79.6 -23.2,11 -45,16.5 -65.5,17.3 -364.3,220.3 -704,711 -704,711 v 0 c -110.2,178.7 -220.7,357.3 -329.4,536.9 -190.8,315 -378.1,632 -568,947.5 -64.4,106.9 -165.4,134.2 -244.3,56.5 -217.7,-214 -483.9,-280.4 -777.4,-273.8 -65.8,0 -132,5 -197.2,-1.3 -84.1,-8.1 -130.7,-60.3 -129.5,-145.5 1.1,-81.9 38.3,-140.4 126.8,-147.6 68.7,-5.6 137.9,-6 207,-6.4 280.3,-1.5 552.9,27.6 786,206.2 53.4,41 66.7,-5 85.4,-38.3 244.1,-435.7 503.8,-861.9 768,-1285.5 v 0 c 134.9,-365.9 656,-702.4 910,-848.8 26.4,-18.3 54.4,-34.6 83,-49 19.2,-9.6 38.4,-18.9 57.7,-28 0.1,0 0.3,-0.1 0.3,-0.1 v 0 c 269.5,-126.3 555.2,-197.4 852.3,-209.9 1544.6,-65.1 2616.8,1243.8 2486.8,2671.1"
         style="fill:#231f20;fill-opacity:1;fill-rule:nonzero;stroke:none"
         id="path134" />
      <path
         d="m 31605,18966.8 c -17.1,151.2 -13.7,301.9 -6.9,453.1 2.9,64.4 -20.6,117 -82.8,143.8 -66.8,28.9 -112.8,-10.6 -155.7,-53.6 -39.3,-39.3 -55.5,-90.7 -58,-143.3 -8.7,-187.1 -23.7,-375.7 30.6,-558.4 24.9,-83.6 6.6,-103.7 -80.9,-103.4 -585.4,2.6 -1170.8,-0.5 -1756.2,-1.5 -120.1,-0.2 -115.5,-0.6 -92.5,117.5 57.5,294.4 68.9,588.2 -43.2,873.9 -42,107 -135,148.5 -219.4,109.7 -90.9,-41.7 -124.6,-144.2 -70.3,-243.7 50.8,-93.1 66.8,-192.1 70.3,-294.3 9.9,-293 -64.4,-568.2 -196.1,-826.3 -258.5,-506.5 -655.4,-813.1 -1242.4,-830.8 -91.2,-2.8 -141.1,-42.5 -146.6,-135.5 -5.6,-95.5 42.6,-166.3 133.2,-176.1 61.3,-6.6 125.4,-4.5 186.6,4.9 623.4,95.9 1064.5,439.4 1340,1000.5 34,69.3 72.4,95.4 149.4,94.7 365.1,-3.8 730.1,-1.7 1095.2,-1.7 0,1.2 0,2.5 0,3.7 368.4,0 736.7,-0.9 1105.1,0.4 152.5,0.6 207,90.3 136.8,227.3 -54.9,107.3 -82.8,220 -96.2,339.1"
         style="fill:#231f20;fill-opacity:1;fill-rule:nonzero;stroke:none"
         id="path136" />
      <path
         d="m 32382.6,19229.2 c 1.9,458.1 378,827.3 843.7,828.2 464.3,0.8 840.2,-381.3 840.3,-854.2 0,-448.8 -373.5,-811.7 -834.1,-810.3 -466.3,1.4 -851.8,380.7 -849.9,836.3 z m 1988.7,2 c -2.9,618.1 -526.3,1139 -1143.5,1138.2 -626.1,-0.8 -1156.8,-523.4 -1155.1,-1137.2 1.9,-631.4 523.5,-1150 1152.9,-1146.1 648.2,4 1148.8,504.3 1145.7,1145.1"
         style="fill:#231f20;fill-opacity:1;fill-rule:nonzero;stroke:none"
         id="path138" />
      <path
         d="m 27510.2,18391.4 c -478.9,4.5 -844.1,374.9 -838,849.7 5.8,450.1 387.9,819.7 844.5,816.6 456.9,-3.1 839.5,-388.1 834.3,-839.4 -5.3,-465.5 -377.3,-831.3 -840.8,-826.9 z m 1140.4,841.9 c 2.9,643.2 -518.5,1121.9 -1154.1,1128.4 -623.9,6.5 -1128.6,-512.6 -1127.3,-1134 1.4,-653.7 495,-1148.4 1141.1,-1143.6 646.5,4.7 1144.4,506.5 1140.3,1149.2"
         style="fill:#231f20;fill-opacity:1;fill-rule:nonzero;stroke:none"
         id="path140" />
      <path
         d="m 36036.2,20127.6 c -226.4,-0.7 -416.6,193.2 -415.9,424.1 0.6,222.9 198.3,415 426.9,414.7 227.1,-0.3 413.2,-186.9 412,-413.4 -1.3,-242 -183,-424.7 -423,-425.4 z m -0.2,1142.3 c -401,-3.1 -707.9,-314.7 -708.2,-719.2 -0.4,-420.4 297.5,-730.2 701.7,-729.8 410.5,0.4 732.7,323.1 732,733.1 -0.7,398.8 -325.3,719.1 -725.5,715.9"
         style="fill:#231f20;fill-opacity:1;fill-rule:nonzero;stroke:none"
         id="path142" />
      <path
         d="m 34741.8,21586.3 c -221.5,0.6 -408.1,187.9 -407.5,408.8 0.7,229.3 177.5,407.7 404.7,408.5 232.8,0.8 423,-175.3 422.7,-391.3 -0.4,-224.7 -199.4,-426.7 -419.9,-426 z m -3.1,1126.2 c -393.8,-2.3 -701.1,-316.3 -700.6,-715.9 0.6,-409.9 309,-713.9 722.4,-711.7 392.6,2.1 699.8,318.2 698.6,719.1 -1.2,399.4 -317.8,710.8 -720.4,708.5"
         style="fill:#231f20;fill-opacity:1;fill-rule:nonzero;stroke:none"
         id="path144" />
      <path
         d="m 37350.3,22404.9 c 243,0 421.5,-169.3 422.8,-400.9 1.2,-225.3 -189.7,-415 -416,-413.3 -222.5,1.8 -414.8,190.7 -413.7,406.4 1.2,229.6 179.1,407.8 406.9,407.8 z m 33,-1111.7 c 396.3,11.5 687.3,310 677.7,695.3 -10.8,434.4 -298.9,729.4 -705.6,722.5 -422.4,-7.1 -720.6,-314.8 -708.6,-731.1 11.5,-400.4 331.2,-698.5 736.5,-686.7"
         style="fill:#231f20;fill-opacity:1;fill-rule:nonzero;stroke:none"
         id="path146" />
      <path
         d="m 36045.7,23036.4 c -237.1,1.9 -413.2,179.1 -409.8,412.5 3.3,222.9 196.9,403.2 427.6,398.4 212.6,-4.5 407.7,-205.3 406.5,-418.5 -1.2,-214.7 -195.3,-394.2 -424.3,-392.4 z m -10.8,1114.8 c -389.7,-2 -691,-305.5 -692.4,-697.3 -1.6,-419.3 292.5,-715.5 711.6,-716.7 397.5,-1.2 706.4,305.4 710,704.8 3.7,395.9 -320.8,711.4 -729.2,709.2"
         style="fill:#231f20;fill-opacity:1;fill-rule:nonzero;stroke:none"
         id="path148" />
      <path
         d="m 30614.3,19032.8 c 52.5,1.6 105.1,0.3 157.6,0.3 0,0.1 0,0.2 0,0.3 52.6,0 105.1,0.8 157.7,-0.2 80.7,-1.4 132.6,35.1 145.6,115.6 12.5,77.1 -44.2,168.7 -118.3,181 -123.3,20.5 -249,21.4 -372.7,4.5 -75.9,-10.3 -139.1,-102 -128.4,-175.4 12.9,-88.9 69.3,-128.9 158.5,-126.1"
         style="fill:#231f20;fill-opacity:1;fill-rule:nonzero;stroke:none"
         id="path150" />
      <path
         d="m 29775.8,19035.7 c 59.1,-2 118.3,-0.4 177.4,-0.4 0,-0.3 0,-0.7 0,-1 52.6,0 105.4,2.7 157.8,-0.6 79.3,-4.9 128.1,33.9 141.3,106.8 15,82.3 -15.3,161.1 -97.9,182 -137.1,34.7 -280.5,32.4 -418.7,1.5 -76.1,-17.1 -105.8,-81.1 -95.7,-161.2 10.2,-81.6 54.5,-124.5 135.8,-127.1"
         style="fill:#231f20;fill-opacity:1;fill-rule:nonzero;stroke:none"
         id="path152" />
      <path
         d="m 31006.2,20844.3 c -114.2,-0.3 -203.2,-84 -199.3,-187.5 3.8,-97.9 87.5,-174.5 190.8,-174.3 111.6,0.1 194.6,78.1 192.7,181 -1.9,100.1 -84.3,181.1 -184.2,180.8"
         style="fill:#231f20;fill-opacity:1;fill-rule:nonzero;stroke:none"
         id="path154" />
      <path
         d="m 30397.4,20836.2 c -109.3,-4.6 -186.9,-78.2 -185.5,-176 1.4,-103.6 83.8,-177.6 195.3,-175.8 109.1,1.8 185.4,74.2 184.3,174.8 -1.1,104.4 -85.7,181.5 -194.1,177"
         style="fill:#231f20;fill-opacity:1;fill-rule:nonzero;stroke:none"
         id="path156" />
      <path
         d="m 31321.6,20023.3 c 99.1,-0.9 186.7,75 188.1,163.1 1.5,93.5 -103.4,199.2 -196.3,197.8 -93,-1.4 -182.7,-92.5 -182.1,-185 0.6,-90.4 92,-174.9 190.3,-175.9"
         style="fill:#231f20;fill-opacity:1;fill-rule:nonzero;stroke:none"
         id="path158" />
      <path
         d="m 29813.7,20837.6 c -104.2,4.4 -189.7,-70.9 -192.1,-168.9 -2.4,-97.7 79.2,-179.4 181.1,-181.4 107.4,-2 198,77 200.7,175.2 2.5,91.7 -83.1,170.6 -189.7,175.1"
         style="fill:#231f20;fill-opacity:1;fill-rule:nonzero;stroke:none"
         id="path160" />
      <path
         d="m 30582.2,19711.5 c -2,96.9 -103.4,190.1 -203.5,187.1 -98.4,-2.9 -174.8,-85.5 -173.9,-187.8 0.8,-93.9 85.6,-165.7 194.3,-164.3 103.7,1.4 185,74.6 183.1,165"
         style="fill:#231f20;fill-opacity:1;fill-rule:nonzero;stroke:none"
         id="path162" />
      <path
         d="m 29484.7,20384 c -97.4,-1.4 -177.6,-85.6 -177.4,-186.2 0.2,-98.7 83,-180.2 182.6,-179.8 93.7,0.4 178.6,87.8 180.6,185.9 1.8,90.6 -91.9,181.4 -185.8,180.1"
         style="fill:#231f20;fill-opacity:1;fill-rule:nonzero;stroke:none"
         id="path164" />
      <path
         d="m 29918.2,20198.7 c -0.9,-96.6 82.8,-177.8 183.9,-178.4 102.7,-0.5 183.9,78.3 182.8,177.4 -1.1,94.6 -87.9,179.1 -184.6,179.9 -101,0.8 -181.1,-77.9 -182.1,-178.9"
         style="fill:#231f20;fill-opacity:1;fill-rule:nonzero;stroke:none"
         id="path166" />
      <path
         d="m 31169.5,19727.1 c -0.1,89 -103.9,187.9 -197.4,188.2 -95.1,0.2 -184.6,-97 -181.7,-197.5 2.6,-90.4 88.4,-162.9 190.1,-160.8 88.8,1.8 189.1,92.1 189,170.1"
         style="fill:#231f20;fill-opacity:1;fill-rule:nonzero;stroke:none"
         id="path168" />
      <path
         d="m 31603,20841.9 c -97.6,2.6 -180.1,-72.2 -184.7,-167.5 -4.3,-90.1 84.4,-178 184.2,-182.6 102.2,-4.7 186.6,72.9 187.6,172.4 0.9,94.7 -83.5,175 -187.1,177.7"
         style="fill:#231f20;fill-opacity:1;fill-rule:nonzero;stroke:none"
         id="path170" />
      <path
         d="m 29810,19555.5 c 106.8,0.8 182.3,70.3 180.4,166 -1.9,92.3 -100.3,182.4 -198.3,181.7 -88.6,-0.7 -172.7,-81.7 -174,-167.5 -1.5,-103.2 81.3,-181.1 191.9,-180.2"
         style="fill:#231f20;fill-opacity:1;fill-rule:nonzero;stroke:none"
         id="path172" />
      <path
         d="m 30521.6,20201.4 c -1.6,-91 92.8,-181.2 186.3,-177.9 93.3,3.2 174.7,87.1 173.9,179.2 -0.8,91.1 -85.6,177.7 -175.4,179.2 -95.2,1.6 -183.1,-84.3 -184.8,-180.5"
         style="fill:#231f20;fill-opacity:1;fill-rule:nonzero;stroke:none"
         id="path174" />
      <path
         d="m 29223,20844.1 c -104.6,-1.8 -175.2,-77.6 -172.6,-185.2 2.4,-98.9 70.9,-167.2 167.9,-167.3 100.2,-0.1 190.9,90 188.5,187.3 -2.3,93.5 -84,166.9 -183.8,165.2"
         style="fill:#231f20;fill-opacity:1;fill-rule:nonzero;stroke:none"
         id="path176" />
    </g>
  </g>
</svg>
