<?xml version="1.0" encoding="UTF-8" standalone="no"?>
<!-- Created with Inkscape (http://www.inkscape.org/) -->

<svg
   version="1.1"
   id="svg2"
   width="848.79999"
   height="848.81335"
   viewBox="0 0 848.79999 848.81335"
   sodipodi:docname="810.eps"
   xmlns:inkscape="http://www.inkscape.org/namespaces/inkscape"
   xmlns:sodipodi="http://sodipodi.sourceforge.net/DTD/sodipodi-0.dtd"
   xmlns="http://www.w3.org/2000/svg"
   xmlns:svg="http://www.w3.org/2000/svg">
  <defs
     id="defs6" />
  <sodipodi:namedview
     id="namedview4"
     pagecolor="#ffffff"
     bordercolor="#000000"
     borderopacity="0.25"
     inkscape:showpageshadow="2"
     inkscape:pageopacity="0.0"
     inkscape:pagecheckerboard="0"
     inkscape:deskcolor="#d1d1d1" />
  <g
     id="g8"
     inkscape:groupmode="layer"
     inkscape:label="ink_ext_XXXXXX"
     transform="matrix(1.3333333,0,0,-1.3333333,0,848.81333)">
    <g
       id="g10"
       transform="scale(0.1)">
      <path
         d="M 0,0 H 6366.04 V 6366.05 H 0 Z"
         style="fill:#f6f6f6;fill-opacity:1;fill-rule:nonzero;stroke:none"
         id="path12" />
      <path
         d="m 2333.23,4933.98 -152.52,143.05 c -10.08,9.44 -25.9,8.94 -35.34,-1.13 -9.45,-10.07 -8.94,-25.9 1.13,-35.34 l 152.52,-143.05 c 10.07,-9.44 25.89,-8.94 35.34,1.14 9.44,10.07 8.94,25.89 -1.13,35.33"
         style="fill:#000000;fill-opacity:1;fill-rule:nonzero;stroke:none"
         id="path14" />
      <path
         d="m 2186.55,4893.88 143.07,152.52 c 9.45,10.07 8.94,25.89 -1.13,35.33 -10.07,9.45 -25.89,8.95 -35.34,-1.13 l -143.06,-152.51 c -9.45,-10.07 -8.94,-25.9 1.13,-35.34 10.07,-9.45 25.89,-8.94 35.33,1.13"
         style="fill:#000000;fill-opacity:1;fill-rule:nonzero;stroke:none"
         id="path16" />
      <path
         d="m 2508.45,2739.62 -152.52,143.04 c -10.07,9.45 -25.89,8.94 -35.34,-1.13 -9.44,-10.07 -8.94,-25.89 1.14,-35.34 l 152.52,-143.04 c 10.07,-9.45 25.89,-8.94 35.33,1.13 9.45,10.07 8.94,25.89 -1.13,35.34"
         style="fill:#000000;fill-opacity:1;fill-rule:nonzero;stroke:none"
         id="path18" />
      <path
         d="m 2361.78,2699.51 143.06,152.52 c 9.45,10.07 8.95,25.89 -1.13,35.34 -10.07,9.45 -25.89,8.94 -35.33,-1.13 l -143.07,-152.52 c -9.44,-10.07 -8.94,-25.89 1.13,-35.34 10.07,-9.44 25.89,-8.94 35.34,1.13"
         style="fill:#000000;fill-opacity:1;fill-rule:nonzero;stroke:none"
         id="path20" />
      <path
         d="m 652.563,1513.62 -152.52,143.05 c -10.07,9.44 -25.895,8.94 -35.34,-1.13 -9.445,-10.08 -8.937,-25.9 1.133,-35.34 l 152.519,-143.05 c 10.071,-9.44 25.891,-8.94 35.34,1.13 9.446,10.07 8.938,25.9 -1.132,35.34"
         style="fill:#000000;fill-opacity:1;fill-rule:nonzero;stroke:none"
         id="path22" />
      <path
         d="m 505.891,1473.52 143.066,152.52 c 9.445,10.07 8.938,25.89 -1.133,35.33 -10.066,9.45 -25.89,8.94 -35.336,-1.13 L 469.422,1507.72 c -9.445,-10.07 -8.942,-25.89 1.133,-35.33 10.066,-9.45 25.89,-8.94 35.336,1.13"
         style="fill:#000000;fill-opacity:1;fill-rule:nonzero;stroke:none"
         id="path24" />
      <path
         d="m 585.961,5142.74 -152.52,143.05 c -10.074,9.44 -25.894,8.94 -35.339,-1.13 -9.446,-10.07 -8.938,-25.9 1.132,-35.34 l 152.52,-143.05 c 10.07,-9.44 25.894,-8.94 35.34,1.13 9.445,10.08 8.937,25.9 -1.133,35.34"
         style="fill:#000000;fill-opacity:1;fill-rule:nonzero;stroke:none"
         id="path26" />
      <path
         d="m 439.289,5102.64 143.066,152.52 c 9.446,10.07 8.942,25.89 -1.128,35.33 -10.075,9.45 -25.895,8.94 -35.34,-1.13 L 402.82,5136.84 c -9.445,-10.07 -8.937,-25.89 1.129,-35.33 10.071,-9.45 25.895,-8.94 35.34,1.13"
         style="fill:#000000;fill-opacity:1;fill-rule:nonzero;stroke:none"
         id="path28" />
      <path
         d="m 6010.17,4937.72 -152.52,143.05 c -10.07,9.44 -25.89,8.94 -35.33,-1.13 -9.45,-10.07 -8.94,-25.89 1.13,-35.34 l 152.52,-143.05 c 10.07,-9.44 25.89,-8.94 35.34,1.14 9.44,10.07 8.93,25.89 -1.14,35.33"
         style="fill:#000000;fill-opacity:1;fill-rule:nonzero;stroke:none"
         id="path30" />
      <path
         d="m 5863.49,4897.62 143.07,152.52 c 9.44,10.07 8.94,25.89 -1.13,35.34 -10.07,9.44 -25.89,8.94 -35.34,-1.14 l -143.07,-152.51 c -9.44,-10.07 -8.94,-25.9 1.13,-35.34 10.08,-9.45 25.9,-8.94 35.34,1.13"
         style="fill:#000000;fill-opacity:1;fill-rule:nonzero;stroke:none"
         id="path32" />
      <path
         d="m 4210.78,4159.68 -152.52,143.04 c -10.07,9.45 -25.89,8.94 -35.34,-1.13 -9.44,-10.07 -8.94,-25.89 1.13,-35.34 l 152.52,-143.04 c 10.08,-9.45 25.9,-8.94 35.34,1.13 9.45,10.07 8.94,25.89 -1.13,35.34"
         style="fill:#000000;fill-opacity:1;fill-rule:nonzero;stroke:none"
         id="path34" />
      <path
         d="m 4064.12,4119.57 143.06,152.52 c 9.45,10.07 8.94,25.89 -1.13,35.34 -10.07,9.44 -25.89,8.94 -35.33,-1.13 l -143.07,-152.52 c -9.45,-10.07 -8.94,-25.89 1.13,-35.34 10.07,-9.44 25.89,-8.94 35.34,1.13"
         style="fill:#000000;fill-opacity:1;fill-rule:nonzero;stroke:none"
         id="path36" />
      <path
         d="m 4954.43,2461.55 -152.52,143.05 c -10.07,9.44 -25.89,8.94 -35.34,-1.14 -9.44,-10.07 -8.93,-25.89 1.14,-35.33 l 152.52,-143.05 c 10.07,-9.44 25.89,-8.94 35.33,1.13 9.45,10.07 8.94,25.9 -1.13,35.34"
         style="fill:#000000;fill-opacity:1;fill-rule:nonzero;stroke:none"
         id="path38" />
      <path
         d="m 4807.75,2421.45 143.07,152.52 c 9.44,10.07 8.94,25.89 -1.13,35.33 -10.07,9.45 -25.89,8.94 -35.34,-1.13 l -143.07,-152.52 c -9.44,-10.07 -8.94,-25.89 1.13,-35.33 10.07,-9.45 25.89,-8.94 35.34,1.13"
         style="fill:#000000;fill-opacity:1;fill-rule:nonzero;stroke:none"
         id="path40" />
      <path
         d="m 4835.97,1078.25 -152.52,143.05 c -10.07,9.44 -25.89,8.94 -35.33,-1.14 -9.45,-10.07 -8.94,-25.89 1.13,-35.33 l 152.52,-143.05 c 10.07,-9.45 25.89,-8.94 35.34,1.13 9.44,10.07 8.94,25.89 -1.14,35.34"
         style="fill:#000000;fill-opacity:1;fill-rule:nonzero;stroke:none"
         id="path42" />
      <path
         d="m 4689.29,1038.15 143.07,152.52 c 9.45,10.07 8.94,25.89 -1.13,35.33 -10.07,9.45 -25.89,8.94 -35.34,-1.13 l -143.06,-152.52 c -9.45,-10.07 -8.94,-25.89 1.13,-35.33 10.07,-9.45 25.89,-8.94 35.33,1.13"
         style="fill:#000000;fill-opacity:1;fill-rule:nonzero;stroke:none"
         id="path44" />
      <path
         d="m 3449.52,4686.79 21.64,12.52 -105.02,181.62 c -4.47,7.73 -12.73,12.49 -21.66,12.48 -8.94,0 -17.19,-4.78 -21.64,-12.52 l -104.69,-181.72 -104.78,-181.75 c -4.46,-7.74 -4.45,-17.27 0.02,-25 4.47,-7.73 12.73,-12.49 21.66,-12.48 l 209.72,0.17 209.76,0.1 c 8.93,0 17.18,4.78 21.64,12.51 4.47,7.74 4.46,17.27 -0.01,25 l -105,181.59 -21.64,-12.52 -21.65,-12.51 83.32,-144.09 -166.45,-0.08 -166.42,-0.14 83.15,144.24 83.07,144.19 83.33,-144.12 21.65,12.51"
         style="fill:#000000;fill-opacity:1;fill-rule:nonzero;stroke:none"
         id="path46" />
      <path
         d="m 3102.32,2466.77 21.65,12.52 -105.02,181.62 c -4.48,7.73 -12.73,12.49 -21.67,12.48 -8.93,0 -17.18,-4.78 -21.64,-12.52 L 2870.95,2479.15 2766.17,2297.4 c -4.46,-7.73 -4.45,-17.27 0.02,-25 4.47,-7.73 12.73,-12.49 21.66,-12.48 l 209.73,0.17 209.76,0.1 c 8.93,0.01 17.19,4.78 21.65,12.51 4.46,7.74 4.45,17.27 -0.02,25.01 l -105,181.58 -21.65,-12.52 -21.64,-12.51 83.32,-144.09 -166.45,-0.08 -166.43,-0.14 83.16,144.24 83.06,144.19 83.34,-144.12 21.64,12.51"
         style="fill:#000000;fill-opacity:1;fill-rule:nonzero;stroke:none"
         id="path48" />
      <path
         d="m 4305.79,1785.03 21.64,12.52 -105.02,181.62 c -4.47,7.73 -12.73,12.49 -21.66,12.49 -8.93,-0.01 -17.19,-4.79 -21.65,-12.52 l -104.68,-181.72 -104.79,-181.75 c -4.46,-7.74 -4.45,-17.27 0.02,-25.01 4.47,-7.73 12.73,-12.49 21.66,-12.48 l 209.73,0.17 209.76,0.1 c 8.93,0.01 17.18,4.78 21.64,12.52 4.46,7.73 4.46,17.26 -0.01,25 l -105,181.58 -21.64,-12.52 -21.65,-12.51 83.32,-144.09 -166.45,-0.08 -166.43,-0.14 83.16,144.24 83.07,144.19 83.33,-144.12 21.65,12.51"
         style="fill:#000000;fill-opacity:1;fill-rule:nonzero;stroke:none"
         id="path50" />
      <path
         d="m 4997.95,3179.34 24.16,-6.46 54.18,202.68 c 2.3,8.63 -0.17,17.84 -6.49,24.15 -6.32,6.31 -15.54,8.77 -24.16,6.45 l -202.52,-54.47 -202.61,-54.42 c -8.62,-2.32 -15.36,-9.06 -17.67,-17.69 -2.3,-8.63 0.17,-17.83 6.49,-24.15 l 148.42,-148.18 148.39,-148.26 c 6.32,-6.31 15.53,-8.78 24.16,-6.46 8.62,2.32 15.36,9.06 17.67,17.69 l 54.14,202.66 -24.16,6.46 -24.15,6.45 -42.96,-160.81 -117.76,117.64 -117.77,117.6 160.79,43.18 160.69,43.22 -42.99,-160.83 24.15,-6.45"
         style="fill:#000000;fill-opacity:1;fill-rule:nonzero;stroke:none"
         id="path52" />
      <path
         d="m 1548.69,5532.24 24.15,-6.45 54.17,202.68 c 2.31,8.63 -0.16,17.84 -6.48,24.15 -6.33,6.31 -15.54,8.77 -24.16,6.45 l -202.52,-54.47 h 0.01 l -202.62,-54.42 c -8.63,-2.32 -15.36,-9.07 -17.67,-17.7 -2.3,-8.62 0.17,-17.83 6.49,-24.14 l 148.43,-148.18 -0.01,0.01 148.4,-148.26 c 6.32,-6.31 15.53,-8.78 24.15,-6.46 8.63,2.32 15.37,9.06 17.67,17.69 l 54.14,202.65 -24.15,6.45 -24.15,6.46 -42.96,-160.81 -117.76,117.65 -0.01,0.01 -117.77,117.58 160.79,43.18 h 0.01 l 160.68,43.23 -42.98,-160.84 24.15,-6.46"
         style="fill:#000000;fill-opacity:1;fill-rule:nonzero;stroke:none"
         id="path54" />
      <path
         d="m 1405.06,1153.12 24.15,-6.45 54.17,202.69 c 2.31,8.63 -0.17,17.84 -6.49,24.15 -6.32,6.31 -15.53,8.77 -24.15,6.45 l -202.52,-54.48 v 0.01 l -202.61,-54.44 c -8.63,-2.31 -15.37,-9.06 -17.67,-17.69 -2.31,-8.63 0.17,-17.83 6.49,-24.14 l 148.43,-148.17 -0.01,0.01 148.4,-148.259 c 6.32,-6.313 15.53,-8.781 24.15,-6.461 8.63,2.32 15.36,9.058 17.67,17.691 l 54.14,202.639 -24.15,6.45 -24.15,6.45 -42.96,-160.789 -117.76,117.649 -0.01,0.01 -117.77,117.56 160.78,43.2 h 0.01 l 160.69,43.22 -42.98,-160.84 24.15,-6.46"
         style="fill:#000000;fill-opacity:1;fill-rule:nonzero;stroke:none"
         id="path56" />
      <path
         d="m 5210.47,5305.84 12.52,-21.64 181.62,105.01 c 7.73,4.47 12.49,12.73 12.48,21.67 0,8.92 -4.78,17.18 -12.52,21.64 l -181.72,104.69 0.01,-0.01 -181.76,104.78 c -7.73,4.47 -17.27,4.46 -25,-0.01 -7.73,-4.47 -12.49,-12.73 -12.48,-21.66 l 0.17,-209.73 v 0.01 l 0.1,-209.78 c 0,-8.93 4.78,-17.18 12.52,-21.64 7.73,-4.46 17.27,-4.46 25,0.01 l 181.58,105.02 -12.52,21.64 -12.51,21.65 -144.09,-83.34 -0.08,166.46 v 0.01 l -0.14,166.42 144.24,-83.16 h 0.01 l 144.18,-83.06 -144.12,-83.33 12.51,-21.65"
         style="fill:#000000;fill-opacity:1;fill-rule:nonzero;stroke:none"
         id="path58" />
      <path
         d="m 1400.41,3210.33 12.51,-21.64 181.63,105.01 c 7.73,4.48 12.49,12.74 12.48,21.67 -0.01,8.93 -4.78,17.18 -12.52,21.64 l -181.72,104.69 0.01,-0.01 -181.76,104.79 c -7.74,4.46 -17.27,4.45 -25,-0.02 -7.73,-4.47 -12.49,-12.73 -12.49,-21.66 l 0.19,-209.73 0.1,-209.77 c 0,-8.94 4.77,-17.19 12.51,-21.65 7.74,-4.46 17.27,-4.45 25,0.02 l 181.58,105.02 -12.52,21.64 -12.52,21.64 -144.07,-83.33 -0.08,166.47 -0.15,166.42 144.24,-83.15 v -0.01 l 144.19,-83.06 -144.12,-83.34 12.51,-21.64"
         style="fill:#000000;fill-opacity:1;fill-rule:nonzero;stroke:none"
         id="path60" />
      <path
         d="m 3803.99,3553.76 h -25 c -0.01,-37.12 -14.98,-70.49 -39.29,-94.84 -24.35,-24.31 -57.72,-39.27 -94.83,-39.29 -37.12,0.02 -70.5,14.98 -94.86,39.29 -24.31,24.35 -39.27,57.72 -39.28,94.84 0.01,37.13 14.97,70.5 39.28,94.85 24.36,24.31 57.74,39.27 94.86,39.29 37.11,-0.02 70.48,-14.98 94.83,-39.29 24.31,-24.35 39.28,-57.72 39.29,-94.85 h 25 25 c -0.02,101.71 -82.43,184.12 -184.12,184.14 -101.71,-0.02 -184.13,-82.43 -184.14,-184.14 0.01,-101.7 82.43,-184.11 184.14,-184.13 101.69,0.02 184.1,82.43 184.12,184.13 h -25"
         style="fill:#000000;fill-opacity:1;fill-rule:nonzero;stroke:none"
         id="path62" />
      <path
         d="m 2999.95,5329.6 h -25 c -0.01,-37.13 -14.97,-70.5 -39.29,-94.85 -24.35,-24.31 -57.72,-39.27 -94.84,-39.29 -37.12,0.02 -70.49,14.98 -94.85,39.29 -24.31,24.35 -39.28,57.73 -39.29,94.85 0.01,37.11 14.98,70.49 39.29,94.84 24.36,24.31 57.73,39.27 94.85,39.29 37.12,-0.02 70.49,-14.98 94.84,-39.29 24.32,-24.35 39.28,-57.73 39.29,-94.84 h 25 25 c -0.02,101.7 -82.43,184.11 -184.13,184.13 -101.7,-0.02 -184.12,-82.43 -184.14,-184.13 0.02,-101.72 82.44,-184.12 184.14,-184.14 101.7,0.02 184.11,82.43 184.13,184.14 h -25"
         style="fill:#000000;fill-opacity:1;fill-rule:nonzero;stroke:none"
         id="path64" />
      <path
         d="m 3101.5,633.082 h -25 c -0.01,-37.121 -14.97,-70.5 -39.29,-94.852 -24.35,-24.308 -57.72,-39.281 -94.84,-39.289 -37.11,0.008 -70.49,14.981 -94.85,39.289 -24.31,24.36 -39.27,57.731 -39.29,94.852 0.02,37.117 14.98,70.488 39.29,94.84 24.36,24.308 57.74,39.269 94.85,39.277 37.12,-0.008 70.5,-14.969 94.85,-39.277 24.31,-24.352 39.27,-57.723 39.28,-94.84 h 25 25 c -0.01,101.707 -82.43,184.109 -184.13,184.117 -50.76,0.02 -96.95,-20.64 -130.2,-53.918 -33.29,-33.242 -53.95,-79.429 -53.94,-130.199 0.02,-101.711 82.45,-184.121 184.14,-184.141 101.7,0.02 184.12,82.43 184.13,184.141 h -25"
         style="fill:#000000;fill-opacity:1;fill-rule:nonzero;stroke:none"
         id="path66" />
      <path
         d="m 3552.11,870.91 c 0.02,37.121 14.98,70.488 39.3,94.84 24.35,24.309 57.73,39.27 94.85,39.28 37.12,-0.01 70.49,-14.971 94.85,-39.28 24.31,-24.34 39.27,-57.719 39.28,-94.84 0,-13.801 11.2,-25 25,-25 13.81,0 25,11.199 25,25 -0.01,101.711 -82.43,184.11 -184.13,184.12 -50.77,0.02 -96.96,-20.64 -130.2,-53.92 -33.29,-33.231 -53.96,-79.419 -53.95,-130.2 0,-13.801 11.2,-25 25,-25 13.81,0 25,11.199 25,25"
         style="fill:#000000;fill-opacity:1;fill-rule:nonzero;stroke:none"
         id="path68" />
      <path
         d="m 2282,3315.07 c 0.01,37.12 14.98,70.5 39.29,94.85 24.36,24.31 57.74,39.27 94.85,39.28 37.12,-0.01 70.49,-14.97 94.85,-39.28 24.31,-24.35 39.27,-57.72 39.28,-94.85 0,-13.8 11.2,-25 25,-25 13.81,0 25,11.2 25,25 -0.01,101.71 -82.43,184.12 -184.13,184.14 -101.69,-0.02 -184.12,-82.43 -184.14,-184.14 0,-13.8 11.2,-25 25,-25 13.81,0 25,11.2 25,25 v 0"
         style="fill:#000000;fill-opacity:1;fill-rule:nonzero;stroke:none"
         id="path70" />
      <path
         d="m 607.824,4607.1 c 0.012,37.16 14.922,70.55 39.117,94.89 24.239,24.3 57.418,39.23 94.301,39.25 36.883,-0.02 70.055,-14.95 94.289,-39.25 24.192,-24.34 39.106,-57.73 39.117,-94.89 0,-13.8 11.192,-25 25,-25 13.805,0 25,11.2 25,25 0.012,50.74 -20.539,96.91 -53.679,130.17 -33.102,33.29 -79.129,53.98 -129.727,53.97 -50.597,0.01 -96.633,-20.68 -129.734,-53.97 -33.145,-33.26 -53.699,-79.43 -53.684,-130.17 0,-13.8 11.192,-25 25,-25 13.805,0 25,11.2 25,25"
         style="fill:#000000;fill-opacity:1;fill-rule:nonzero;stroke:none"
         id="path72" />
      <path
         d="m 4594.01,4371.52 c -37.15,0.01 -70.55,14.93 -94.89,39.12 -24.31,24.24 -39.24,57.42 -39.25,94.3 0.01,36.88 14.94,70.05 39.25,94.29 24.34,24.19 57.73,39.1 94.89,39.12 13.81,0 25,11.19 25,24.99 0,13.81 -11.19,25 -25,25 -50.74,0.02 -96.91,-20.53 -130.17,-53.68 -33.29,-33.09 -53.99,-79.12 -53.97,-129.72 -0.02,-50.6 20.68,-96.63 53.97,-129.73 33.26,-33.15 79.43,-53.7 130.17,-53.69 13.81,0 25,11.19 25,25 0,13.81 -11.19,25 -25,25"
         style="fill:#000000;fill-opacity:1;fill-rule:nonzero;stroke:none"
         id="path74" />
      <path
         d="m 762.227,658.801 c -37.153,0.019 -70.547,14.929 -94.887,39.121 -24.301,24.238 -39.231,57.418 -39.242,94.297 0.011,36.883 14.941,70.062 39.242,94.293 24.34,24.187 57.73,39.097 94.887,39.109 13.804,0 25,11.188 25,25 0,13.809 -11.196,25 -25,25 -50.735,0.008 -96.907,-20.539 -130.161,-53.68 -33.293,-33.089 -53.984,-79.121 -53.968,-129.722 -0.016,-50.598 20.675,-96.629 53.965,-129.731 33.253,-33.136 79.425,-53.699 130.164,-53.687 13.804,0 25,11.199 25,25 0,13.808 -11.196,25 -25,25"
         style="fill:#000000;fill-opacity:1;fill-rule:nonzero;stroke:none"
         id="path76" />
      <path
         d="m 2469.82,5719.74 c -37.15,0.01 -70.54,14.93 -94.88,39.12 -24.3,24.24 -39.23,57.42 -39.25,94.3 0.02,36.88 14.95,70.06 39.25,94.29 24.34,24.19 57.73,39.1 94.88,39.12 13.81,0 25,11.19 25,25 0,13.81 -11.19,25 -25,25 -50.73,0.01 -96.9,-20.54 -130.16,-53.68 -33.29,-33.1 -53.98,-79.13 -53.97,-129.73 -0.01,-50.6 20.68,-96.63 53.97,-129.73 33.25,-33.14 79.43,-53.7 130.16,-53.69 13.81,0 25,11.19 25,25 0,13.81 -11.19,25 -25,25"
         style="fill:#000000;fill-opacity:1;fill-rule:nonzero;stroke:none"
         id="path78" />
      <path
         d="m 841.797,2307.53 h -25 c -0.012,-37.12 -14.977,-70.49 -39.289,-94.85 -24.352,-24.31 -57.727,-39.27 -94.84,-39.29 -37.117,0.02 -70.496,14.98 -94.852,39.29 -24.312,24.36 -39.277,57.73 -39.293,94.85 0.016,37.12 14.977,70.49 39.293,94.84 24.356,24.31 57.731,39.27 94.852,39.29 37.113,-0.02 70.488,-14.98 94.84,-39.28 24.316,-24.35 39.277,-57.72 39.289,-94.85 h 25 25 c -0.016,101.71 -82.438,184.11 -184.129,184.13 -50.766,0.01 -96.957,-20.65 -130.203,-53.93 -33.285,-33.23 -53.953,-79.42 -53.938,-130.2 0.016,-101.71 82.442,-184.12 184.141,-184.14 101.695,0.02 184.109,82.44 184.129,184.14 h -25"
         style="fill:#000000;fill-opacity:1;fill-rule:nonzero;stroke:none"
         id="path80" />
      <path
         d="m 5749.01,2125.8 h -25 c -0.02,-37.12 -14.98,-70.5 -39.29,-94.86 -24.35,-24.31 -57.72,-39.27 -94.83,-39.28 -37.12,0.01 -70.5,14.97 -94.85,39.28 -24.32,24.36 -39.28,57.74 -39.29,94.86 0.01,37.12 14.97,70.49 39.28,94.84 24.36,24.31 57.73,39.26 94.86,39.28 37.11,-0.02 70.48,-14.97 94.83,-39.28 24.31,-24.35 39.27,-57.72 39.29,-94.84 h 25 25 c -0.02,101.71 -82.44,184.1 -184.12,184.12 -101.7,-0.02 -184.13,-82.41 -184.14,-184.12 0.01,-101.71 82.43,-184.13 184.14,-184.14 101.69,0.01 184.1,82.43 184.12,184.14 h -25"
         style="fill:#000000;fill-opacity:1;fill-rule:nonzero;stroke:none"
         id="path82" />
      <path
         d="m 5308.83,4663.21 v -25 h 291.55 v -266.54 h -266.55 v 291.54 h -25 v -25 25 h -25 v -316.54 c 0,-6.59 2.67,-13.03 7.32,-17.68 4.66,-4.66 11.1,-7.32 17.68,-7.32 h 316.55 c 6.58,0 13.02,2.66 17.67,7.32 4.66,4.65 7.33,11.09 7.33,17.68 v 316.54 c 0,6.58 -2.67,13.02 -7.33,17.68 -4.65,4.65 -11.09,7.32 -17.67,7.32 h -316.55 c -6.58,0 -13.02,-2.67 -17.68,-7.32 -4.65,-4.66 -7.32,-11.1 -7.32,-17.68 h 25"
         style="fill:#000000;fill-opacity:1;fill-rule:nonzero;stroke:none"
         id="path84" />
      <path
         d="m 1729.92,4504.94 v -25 h 291.53 v -266.55 h -266.53 v 291.55 h -25 v -25 25 h -25 v -316.55 c 0,-6.58 2.67,-13.02 7.32,-17.67 4.66,-4.66 11.1,-7.33 17.68,-7.33 h 316.53 c 6.59,0 13.03,2.67 17.68,7.33 4.66,4.65 7.32,11.09 7.32,17.67 v 316.55 c 0,6.58 -2.66,13.02 -7.32,17.67 -4.65,4.66 -11.09,7.33 -17.68,7.33 h -316.53 c -6.58,0 -13.02,-2.67 -17.68,-7.33 -4.65,-4.65 -7.32,-11.09 -7.32,-17.67 h 25"
         style="fill:#000000;fill-opacity:1;fill-rule:nonzero;stroke:none"
         id="path86" />
      <path
         d="m 1714.03,2484.08 v -25 h 291.54 v -266.55 h -266.54 v 291.55 h -25 v -25 25 h -25 v -316.55 c 0,-6.58 2.67,-13.02 7.33,-17.67 4.65,-4.66 11.09,-7.33 17.67,-7.33 h 316.54 c 6.58,0 13.02,2.67 17.67,7.33 4.66,4.65 7.33,11.09 7.33,17.67 v 316.55 c 0,6.58 -2.67,13.02 -7.33,17.68 -4.65,4.65 -11.09,7.32 -17.67,7.32 h -316.54 c -6.58,0 -13.02,-2.67 -17.67,-7.32 -4.66,-4.66 -7.33,-11.1 -7.33,-17.68 h 25"
         style="fill:#000000;fill-opacity:1;fill-rule:nonzero;stroke:none"
         id="path88" />
      <path
         d="m 5308.83,950.48 v -25 h 291.53 V 658.941 H 5333.83 V 950.48 h -25 v -25 25 h -25 V 633.941 c 0,-6.582 2.67,-13.019 7.32,-17.679 4.66,-4.653 11.1,-7.321 17.68,-7.321 h 316.53 c 6.58,0 13.02,2.668 17.67,7.321 4.66,4.66 7.33,11.097 7.33,17.679 V 950.48 c 0,6.59 -2.67,13.032 -7.33,17.68 -4.65,4.66 -11.09,7.32 -17.67,7.32 h -316.53 c -6.58,0 -13.02,-2.66 -17.68,-7.32 -4.65,-4.648 -7.32,-11.09 -7.32,-17.68 h 25"
         style="fill:#000000;fill-opacity:1;fill-rule:nonzero;stroke:none"
         id="path90" />
      <path
         d="m 3995.75,6011.42 v -25 h 291.52 v -266.54 h -266.52 v 291.54 h -25 v -25 25 h -25 v -316.54 c 0,-6.58 2.66,-13.02 7.32,-17.68 4.65,-4.65 11.09,-7.32 17.68,-7.32 h 316.52 c 6.58,0 13.02,2.67 17.68,7.32 4.65,4.66 7.32,11.1 7.32,17.68 v 316.54 c 0,6.58 -2.67,13.03 -7.32,17.68 -4.66,4.65 -11.1,7.32 -17.68,7.32 h -316.52 c -6.59,0 -13.03,-2.67 -17.68,-7.32 -4.66,-4.65 -7.32,-11.1 -7.32,-17.68 h 25"
         style="fill:#000000;fill-opacity:1;fill-rule:nonzero;stroke:none"
         id="path92" />
      <path
         d="m 3540.9,2817.87 c -4.95,0.04 -7.93,0.94 -10.95,2.45 -2.62,1.36 -5.34,3.43 -8.34,6.65 -5.27,5.56 -10.99,14.68 -16.98,25.67 -9.17,16.44 -18.76,36.92 -35.12,55.09 -8.2,9.03 -18.37,17.43 -30.89,23.39 -12.49,5.99 -27.12,9.32 -43.09,9.29 -13.81,0 -25,-11.2 -25,-25 0,-13.81 11.19,-25 25,-25 8.14,-0.02 14.18,-1.36 19.32,-3.43 4.5,-1.84 8.4,-4.3 12.23,-7.58 6.68,-5.69 13.01,-14.17 19.17,-24.54 9.39,-15.51 17.76,-34.72 30.86,-52.46 6.61,-8.83 14.73,-17.47 25.52,-24.05 10.72,-6.6 24.12,-10.56 38.27,-10.48 13.81,0 25,11.19 25,25 0,13.8 -11.19,25 -25,25"
         style="fill:#000000;fill-opacity:1;fill-rule:nonzero;stroke:none"
         id="path94" />
      <path
         d="m 3831.63,2817.87 c -4.96,0.04 -7.94,0.94 -10.96,2.45 -2.62,1.36 -5.33,3.43 -8.34,6.65 -5.27,5.56 -10.99,14.68 -16.98,25.67 -9.17,16.44 -18.75,36.92 -35.11,55.08 -8.2,9.04 -18.36,17.44 -30.88,23.4 -12.49,5.99 -27.12,9.32 -43.09,9.29 -13.8,0 -25,-11.2 -25,-25 0,-13.81 11.2,-25 25,-25 8.14,-0.02 14.18,-1.36 19.32,-3.43 4.49,-1.83 8.39,-4.3 12.22,-7.58 6.68,-5.69 13.01,-14.17 19.16,-24.54 9.4,-15.51 17.77,-34.72 30.86,-52.46 6.62,-8.83 14.73,-17.47 25.52,-24.05 10.73,-6.6 24.12,-10.56 38.28,-10.48 13.8,0 25,11.19 25,25 0,13.8 -11.2,25 -25,25"
         style="fill:#000000;fill-opacity:1;fill-rule:nonzero;stroke:none"
         id="path96" />
      <path
         d="m 3540.9,2767.87 c 12.33,-0.05 24.09,2.89 33.98,8.07 8.69,4.51 15.88,10.5 21.86,16.9 10.46,11.27 17.64,23.76 24.25,35.71 9.76,17.97 18.44,34.89 28.29,45.53 4.9,5.37 9.81,9.22 15.43,11.91 5.65,2.66 12.21,4.38 21.56,4.42 13.81,0 25,11.19 25,25 0,13.8 -11.19,25 -25,25 -13.9,0.01 -26.78,-2.48 -38.13,-7.11 -9.95,-4.03 -18.62,-9.63 -25.99,-15.97 -12.93,-11.14 -21.98,-24.26 -29.52,-36.84 -11.15,-18.89 -19.54,-37.09 -27.98,-48.15 -4.15,-5.57 -8,-9.19 -11.45,-11.26 -3.51,-2.04 -6.61,-3.14 -12.3,-3.21 -13.8,0 -25,-11.2 -25,-25 0,-13.81 11.2,-25 25,-25"
         style="fill:#000000;fill-opacity:1;fill-rule:nonzero;stroke:none"
         id="path98" />
      <path
         d="m 3831.63,2767.87 c 12.32,-0.05 24.08,2.89 33.97,8.07 8.69,4.51 15.88,10.5 21.86,16.9 10.45,11.28 17.63,23.76 24.25,35.71 9.75,17.97 18.43,34.89 28.28,45.53 4.9,5.37 9.82,9.22 15.43,11.91 5.65,2.66 12.21,4.38 21.56,4.42 13.8,0 25,11.19 25,25 0,13.8 -11.2,25 -25,25 -13.91,0.01 -26.79,-2.48 -38.14,-7.11 -9.94,-4.03 -18.61,-9.63 -25.98,-15.97 -12.93,-11.14 -21.98,-24.26 -29.52,-36.84 -11.15,-18.89 -19.53,-37.09 -27.98,-48.15 -4.15,-5.57 -8,-9.19 -11.44,-11.26 -3.51,-2.04 -6.62,-3.14 -12.29,-3.21 -13.81,0 -25,-11.2 -25,-25 0,-13.81 11.19,-25 25,-25"
         style="fill:#000000;fill-opacity:1;fill-rule:nonzero;stroke:none"
         id="path100" />
      <path
         d="m 4369.09,535.52 c -4.96,0.05 -7.94,0.941 -10.96,2.46 -2.62,1.36 -5.33,3.43 -8.34,6.649 -5.27,5.562 -10.99,14.68 -16.98,25.672 -9.17,16.437 -18.76,36.929 -35.11,55.097 -8.2,9.032 -18.38,17.43 -30.9,23.391 -12.49,6 -27.12,9.32 -43.08,9.293 -13.81,0 -25,-11.191 -25,-25 0,-13.812 11.19,-25 25,-25 8.14,-0.023 14.17,-1.352 19.32,-3.434 4.49,-1.828 8.39,-4.289 12.23,-7.566 6.67,-5.703 13,-14.184 19.16,-24.551 9.39,-15.511 17.77,-34.722 30.86,-52.472 6.62,-8.829 14.73,-17.469 25.52,-24.047 10.73,-6.614 24.12,-10.571 38.28,-10.492 13.8,0 25,11.199 25,25 0,13.812 -11.2,25 -25,25"
         style="fill:#000000;fill-opacity:1;fill-rule:nonzero;stroke:none"
         id="path102" />
      <path
         d="m 4659.81,535.52 c -4.95,0.05 -7.94,0.941 -10.96,2.46 -2.61,1.36 -5.33,3.43 -8.34,6.649 -5.27,5.562 -10.98,14.672 -16.98,25.66 -9.16,16.441 -18.75,36.922 -35.1,55.09 -8.2,9.031 -18.37,17.43 -30.89,23.402 -12.49,5.989 -27.12,9.309 -43.08,9.278 -13.81,0 -25,-11.188 -25,-25 0,-13.809 11.19,-25 25,-25 8.14,-0.02 14.17,-1.348 19.31,-3.418 4.49,-1.84 8.4,-4.301 12.23,-7.582 6.67,-5.688 13,-14.168 19.16,-24.539 9.39,-15.508 17.76,-34.719 30.86,-52.461 6.61,-8.829 14.73,-17.469 25.52,-24.047 10.72,-6.614 24.11,-10.571 38.27,-10.492 13.81,0 25,11.199 25,25 0,13.812 -11.19,25 -25,25"
         style="fill:#000000;fill-opacity:1;fill-rule:nonzero;stroke:none"
         id="path104" />
      <path
         d="m 4369.09,485.52 c 12.32,-0.04 24.08,2.89 33.98,8.082 8.69,4.5 15.88,10.488 21.85,16.898 10.46,11.27 17.64,23.762 24.26,35.711 9.75,17.961 18.43,34.891 28.28,45.527 4.9,5.371 9.82,9.223 15.44,11.91 5.64,2.661 12.2,4.383 21.56,4.411 13.81,0 25,11.191 25,25 0,13.812 -11.19,25 -25,25 -13.91,0.023 -26.79,-2.469 -38.14,-7.098 -9.94,-4.031 -18.62,-9.629 -25.99,-15.973 -12.93,-11.148 -21.98,-24.269 -29.52,-36.84 -11.15,-18.886 -19.53,-37.089 -27.97,-48.148 -4.16,-5.582 -8.01,-9.191 -11.45,-11.262 -3.51,-2.047 -6.62,-3.136 -12.3,-3.218 -13.81,0 -25,-11.188 -25,-25 0,-13.801 11.19,-25 25,-25"
         style="fill:#000000;fill-opacity:1;fill-rule:nonzero;stroke:none"
         id="path106" />
      <path
         d="m 4659.82,485.52 c 12.32,-0.04 24.08,2.902 33.97,8.089 8.68,4.5 15.87,10.493 21.85,16.903 10.45,11.269 17.63,23.758 24.25,35.699 9.75,17.969 18.43,34.891 28.28,45.527 4.9,5.371 9.81,9.223 15.42,11.91 5.65,2.661 12.2,4.383 21.55,4.411 h 0.01 v 24.929 l -3.94,-24.609 c 1.83,-0.289 3.24,-0.32 3.94,-0.32 v 24.929 l -3.94,-24.609 c 13.63,-2.18 26.45,7.101 28.64,20.73 2.18,13.641 -7.11,26.461 -20.74,28.641 -1.83,0.289 -3.25,0.309 -3.96,0.309 h -0.01 c -13.9,0.023 -26.78,-2.469 -38.13,-7.098 -9.94,-4.031 -18.61,-9.629 -25.98,-15.973 -12.92,-11.136 -21.97,-24.258 -29.51,-36.828 -11.15,-18.89 -19.53,-37.09 -27.97,-48.16 -4.16,-5.57 -8.01,-9.18 -11.45,-11.262 -3.51,-2.039 -6.62,-3.136 -12.3,-3.218 -13.81,0 -24.99,-11.2 -24.99,-25 0,-13.809 11.2,-25 25.01,-25 v 0"
         style="fill:#000000;fill-opacity:1;fill-rule:nonzero;stroke:none"
         id="path108" />
      <path
         d="m 4765.51,3825.94 c -4.95,0.05 -7.93,0.94 -10.95,2.46 -2.62,1.36 -5.34,3.43 -8.34,6.65 -5.27,5.56 -10.99,14.67 -16.98,25.67 -9.17,16.44 -18.76,36.92 -35.11,55.09 -8.2,9.03 -18.37,17.43 -30.89,23.39 -12.49,6 -27.12,9.32 -43.08,9.29 -13.81,0 -25,-11.19 -25,-25 0,-13.81 11.19,-25 25,-25 8.14,-0.02 14.17,-1.35 19.31,-3.43 4.5,-1.83 8.4,-4.29 12.23,-7.57 6.68,-5.69 13,-14.18 19.16,-24.54 9.39,-15.52 17.76,-34.73 30.86,-52.47 6.61,-8.83 14.73,-17.47 25.52,-24.05 10.72,-6.61 24.11,-10.57 38.27,-10.49 13.81,0 25,11.2 25,25 0,13.81 -11.19,25 -25,25"
         style="fill:#000000;fill-opacity:1;fill-rule:nonzero;stroke:none"
         id="path110" />
      <path
         d="m 5056.24,3825.94 c -4.96,0.05 -7.94,0.94 -10.96,2.46 -2.62,1.36 -5.33,3.43 -8.34,6.65 -5.27,5.56 -10.99,14.67 -16.98,25.66 -9.17,16.44 -18.75,36.92 -35.11,55.09 -8.2,9.03 -18.37,17.43 -30.88,23.39 -12.5,6 -27.12,9.32 -43.09,9.29 -13.8,0 -25,-11.19 -25,-25 0,-13.81 11.2,-25 25,-25 8.14,-0.02 14.18,-1.35 19.32,-3.42 4.49,-1.84 8.39,-4.3 12.22,-7.58 6.68,-5.69 13,-14.17 19.16,-24.54 9.39,-15.51 17.77,-34.72 30.86,-52.47 6.62,-8.82 14.73,-17.46 25.52,-24.04 10.73,-6.61 24.12,-10.57 38.28,-10.49 13.8,0 25,11.2 25,25 0,13.81 -11.2,25 -25,25"
         style="fill:#000000;fill-opacity:1;fill-rule:nonzero;stroke:none"
         id="path112" />
      <path
         d="m 4765.51,3775.94 c 12.32,-0.04 24.09,2.89 33.98,8.08 8.69,4.5 15.88,10.49 21.86,16.9 10.46,11.27 17.64,23.76 24.26,35.7 9.75,17.97 18.44,34.9 28.29,45.54 4.9,5.37 9.81,9.22 15.43,11.91 5.64,2.66 12.2,4.38 21.55,4.41 13.81,0 25,11.19 25,25 0,13.81 -11.19,25 -25,25 -13.9,0.02 -26.78,-2.47 -38.13,-7.1 -9.94,-4.03 -18.62,-9.63 -25.99,-15.97 -12.92,-11.15 -21.98,-24.27 -29.51,-36.84 -11.16,-18.89 -19.54,-37.09 -27.98,-48.15 -4.16,-5.57 -8.01,-9.19 -11.45,-11.26 -3.52,-2.05 -6.63,-3.14 -12.31,-3.22 -13.8,0 -25,-11.19 -25,-25 0,-13.8 11.2,-25 25,-25"
         style="fill:#000000;fill-opacity:1;fill-rule:nonzero;stroke:none"
         id="path114" />
      <path
         d="m 5056.24,3775.94 c 12.32,-0.04 24.08,2.9 33.98,8.08 8.68,4.51 15.88,10.5 21.85,16.9 10.46,11.28 17.64,23.76 24.25,35.71 9.76,17.96 18.44,34.89 28.29,45.53 4.9,5.37 9.81,9.22 15.43,11.91 5.65,2.66 12.21,4.38 21.57,4.41 13.8,0 25,11.2 25,25 0,13.81 -11.2,25 -25,25 -13.91,0.02 -26.79,-2.47 -38.14,-7.1 -9.94,-4.03 -18.62,-9.63 -25.99,-15.97 -12.93,-11.14 -21.98,-24.26 -29.52,-36.83 -11.15,-18.9 -19.53,-37.1 -27.98,-48.16 -4.15,-5.57 -8,-9.19 -11.45,-11.26 -3.51,-2.04 -6.62,-3.14 -12.3,-3.22 -13.81,0 -25,-11.19 -25,-25 0.01,-13.81 11.2,-25 25.01,-25"
         style="fill:#000000;fill-opacity:1;fill-rule:nonzero;stroke:none"
         id="path116" />
      <path
         d="m 722.695,3974.03 c -4.953,0.04 -7.933,0.94 -10.957,2.46 -2.617,1.35 -5.332,3.43 -8.34,6.64 -5.269,5.56 -10.988,14.68 -16.98,25.67 -9.164,16.44 -18.754,36.93 -35.109,55.09 -8.2,9.04 -18.371,17.44 -30.891,23.4 -12.492,5.99 -27.121,9.32 -43.082,9.29 -13.809,0 -25,-11.2 -25,-25 0,-13.81 11.191,-25 25,-25 8.137,-0.02 14.172,-1.36 19.316,-3.43 4.493,-1.83 8.395,-4.3 12.227,-7.58 6.676,-5.69 13.004,-14.17 19.164,-24.54 9.391,-15.51 17.762,-34.72 30.859,-52.47 6.614,-8.83 14.731,-17.47 25.52,-24.04 10.723,-6.61 24.113,-10.57 38.273,-10.49 13.809,0 25,11.19 25,25 0,13.81 -11.191,25 -25,25"
         style="fill:#000000;fill-opacity:1;fill-rule:nonzero;stroke:none"
         id="path118" />
      <path
         d="m 1013.42,3974.03 c -4.96,0.04 -7.94,0.94 -10.96,2.46 -2.616,1.35 -5.331,3.43 -8.339,6.64 -5.269,5.56 -10.984,14.68 -16.98,25.67 -9.164,16.44 -18.754,36.92 -35.106,55.09 -8.199,9.03 -18.367,17.43 -30.887,23.39 -12.492,5.99 -27.121,9.32 -43.082,9.29 -13.808,0 -25,-11.2 -25,-25 0,-13.81 11.192,-25 25,-25 8.137,-0.02 14.172,-1.36 19.313,-3.43 4.496,-1.83 8.394,-4.3 12.226,-7.58 6.676,-5.69 13,-14.17 19.161,-24.54 9.39,-15.51 17.761,-34.72 30.859,-52.46 6.613,-8.83 14.73,-17.47 25.52,-24.04 10.722,-6.61 24.117,-10.57 38.275,-10.49 13.81,0 25,11.19 25,25 0,13.81 -11.19,25 -25,25"
         style="fill:#000000;fill-opacity:1;fill-rule:nonzero;stroke:none"
         id="path120" />
      <path
         d="m 722.695,3924.03 c 12.321,-0.05 24.082,2.89 33.981,8.07 8.687,4.51 15.879,10.5 21.859,16.9 10.453,11.28 17.637,23.76 24.254,35.71 9.754,17.97 18.438,34.89 28.285,45.53 4.903,5.37 9.817,9.22 15.434,11.91 5.644,2.66 12.207,4.39 21.558,4.42 13.809,0 25,11.19 25,25 0,13.8 -11.191,25 -25,25 -13.906,0.02 -26.785,-2.48 -38.136,-7.11 -9.942,-4.03 -18.617,-9.62 -25.989,-15.96 -12.925,-11.15 -21.976,-24.27 -29.515,-36.84 -11.153,-18.9 -19.535,-37.09 -27.981,-48.16 -4.156,-5.57 -8.004,-9.18 -11.445,-11.26 -3.512,-2.04 -6.621,-3.13 -12.305,-3.21 -13.808,0 -25,-11.19 -25,-25 0,-13.81 11.192,-25 25,-25"
         style="fill:#000000;fill-opacity:1;fill-rule:nonzero;stroke:none"
         id="path122" />
      <path
         d="m 1013.42,3924.03 c 12.32,-0.04 24.08,2.89 33.98,8.08 8.69,4.5 15.88,10.49 21.85,16.9 10.46,11.27 17.63,23.76 24.25,35.71 9.75,17.96 18.44,34.89 28.28,45.52 4.91,5.37 9.82,9.22 15.43,11.91 5.65,2.66 12.21,4.39 21.56,4.42 v 0 24.93 l -2.07,-24.85 c 1,-0.08 1.72,-0.08 2.07,-0.08 v 24.93 l -2.07,-24.85 c 13.76,-1.14 25.85,9.08 26.99,22.84 1.15,13.76 -9.07,25.85 -22.83,26.99 -1.01,0.08 -1.73,0.09 -2.09,0.09 v 0 c -13.9,0.01 -26.78,-2.48 -38.14,-7.11 -9.93,-4.02 -18.61,-9.62 -25.98,-15.96 -12.93,-11.15 -21.98,-24.27 -29.51,-36.84 -11.15,-18.89 -19.54,-37.09 -27.98,-48.15 -4.16,-5.58 -8,-9.19 -11.45,-11.27 -3.51,-2.04 -6.62,-3.13 -12.3,-3.21 -13.805,0 -24.992,-11.2 -24.992,-25.01 0.004,-13.8 11.195,-24.99 25.002,-24.99"
         style="fill:#000000;fill-opacity:1;fill-rule:nonzero;stroke:none"
         id="path124" />
      <path
         d="m 3539.97,5589.57 c -0.05,-4.96 -0.94,-7.94 -2.46,-10.96 -1.36,-2.62 -3.43,-5.33 -6.65,-8.34 -5.56,-5.27 -14.67,-10.99 -25.67,-16.98 -16.44,-9.16 -36.92,-18.75 -55.08,-35.11 -9.03,-8.2 -17.44,-18.37 -23.4,-30.89 -5.99,-12.49 -9.32,-27.12 -9.28,-43.09 0,-13.8 11.19,-25 25,-25 13.8,0 25,11.2 25,25 0.01,8.14 1.35,14.18 3.42,19.32 1.84,4.5 4.3,8.4 7.58,12.23 5.69,6.68 14.17,13 24.54,19.16 15.51,9.39 34.72,17.77 52.46,30.86 8.83,6.62 17.47,14.73 24.05,25.52 6.61,10.73 10.56,24.12 10.49,38.28 0,13.81 -11.2,25 -25,25 -13.81,0 -25,-11.19 -25,-25"
         style="fill:#000000;fill-opacity:1;fill-rule:nonzero;stroke:none"
         id="path126" />
      <path
         d="m 3539.97,5880.29 c -0.05,-4.95 -0.94,-7.94 -2.46,-10.96 -1.36,-2.62 -3.43,-5.33 -6.65,-8.34 -5.56,-5.27 -14.67,-10.98 -25.67,-16.98 -16.44,-9.16 -36.92,-18.75 -55.08,-35.1 -9.03,-8.2 -17.43,-18.37 -23.4,-30.89 -5.99,-12.49 -9.32,-27.12 -9.28,-43.08 0,-13.81 11.19,-25 25,-25 13.8,0 25,11.19 25,25 0.01,8.13 1.35,14.17 3.42,19.31 1.84,4.49 4.3,8.39 7.58,12.23 5.69,6.67 14.17,13 24.54,19.16 15.51,9.39 34.72,17.76 52.46,30.86 8.83,6.61 17.47,14.73 24.05,25.52 6.61,10.72 10.56,24.11 10.49,38.27 0,13.8 -11.2,25 -25,25 -13.81,0 -25,-11.2 -25,-25"
         style="fill:#000000;fill-opacity:1;fill-rule:nonzero;stroke:none"
         id="path128" />
      <path
         d="m 3589.97,5589.57 c 0.04,12.32 -2.89,24.08 -8.08,33.98 -4.5,8.68 -10.49,15.88 -16.9,21.86 -11.27,10.45 -23.76,17.63 -35.71,24.25 -17.96,9.75 -34.89,18.44 -45.53,28.29 -5.37,4.9 -9.22,9.81 -11.91,15.43 -2.66,5.64 -4.38,12.21 -4.41,21.56 0,13.8 -11.2,25 -25,25 -13.81,0 -25,-11.2 -25,-25 -0.02,-13.91 2.47,-26.79 7.1,-38.14 4.03,-9.94 9.63,-18.62 15.97,-25.99 11.14,-12.92 24.27,-21.98 36.84,-29.51 18.89,-11.16 37.09,-19.54 48.15,-27.98 5.57,-4.16 9.19,-8.01 11.26,-11.45 2.04,-3.51 3.14,-6.62 3.22,-12.3 0,-13.81 11.19,-25 25,-25 13.8,0 25,11.19 25,25"
         style="fill:#000000;fill-opacity:1;fill-rule:nonzero;stroke:none"
         id="path130" />
      <path
         d="m 3589.97,5880.29 c 0.04,12.32 -2.89,24.08 -8.08,33.98 -4.5,8.68 -10.49,15.87 -16.9,21.86 -11.27,10.44 -23.76,17.63 -35.71,24.25 -17.96,9.75 -34.89,18.43 -45.53,28.28 -5.37,4.9 -9.22,9.81 -11.91,15.43 -2.66,5.64 -4.38,12.21 -4.41,21.56 0,13.81 -11.2,25 -25,25 -13.81,0 -25,-11.19 -25,-25 -0.02,-13.9 2.47,-26.78 7.1,-38.14 4.03,-9.94 9.63,-18.62 15.97,-25.98 11.14,-12.93 24.27,-21.98 36.84,-29.52 18.89,-11.15 37.09,-19.53 48.15,-27.98 5.58,-4.15 9.19,-8 11.26,-11.44 2.05,-3.52 3.14,-6.62 3.22,-12.3 0,-13.81 11.19,-25 25,-25 13.8,0 25,11.19 25,25"
         style="fill:#000000;fill-opacity:1;fill-rule:nonzero;stroke:none"
         id="path132" />
      <path
         d="m 2648.56,4068.85 c -0.04,-4.95 -0.94,-7.93 -2.45,-10.96 -1.36,-2.61 -3.43,-5.33 -6.65,-8.33 -5.56,-5.27 -14.68,-10.99 -25.67,-16.98 -16.44,-9.17 -36.92,-18.76 -55.08,-35.11 -9.04,-8.2 -17.44,-18.37 -23.4,-30.89 -5.99,-12.5 -9.32,-27.12 -9.28,-43.09 0,-13.81 11.19,-25 25,-25 13.8,0 25,11.19 25,25 0.01,8.14 1.35,14.18 3.42,19.32 1.84,4.49 4.3,8.4 7.58,12.23 5.69,6.67 14.17,13 24.54,19.16 15.51,9.39 34.72,17.76 52.46,30.86 8.83,6.61 17.47,14.73 24.05,25.52 6.6,10.72 10.56,24.12 10.48,38.27 0,13.81 -11.19,25 -25,25 -13.8,0 -25,-11.19 -25,-25"
         style="fill:#000000;fill-opacity:1;fill-rule:nonzero;stroke:none"
         id="path134" />
      <path
         d="m 2648.56,4359.58 c -0.04,-4.96 -0.94,-7.94 -2.45,-10.96 -1.36,-2.62 -3.43,-5.33 -6.65,-8.34 -5.56,-5.27 -14.68,-10.99 -25.67,-16.98 -16.44,-9.17 -36.92,-18.75 -55.08,-35.11 -9.04,-8.2 -17.44,-18.37 -23.4,-30.88 -5.99,-12.5 -9.32,-27.12 -9.28,-43.09 0,-13.8 11.19,-25 25,-25 13.8,0 25,11.2 25,25 0.01,8.14 1.35,14.18 3.42,19.32 1.84,4.49 4.3,8.39 7.58,12.22 5.69,6.68 14.17,13 24.54,19.16 15.51,9.39 34.72,17.77 52.46,30.86 8.83,6.62 17.47,14.73 24.05,25.52 6.6,10.73 10.56,24.12 10.48,38.28 0,13.8 -11.19,25 -25,25 -13.8,0 -25,-11.2 -25,-25"
         style="fill:#000000;fill-opacity:1;fill-rule:nonzero;stroke:none"
         id="path136" />
      <path
         d="m 2698.56,4068.85 c 0.05,12.32 -2.89,24.09 -8.07,33.98 -4.5,8.69 -10.49,15.88 -16.9,21.86 -11.27,10.46 -23.76,17.64 -35.71,24.26 -17.96,9.75 -34.89,18.43 -45.53,28.28 -5.37,4.9 -9.22,9.82 -11.91,15.43 -2.66,5.65 -4.38,12.21 -4.41,21.56 0,13.81 -11.2,25 -25,25 -13.81,0 -25,-11.19 -25,-25 -0.02,-13.9 2.47,-26.78 7.1,-38.13 4.03,-9.94 9.63,-18.62 15.97,-25.99 11.14,-12.93 24.26,-21.98 36.84,-29.52 18.89,-11.15 37.09,-19.53 48.15,-27.98 5.57,-4.15 9.19,-8 11.26,-11.44 2.04,-3.52 3.14,-6.63 3.21,-12.31 0,-13.8 11.2,-25 25,-25 13.81,0 25,11.2 25,25"
         style="fill:#000000;fill-opacity:1;fill-rule:nonzero;stroke:none"
         id="path138" />
      <path
         d="m 2698.56,4359.58 c 0.05,12.32 -2.89,24.08 -8.07,33.97 -4.5,8.69 -10.5,15.88 -16.9,21.86 -11.27,10.45 -23.76,17.63 -35.71,24.25 -17.97,9.75 -34.89,18.44 -45.53,28.29 -5.37,4.9 -9.22,9.81 -11.91,15.43 -2.66,5.64 -4.38,12.21 -4.41,21.56 0,13.8 -11.2,25 -25,25 -13.81,0 -25,-11.2 -25,-25 -0.02,-13.91 2.47,-26.79 7.1,-38.14 4.03,-9.94 9.63,-18.62 15.97,-25.99 11.14,-12.92 24.26,-21.98 36.84,-29.51 18.89,-11.16 37.09,-19.54 48.15,-27.98 5.57,-4.16 9.19,-8.01 11.26,-11.45 2.04,-3.51 3.14,-6.61 3.21,-12.29 0,-13.81 11.2,-25 25,-25 13.81,0 25,11.19 25,25"
         style="fill:#000000;fill-opacity:1;fill-rule:nonzero;stroke:none"
         id="path140" />
      <path
         d="m 5064.89,1639.57 c -0.05,-4.96 -0.94,-7.94 -2.46,-10.96 -1.36,-2.62 -3.43,-5.33 -6.65,-8.34 -5.56,-5.27 -14.67,-10.99 -25.67,-16.98 -16.44,-9.17 -36.92,-18.76 -55.08,-35.12 -9.03,-8.2 -17.43,-18.37 -23.4,-30.89 -5.99,-12.49 -9.31,-27.12 -9.28,-43.09 0,-13.8 11.19,-25 25,-25 13.81,0 25,11.2 25,25 0.02,8.15 1.35,14.18 3.43,19.33 1.83,4.49 4.29,8.4 7.57,12.23 5.69,6.67 14.18,13 24.54,19.16 15.52,9.39 34.72,17.77 52.47,30.86 8.82,6.62 17.46,14.73 24.04,25.52 6.61,10.73 10.57,24.12 10.49,38.28 0,13.8 -11.2,25 -25,25 -13.81,0 -25,-11.2 -25,-25"
         style="fill:#000000;fill-opacity:1;fill-rule:nonzero;stroke:none"
         id="path142" />
      <path
         d="m 5064.89,1930.29 c -0.05,-4.96 -0.94,-7.94 -2.46,-10.96 -1.36,-2.62 -3.43,-5.33 -6.65,-8.34 -5.56,-5.27 -14.67,-10.98 -25.66,-16.98 -16.44,-9.16 -36.92,-18.75 -55.09,-35.1 -9.03,-8.2 -17.43,-18.37 -23.39,-30.89 -6,-12.49 -9.32,-27.12 -9.29,-43.08 0,-13.81 11.19,-25 25,-25 13.81,0 25,11.19 25,25 0.02,8.13 1.35,14.17 3.43,19.31 1.83,4.49 4.29,8.4 7.57,12.23 5.69,6.67 14.17,13 24.54,19.16 15.51,9.39 34.72,17.76 52.47,30.86 8.82,6.61 17.46,14.73 24.04,25.52 6.61,10.72 10.57,24.11 10.49,38.27 0,13.81 -11.2,25 -25,25 -13.81,0 -25,-11.19 -25,-25"
         style="fill:#000000;fill-opacity:1;fill-rule:nonzero;stroke:none"
         id="path144" />
      <path
         d="m 5114.89,1639.57 c 0.04,12.32 -2.89,24.08 -8.08,33.98 -4.5,8.68 -10.49,15.88 -16.9,21.85 -11.27,10.46 -23.76,17.64 -35.7,24.26 -17.97,9.75 -34.9,18.43 -45.53,28.28 -5.37,4.9 -9.23,9.82 -11.92,15.43 -2.65,5.65 -4.38,12.21 -4.41,21.57 0,13.8 -11.19,25 -25,25 -13.81,0 -25,-11.2 -25,-25 -0.02,-13.91 2.47,-26.79 7.1,-38.14 4.03,-9.94 9.63,-18.62 15.97,-25.99 11.15,-12.93 24.27,-21.98 36.84,-29.52 18.89,-11.15 37.09,-19.53 48.15,-27.97 5.58,-4.16 9.19,-8.01 11.26,-11.45 2.05,-3.51 3.14,-6.62 3.22,-12.3 0,-13.81 11.19,-25 25,-25 13.8,0 25,11.19 25,25"
         style="fill:#000000;fill-opacity:1;fill-rule:nonzero;stroke:none"
         id="path146" />
      <path
         d="m 5114.89,1930.29 c 0.04,12.32 -2.89,24.08 -8.08,33.98 -4.5,8.68 -10.49,15.87 -16.9,21.85 -11.27,10.45 -23.76,17.63 -35.7,24.25 -17.97,9.75 -34.9,18.44 -45.54,28.28 -5.37,4.91 -9.22,9.82 -11.91,15.43 -2.66,5.65 -4.38,12.21 -4.41,21.56 0,13.81 -11.19,25 -25,25 -13.81,0 -25,-11.19 -25,-25 -0.02,-13.9 2.47,-26.78 7.1,-38.13 4.03,-9.94 9.63,-18.62 15.97,-25.99 11.15,-12.93 24.27,-21.98 36.84,-29.52 18.89,-11.15 37.09,-19.53 48.15,-27.97 5.58,-4.16 9.19,-8.01 11.26,-11.45 2.05,-3.51 3.14,-6.61 3.22,-12.29 0,-13.81 11.19,-25 25,-25 13.8,0 25,11.19 25,25"
         style="fill:#000000;fill-opacity:1;fill-rule:nonzero;stroke:none"
         id="path148" />
      <path
         d="m 2066.84,1410.46 c -0.05,-4.95 -0.94,-7.93 -2.46,-10.95 -1.36,-2.62 -3.43,-5.34 -6.65,-8.34 -5.56,-5.27 -14.67,-10.99 -25.67,-16.98 -16.44,-9.17 -36.91,-18.76 -55.08,-35.11 -9.03,-8.2 -17.43,-18.37 -23.4,-30.89 -5.99,-12.49 -9.32,-27.11 -9.28,-43.08 0,-13.8 11.19,-25 25,-25 13.8,0 25,11.2 25,25 0.01,8.14 1.35,14.17 3.42,19.32 1.84,4.49 4.3,8.39 7.58,12.22 5.69,6.68 14.17,13 24.54,19.16 15.51,9.39 34.72,17.77 52.46,30.86 8.83,6.62 17.47,14.73 24.05,25.52 6.61,10.73 10.56,24.12 10.49,38.27 0,13.81 -11.2,25 -25,25 -13.81,0 -25,-11.19 -25,-25"
         style="fill:#000000;fill-opacity:1;fill-rule:nonzero;stroke:none"
         id="path150" />
      <path
         d="m 2066.84,1701.19 c -0.05,-4.96 -0.94,-7.94 -2.46,-10.96 -1.36,-2.62 -3.43,-5.33 -6.65,-8.34 -5.56,-5.27 -14.67,-10.99 -25.67,-16.98 -16.44,-9.16 -36.91,-18.75 -55.08,-35.11 -9.03,-8.19 -17.43,-18.36 -23.4,-30.88 -5.99,-12.49 -9.32,-27.12 -9.28,-43.08 0,-13.81 11.19,-25 25,-25 13.8,0 25,11.19 25,25 0.01,8.13 1.35,14.17 3.42,19.31 1.84,4.49 4.3,8.39 7.58,12.23 5.69,6.67 14.17,13 24.54,19.15 15.51,9.4 34.72,17.77 52.46,30.86 8.83,6.62 17.47,14.73 24.05,25.53 6.61,10.72 10.56,24.11 10.49,38.27 0,13.8 -11.2,25 -25,25 -13.81,0 -25,-11.2 -25,-25"
         style="fill:#000000;fill-opacity:1;fill-rule:nonzero;stroke:none"
         id="path152" />
      <path
         d="m 2116.84,1410.46 c 0.04,12.33 -2.89,24.09 -8.08,33.98 -4.5,8.69 -10.49,15.89 -16.9,21.86 -11.27,10.46 -23.76,17.64 -35.71,24.26 -17.96,9.75 -34.89,18.44 -45.53,28.29 -5.37,4.9 -9.22,9.81 -11.91,15.43 -2.66,5.64 -4.38,12.21 -4.41,21.56 0,13.8 -11.2,25 -25,25 -13.81,0 -25,-11.2 -25,-25 -0.02,-13.91 2.47,-26.79 7.1,-38.14 4.03,-9.94 9.63,-18.62 15.97,-25.99 11.14,-12.92 24.27,-21.97 36.84,-29.51 18.89,-11.15 37.09,-19.54 48.15,-27.98 5.57,-4.16 9.19,-8.01 11.26,-11.45 2.04,-3.51 3.14,-6.62 3.22,-12.31 0,-13.8 11.19,-25 25,-25 13.8,0 25,11.2 25,25"
         style="fill:#000000;fill-opacity:1;fill-rule:nonzero;stroke:none"
         id="path154" />
      <path
         d="m 2116.84,1701.19 c 0.04,12.32 -2.89,24.08 -8.08,33.98 -4.5,8.69 -10.49,15.88 -16.9,21.86 -11.27,10.45 -23.76,17.63 -35.71,24.25 -17.96,9.75 -34.89,18.43 -45.53,28.28 -5.37,4.9 -9.22,9.82 -11.91,15.44 -2.66,5.64 -4.38,12.2 -4.41,21.56 0,13.81 -11.2,25 -25,25 -13.81,0 -25,-11.19 -25,-25 -0.02,-13.91 2.47,-26.79 7.1,-38.14 4.03,-9.94 9.63,-18.62 15.97,-25.99 11.14,-12.93 24.27,-21.98 36.84,-29.52 18.89,-11.15 37.09,-19.53 48.15,-27.97 5.57,-4.16 9.19,-8.01 11.26,-11.45 2.04,-3.51 3.14,-6.62 3.22,-12.3 0,-13.81 11.19,-25 25,-25 13.8,0 25,11.19 25,25"
         style="fill:#000000;fill-opacity:1;fill-rule:nonzero;stroke:none"
         id="path156" />
      <path
         d="m 3889.24,2441.66 h 358.69 c 13.81,0 25,11.19 25,25 0,13.8 -11.19,25 -25,25 h -358.69 c -13.8,0 -25,-11.2 -25,-25 0,-13.81 11.2,-25 25,-25"
         style="fill:#000000;fill-opacity:1;fill-rule:nonzero;stroke:none"
         id="path158" />
      <path
         d="m 362.98,3478.15 h 358.692 c 13.805,0 25,11.19 25,25 0,13.81 -11.195,25 -25,25 H 362.98 c -13.808,0 -25,-11.19 -25,-25 0,-13.81 11.192,-25 25,-25"
         style="fill:#000000;fill-opacity:1;fill-rule:nonzero;stroke:none"
         id="path160" />
      <path
         d="m 3916.06,5145.46 h 358.69 c 13.81,0 25,11.2 25,25 0,13.81 -11.19,25 -25,25 h -358.69 c -13.81,0 -25,-11.19 -25,-25 0,-13.8 11.19,-25 25,-25"
         style="fill:#000000;fill-opacity:1;fill-rule:nonzero;stroke:none"
         id="path162" />
      <path
         d="m 5329.95,5954.96 h 358.69 c 13.8,0 25,11.2 25,25 0,13.81 -11.2,25 -25,25 h -358.69 c -13.81,0 -25,-11.19 -25,-25 0,-13.8 11.19,-25 25,-25"
         style="fill:#000000;fill-opacity:1;fill-rule:nonzero;stroke:none"
         id="path164" />
      <path
         d="m 1792.96,608.801 h 358.69 c 13.81,0 25,11.199 25,25 0,13.808 -11.19,25 -25,25 h -358.69 c -13.81,0 -25,-11.192 -25,-25 0,-13.801 11.19,-25 25,-25"
         style="fill:#000000;fill-opacity:1;fill-rule:nonzero;stroke:none"
         id="path166" />
      <path
         d="m 2731.67,1309.1 253.63,253.63 c 9.77,9.76 9.77,25.59 0,35.35 -9.76,9.77 -25.59,9.77 -35.35,0 l -253.63,-253.63 c -9.77,-9.76 -9.77,-25.59 0,-35.35 9.76,-9.77 25.59,-9.77 35.35,0"
         style="fill:#000000;fill-opacity:1;fill-rule:nonzero;stroke:none"
         id="path168" />
      <path
         d="m 632.102,5708.66 253.632,253.63 c 9.762,9.76 9.762,25.59 0,35.35 -9.761,9.77 -25.593,9.77 -35.355,0 L 596.746,5744.01 c -9.762,-9.76 -9.762,-25.59 0,-35.35 9.762,-9.77 25.594,-9.77 35.356,0"
         style="fill:#000000;fill-opacity:1;fill-rule:nonzero;stroke:none"
         id="path170" />
      <path
         d="m 5526.96,3108.53 253.63,253.63 c 9.77,9.76 9.77,25.59 0,35.36 -9.76,9.76 -25.59,9.76 -35.35,0 L 5491.6,3143.88 c -9.76,-9.76 -9.76,-25.59 0,-35.35 9.77,-9.76 25.6,-9.76 35.36,0"
         style="fill:#000000;fill-opacity:1;fill-rule:nonzero;stroke:none"
         id="path172" />
      <path
         d="m 3354.53,4366.34 65.61,113.81 h 11.55 l -59.84,-103.8 201.06,0.17 201.11,0.09 -100.67,174.09 4.33,2.5 4.33,2.5 109.34,-189.08 -218.43,-0.1 -218.39,-0.18 m 94.45,163.82 14.66,25.44 16.4,28.46 5.78,-9.99 -13.51,-23.47 -11.79,-20.43 -11.54,-0.01 m 224.37,20.54 -100.68,174.12 -58.02,-100.72 -5.78,10 63.78,110.72 109.36,-189.12 -4.33,-2.5 -4.33,-2.5"
         style="fill:#adadad;fill-opacity:1;fill-rule:nonzero;stroke:none"
         id="path174" />
      <path
         d="m 3420.14,4480.15 28.84,50.01 11.54,0.01 -28.83,-50.02 h -11.55 m 65.68,93.92 -5.78,9.99 28.83,50.04 5.78,-10 -28.83,-50.03"
         style="fill:#000000;fill-opacity:1;fill-rule:nonzero;stroke:none"
         id="path176" />
      <path
         d="m 3007.34,2146.32 65.61,113.81 h 11.55 l -59.85,-103.8 201.07,0.17 201.11,0.09 -100.67,174.09 4.33,2.5 4.33,2.5 109.34,-189.08 -218.43,-0.1 -218.39,-0.18 m 94.45,163.82 14.66,25.44 16.4,28.47 5.78,-10 -13.52,-23.47 -11.78,-20.43 -11.54,-0.01 m 224.37,20.54 -100.68,174.12 -58.02,-100.72 -5.78,10 63.78,110.72 109.36,-189.12 -4.33,-2.5 -4.33,-2.5"
         style="fill:#adadad;fill-opacity:1;fill-rule:nonzero;stroke:none"
         id="path178" />
      <path
         d="m 3072.95,2260.13 28.84,50.01 11.54,0.01 -28.83,-50.02 h -11.55 m 65.68,93.92 -5.78,10 28.83,50.03 5.78,-10 -28.83,-50.03"
         style="fill:#000000;fill-opacity:1;fill-rule:nonzero;stroke:none"
         id="path180" />
      <path
         d="m 4210.8,1464.58 65.61,113.81 11.55,0.01 -59.84,-103.81 201.06,0.17 201.1,0.1 -100.66,174.08 4.33,2.5 4.33,2.5 109.33,-189.08 -218.42,-0.1 -218.39,-0.18 m 94.45,163.82 14.66,25.44 16.4,28.47 5.78,-10 -13.52,-23.46 -11.78,-20.44 -11.54,-0.01 m 224.37,20.54 -100.68,174.12 -58.02,-100.72 -5.79,10 63.79,110.72 109.36,-189.12 -4.33,-2.5 -4.33,-2.5"
         style="fill:#adadad;fill-opacity:1;fill-rule:nonzero;stroke:none"
         id="path182" />
      <path
         d="m 4276.41,1578.39 28.84,50.01 11.54,0.01 -28.83,-50.01 -11.55,-0.01 m 65.68,93.92 -5.78,10 28.82,50.03 5.79,-10 -28.83,-50.03"
         style="fill:#000000;fill-opacity:1;fill-rule:nonzero;stroke:none"
         id="path184" />
      <path
         d="m 5174.57,2833.42 -154.52,154.38 -37.41,37.35 2.98,11.16 41.49,-41.43 142.27,-142.14 51.91,194.29 51.94,194.31 -194.16,-52.22 -56.69,-15.23 2.98,11.15 51.12,13.73 210.88,56.73 -56.41,-211.05 -56.38,-211.03 m -232.79,232.52 -76.28,76.17 104.1,27.96 -2.98,-11.16 -81.8,-21.96 59.94,-59.85 -2.98,-11.16"
         style="fill:#adadad;fill-opacity:1;fill-rule:nonzero;stroke:none"
         id="path186" />
      <path
         d="m 4982.64,3025.15 -40.86,40.79 2.98,11.16 40.86,-40.79 -2.98,-11.16 m -16.02,133.76 2.98,11.16 55.76,14.97 -2.98,-11.15 -55.76,-14.98"
         style="fill:#000000;fill-opacity:1;fill-rule:nonzero;stroke:none"
         id="path188" />
      <path
         d="m 1725.31,5186.34 -154.53,154.38 -37.4,37.35 2.98,11.15 41.49,-41.42 142.27,-142.14 51.9,194.28 51.94,194.31 -194.16,-52.22 -56.68,-15.23 2.98,11.16 51.11,13.73 210.88,56.72 -56.4,-211.05 -56.38,-211.02 m -232.79,232.52 -76.29,76.16 104.11,27.96 -2.98,-11.15 -81.81,-21.97 59.95,-59.85 -2.98,-11.15"
         style="fill:#adadad;fill-opacity:1;fill-rule:nonzero;stroke:none"
         id="path190" />
      <path
         d="m 1533.38,5378.07 -40.86,40.79 2.98,11.15 40.86,-40.79 -2.98,-11.15 m -16.02,133.76 2.98,11.15 55.76,14.98 -2.98,-11.16 -55.76,-14.97"
         style="fill:#000000;fill-opacity:1;fill-rule:nonzero;stroke:none"
         id="path192" />
      <path
         d="m 1581.68,807.23 -154.53,154.379 -37.41,37.34 2.99,11.161 41.49,-41.419 142.27,-142.14 51.9,194.269 4.83,-1.29 -4.83,1.29 51.93,194.32 -194.15,-52.22 -56.68,-15.23 2.98,11.16 51.1,13.73 210.89,56.72 -56.41,-211.06 v 0 l -56.37,-211.01 m -232.79,232.51 -76.3,76.16 104.12,27.97 -2.98,-11.16 -81.81,-21.97 59.95,-59.85 -2.98,-11.15"
         style="fill:#adadad;fill-opacity:1;fill-rule:nonzero;stroke:none"
         id="path194" />
      <path
         d="m 1389.74,998.949 -40.85,40.791 2.98,11.15 40.86,-40.78 -2.99,-11.161 m -16.01,133.761 2.98,11.16 55.76,14.98 -2.98,-11.16 -55.76,-14.98"
         style="fill:#000000;fill-opacity:1;fill-rule:nonzero;stroke:none"
         id="path196" />
      <path
         d="m 5252.06,5058.57 -0.1,218.43 -0.02,23.94 9.99,5.78 0.03,-29.71 0.09,-201.11 174.08,100.68 174.13,100.67 -174.22,100.37 -26.53,15.29 c 2.43,2.36 4.34,5.19 5.64,8.29 l 25.88,-14.92 189.23,-109.01 -189.12,-109.35 -189.08,-109.35 m -0.17,300.1 -0.09,104.15 10.01,-5.76 0.07,-92.61 -9.99,-5.78"
         style="fill:#adadad;fill-opacity:1;fill-rule:nonzero;stroke:none"
         id="path198" />
      <path
         d="m 5251.94,5300.94 -0.05,57.73 9.99,5.78 0.05,-57.73 -9.99,-5.78 m 157.57,91.97 -147.72,85.16 0.02,-21.01 -10.01,5.76 -0.03,32.57 163.38,-94.19 c -1.3,-3.1 -3.21,-5.93 -5.64,-8.29"
         style="fill:#000000;fill-opacity:1;fill-rule:nonzero;stroke:none"
         id="path200" />
      <path
         d="m 1442.01,2963.05 -0.11,218.45 -0.02,23.94 10,5.77 0.02,-29.7 0.1,-201.13 174.07,100.68 174.12,100.69 -174.21,100.36 -26.53,15.3 c 2.43,2.36 4.34,5.18 5.64,8.29 l 25.88,-14.92 189.23,-109.01 -189.12,-109.37 v 0.01 l -189.07,-109.36 m -0.18,300.11 -0.09,104.16 10,-5.77 0.09,-92.61 -10,-5.78"
         style="fill:#adadad;fill-opacity:1;fill-rule:nonzero;stroke:none"
         id="path202" />
      <path
         d="m 1441.88,3205.44 -0.05,57.72 10,5.78 0.05,-57.73 -10,-5.77 m 157.57,91.97 -147.72,85.16 0.01,-21.02 -10,5.77 -0.03,32.56 163.38,-94.18 c -1.3,-3.11 -3.21,-5.93 -5.64,-8.29"
         style="fill:#000000;fill-opacity:1;fill-rule:nonzero;stroke:none"
         id="path204" />
      <path
         d="m 3873.03,3256.04 c -77.77,0 -142.91,54.08 -159.85,126.69 3.16,1.26 6.27,2.61 9.34,4.04 6.44,-29.16 21.13,-55.2 41.52,-75.59 27.91,-27.9 66.41,-45.14 108.99,-45.14 42.57,0 81.07,17.24 108.98,45.14 27.9,27.91 45.14,66.41 45.14,108.99 0,42.58 -17.24,81.08 -45.14,108.99 -27.91,27.9 -66.41,45.14 -108.98,45.14 -15.5,0 -30.46,-2.28 -44.57,-6.54 -0.25,3.4 -0.6,6.78 -1.04,10.12 14.48,4.18 29.79,6.42 45.61,6.42 90.64,0 164.12,-73.48 164.12,-164.13 v 0 0 0 c 0,-90.65 -73.48,-164.13 -164.12,-164.13 m -163.36,180.26 c 4.78,48.97 31.08,91.63 69.32,118.41 0,-0.32 0,-0.63 0,-0.95 0,-4 -0.18,-7.95 -0.52,-11.86 -5.07,-3.95 -9.89,-8.2 -14.43,-12.74 -22.81,-22.81 -38.5,-52.71 -43.47,-86.13 -3.51,-2.41 -7.15,-4.66 -10.9,-6.73"
         style="fill:#adadad;fill-opacity:1;fill-rule:nonzero;stroke:none"
         id="path206" />
      <path
         d="m 3713.18,3382.73 c -2.8,12.03 -4.29,24.56 -4.29,37.44 0,5.45 0.27,10.82 0.78,16.13 3.75,2.07 7.39,4.32 10.9,6.73 -1.1,-7.46 -1.68,-15.09 -1.68,-22.86 0,-11.47 1.25,-22.65 3.63,-33.4 -3.07,-1.43 -6.18,-2.78 -9.34,-4.04 m 65.29,159.17 c 0.34,3.91 0.52,7.86 0.52,11.86 0,0.32 0,0.63 0,0.95 14.58,10.21 30.9,18.11 48.43,23.17 0.44,-3.34 0.79,-6.72 1.04,-10.12 -18.34,-5.53 -35.23,-14.38 -49.99,-25.86"
         style="fill:#000000;fill-opacity:1;fill-rule:nonzero;stroke:none"
         id="path208" />
      <path
         d="m 3068.98,5031.87 c -77.76,0 -142.9,54.08 -159.84,126.69 3.15,1.26 6.27,2.61 9.33,4.04 6.44,-29.16 21.14,-55.2 41.52,-75.59 27.91,-27.9 66.42,-45.14 108.99,-45.14 42.58,0 81.08,17.24 108.99,45.14 27.9,27.91 45.14,66.41 45.14,108.99 0,42.58 -17.24,81.08 -45.14,108.99 -27.91,27.9 -66.41,45.14 -108.99,45.14 -15.49,0 -30.45,-2.28 -44.56,-6.54 -0.25,3.4 -0.6,6.78 -1.04,10.12 14.48,4.18 29.78,6.42 45.6,6.42 90.65,0 164.13,-73.47 164.13,-164.13 v 0 0 0 c 0,-90.65 -73.48,-164.13 -164.13,-164.13 m -163.35,180.26 c 4.77,48.98 31.07,91.63 69.32,118.41 0,-0.31 0,-0.63 0,-0.94 0,-4 -0.17,-7.96 -0.52,-11.86 -5.07,-3.95 -9.89,-8.21 -14.44,-12.75 -22.81,-22.82 -38.5,-52.71 -43.46,-86.13 -3.52,-2.41 -7.16,-4.66 -10.9,-6.73"
         style="fill:#adadad;fill-opacity:1;fill-rule:nonzero;stroke:none"
         id="path210" />
      <path
         d="m 2909.14,5158.56 c -2.81,12.02 -4.3,24.56 -4.3,37.44 0,5.44 0.27,10.82 0.79,16.13 3.74,2.07 7.38,4.32 10.9,6.73 -1.11,-7.46 -1.69,-15.09 -1.69,-22.86 0,-11.47 1.26,-22.65 3.63,-33.4 -3.06,-1.43 -6.18,-2.78 -9.33,-4.04 m 65.29,159.18 c 0.35,3.9 0.52,7.86 0.52,11.86 0,0.31 0,0.63 0,0.94 14.58,10.21 30.91,18.11 48.43,23.17 0.44,-3.34 0.79,-6.72 1.04,-10.12 -18.33,-5.52 -35.23,-14.37 -49.99,-25.85"
         style="fill:#000000;fill-opacity:1;fill-rule:nonzero;stroke:none"
         id="path212" />
      <path
         d="m 3170.54,335.352 c -77.76,0 -142.9,54.078 -159.85,126.687 3.16,1.262 6.27,2.609 9.34,4.039 6.44,-29.16 21.13,-55.199 41.52,-75.578 27.91,-27.91 66.41,-45.148 108.99,-45.148 42.58,0 81.08,17.238 108.99,45.148 27.9,27.898 45.14,66.41 45.14,108.988 0,42.582 -17.24,81.082 -45.14,108.981 -27.91,27.902 -66.41,45.14 -108.99,45.14 -15.5,0 -30.46,-2.289 -44.56,-6.539 -0.26,3.399 -0.61,6.782 -1.04,10.121 14.47,4.18 29.77,6.418 45.6,6.418 90.65,0 164.13,-73.468 164.13,-164.121 v 0 0 0 c 0,-90.656 -73.48,-164.136 -164.13,-164.136 m -163.36,180.25 c 4.77,48.98 31.07,91.648 69.32,118.418 0,-0.309 0,-0.622 0,-0.938 0,-4.004 -0.17,-7.961 -0.51,-11.871 -5.08,-3.941 -9.9,-8.199 -14.44,-12.742 -22.82,-22.809 -38.51,-52.707 -43.47,-86.129 -3.52,-2.41 -7.16,-4.66 -10.9,-6.738"
         style="fill:#adadad;fill-opacity:1;fill-rule:nonzero;stroke:none"
         id="path214" />
      <path
         d="m 3010.69,462.039 c -2.81,12.031 -4.29,24.563 -4.29,37.449 0,5.442 0.26,10.813 0.78,16.114 3.74,2.078 7.38,4.328 10.9,6.738 -1.11,-7.461 -1.68,-15.09 -1.68,-22.852 0,-11.476 1.25,-22.656 3.63,-33.41 -3.07,-1.43 -6.18,-2.777 -9.34,-4.039 m 65.3,159.172 c 0.34,3.91 0.51,7.867 0.51,11.871 0,0.316 0,0.629 0,0.938 14.58,10.21 30.91,18.109 48.44,23.171 0.43,-3.339 0.78,-6.722 1.04,-10.121 -18.34,-5.519 -35.24,-14.379 -49.99,-25.859"
         style="fill:#000000;fill-opacity:1;fill-rule:nonzero;stroke:none"
         id="path216" />
      <path
         d="m 4078.56,737.32 h -10 c 0,42.578 -17.25,81.078 -45.15,108.981 -27.91,27.898 -66.41,45.14 -108.99,45.14 -15.5,0 -30.45,-2.281 -44.55,-6.531 -0.26,3.399 -0.6,6.762 -1.04,10.121 14.47,4.168 29.77,6.41 45.59,6.41 90.65,0 164.14,-73.472 164.14,-164.121 m -318.28,0 h -10 c 0,55.668 27.72,104.86 70.11,134.539 0,-0.32 0,-0.629 0,-0.949 0,-3.519 0.73,-6.871 2.05,-9.91 -6.02,-4.48 -11.71,-9.398 -17.01,-14.699 -27.9,-27.903 -45.15,-66.403 -45.15,-108.981"
         style="fill:#adadad;fill-opacity:1;fill-rule:nonzero;stroke:none"
         id="path218" />
      <path
         d="m 3822.44,861 c -1.32,3.039 -2.05,6.391 -2.05,9.91 0,0.32 0,0.629 0,0.949 14.59,10.211 30.91,18.11 48.44,23.172 0.44,-3.359 0.78,-6.722 1.04,-10.121 -17.29,-5.211 -33.29,-13.379 -47.43,-23.91"
         style="fill:#000000;fill-opacity:1;fill-rule:nonzero;stroke:none"
         id="path220" />
      <path
         d="m 2808.44,3181.49 h -10 c -0.01,42.58 -17.25,81.08 -45.15,108.98 -27.91,27.9 -66.41,45.14 -108.98,45.14 -15.5,0 -30.46,-2.28 -44.56,-6.54 -0.26,3.4 -0.61,6.78 -1.04,10.12 14.47,4.18 29.77,6.42 45.6,6.42 90.64,0 164.12,-73.47 164.13,-164.12 m -318.27,0 h -10 c 0,55.67 27.71,104.86 70.1,134.53 0,-0.31 0,-0.63 0,-0.95 0,-3.52 0.73,-6.87 2.04,-9.91 -6.01,-4.48 -11.69,-9.39 -16.99,-14.69 -27.91,-27.9 -45.15,-66.4 -45.15,-108.98"
         style="fill:#adadad;fill-opacity:1;fill-rule:nonzero;stroke:none"
         id="path222" />
      <path
         d="m 2552.31,3305.16 c -1.31,3.04 -2.04,6.39 -2.04,9.91 0,0.32 0,0.64 0,0.95 14.58,10.21 30.91,18.12 48.44,23.17 0.43,-3.34 0.78,-6.72 1.04,-10.12 -17.29,-5.21 -33.29,-13.37 -47.44,-23.91"
         style="fill:#000000;fill-opacity:1;fill-rule:nonzero;stroke:none"
         id="path224" />
      <path
         d="m 1132.81,4473.51 h -10 c 0,42.59 -17.17,81.09 -44.94,109 -27.78,27.89 -66.1,45.13 -108.468,45.13 -15.754,0 -30.953,-2.38 -45.254,-6.81 -0.25,3.4 -0.593,6.78 -1.027,10.13 14.676,4.35 30.207,6.68 46.281,6.68 90.258,0 163.408,-73.49 163.408,-164.13 m -316.826,0 h -9.996 c 0,55.17 27.098,103.98 68.66,133.74 0,-0.05 0,-0.1 0,-0.15 0,-3.77 0.836,-7.35 2.336,-10.56 -5.671,-4.3 -11.031,-8.99 -16.05,-14.03 -27.774,-27.91 -44.946,-66.41 -44.95,-109"
         style="fill:#adadad;fill-opacity:1;fill-rule:nonzero;stroke:none"
         id="path226" />
      <path
         d="m 876.984,4596.54 c -1.5,3.21 -2.336,6.79 -2.336,10.56 0,0.05 0,0.1 0,0.15 14.563,10.42 30.903,18.51 48.473,23.71 0.434,-3.35 0.777,-6.73 1.027,-10.13 -17.21,-5.33 -33.125,-13.62 -47.164,-24.29"
         style="fill:#000000;fill-opacity:1;fill-rule:nonzero;stroke:none"
         id="path228" />
      <path
         d="m 4822.17,4207.93 c -90.63,0 -164.13,73.15 -164.14,163.41 0.01,90.26 73.51,163.41 164.14,163.41 v -10 c -42.59,0 -81.09,-17.17 -109,-44.94 -27.9,-27.78 -45.14,-66.1 -45.14,-108.47 0,-42.37 17.24,-80.68 45.14,-108.47 27.91,-27.77 66.42,-44.94 109,-44.94 v -10"
         style="fill:#adadad;fill-opacity:1;fill-rule:nonzero;stroke:none"
         id="path230" />
      <path
         d="m 990.391,495.211 c -90.637,0 -164.125,73.16 -164.129,163.418 0.004,90.262 73.492,163.402 164.129,163.402 v -10 c -42.586,0 -81.094,-17.172 -108.996,-44.941 -27.899,-27.781 -45.133,-66.09 -45.133,-108.461 0,-42.367 17.234,-80.688 45.133,-108.469 27.902,-27.781 66.41,-44.949 108.996,-44.949 v 0 -10"
         style="fill:#adadad;fill-opacity:1;fill-rule:nonzero;stroke:none"
         id="path232" />
      <path
         d="m 2697.99,5556.15 c -90.64,0 -164.13,73.15 -164.13,163.42 0,90.26 73.49,163.4 164.13,163.4 v -10 c -42.59,0 -81.09,-17.17 -109,-44.94 -27.9,-27.78 -45.13,-66.1 -45.13,-108.46 0,-42.37 17.23,-80.69 45.13,-108.48 27.91,-27.77 66.41,-44.94 109,-44.94 v -10"
         style="fill:#adadad;fill-opacity:1;fill-rule:nonzero;stroke:none"
         id="path234" />
      <path
         d="m 910.828,2009.8 c -77.758,0 -142.894,54.09 -159.848,126.69 3.157,1.26 6.274,2.61 9.34,4.04 6.442,-29.15 21.137,-55.2 41.52,-75.58 27.91,-27.91 66.414,-45.15 108.988,-45.15 42.578,0 81.078,17.24 108.992,45.15 27.9,27.91 45.14,66.41 45.14,108.99 0,42.58 -17.24,81.08 -45.14,108.98 -27.914,27.9 -66.414,45.14 -108.992,45.14 -15.496,0 -30.453,-2.28 -44.558,-6.53 -0.254,3.39 -0.602,6.77 -1.04,10.11 14.477,4.18 29.778,6.42 45.598,6.42 90.642,0 164.132,-73.47 164.132,-164.12 v 0 0 0 c 0,-90.65 -73.48,-164.14 -164.132,-164.14 m -163.355,180.26 c 4.773,48.98 31.074,91.64 69.32,118.41 0.004,-0.31 0.004,-0.62 0.004,-0.94 0,-4 -0.176,-7.95 -0.52,-11.86 -5.074,-3.95 -9.894,-8.21 -14.437,-12.75 -22.817,-22.81 -38.504,-52.71 -43.469,-86.13 -3.516,-2.41 -7.156,-4.66 -10.898,-6.73"
         style="fill:#adadad;fill-opacity:1;fill-rule:nonzero;stroke:none"
         id="path236" />
      <path
         d="m 750.98,2136.49 c -2.804,12.03 -4.289,24.56 -4.292,37.45 0.003,5.44 0.265,10.81 0.785,16.12 3.742,2.07 7.382,4.32 10.898,6.73 -1.105,-7.46 -1.68,-15.08 -1.68,-22.85 0,-11.48 1.25,-22.66 3.629,-33.41 -3.066,-1.43 -6.183,-2.78 -9.34,-4.04 m 65.297,159.18 c 0.344,3.91 0.52,7.86 0.52,11.86 0,0.32 0,0.63 -0.004,0.94 14.586,10.21 30.91,18.12 48.437,23.17 0.438,-3.34 0.786,-6.72 1.04,-10.11 -18.336,-5.53 -35.235,-14.38 -49.993,-25.86"
         style="fill:#000000;fill-opacity:1;fill-rule:nonzero;stroke:none"
         id="path238" />
      <path
         d="m 5818.05,1828.06 c -77.77,0 -142.91,54.08 -159.85,126.69 3.16,1.27 6.27,2.61 9.34,4.04 6.44,-29.15 21.14,-55.19 41.52,-75.58 27.91,-27.9 66.41,-45.14 108.99,-45.15 42.57,0.01 81.07,17.25 108.98,45.15 27.9,27.91 45.14,66.41 45.14,108.99 0,42.58 -17.24,81.08 -45.14,108.99 -27.91,27.89 -66.41,45.13 -108.98,45.13 -15.5,0 -30.46,-2.28 -44.57,-6.53 -0.25,3.39 -0.6,6.77 -1.04,10.11 14.48,4.18 29.79,6.42 45.61,6.42 90.63,0 164.12,-73.46 164.12,-164.12 v 0 0 0 c 0,-90.65 -73.48,-164.13 -164.12,-164.14 m -163.36,180.26 c 4.78,48.98 31.07,91.64 69.31,118.41 0.01,-0.31 0.01,-0.62 0.01,-0.93 0,-4.01 -0.18,-7.97 -0.52,-11.88 -5.07,-3.94 -9.89,-8.2 -14.43,-12.73 -22.81,-22.82 -38.5,-52.72 -43.47,-86.13 -3.52,-2.42 -7.15,-4.66 -10.9,-6.74"
         style="fill:#adadad;fill-opacity:1;fill-rule:nonzero;stroke:none"
         id="path240" />
      <path
         d="m 5658.2,1954.75 c -2.8,12.03 -4.29,24.57 -4.29,37.45 0,5.44 0.27,10.82 0.78,16.12 3.75,2.08 7.38,4.32 10.9,6.74 -1.11,-7.46 -1.68,-15.09 -1.68,-22.86 0,-11.47 1.25,-22.65 3.63,-33.41 -3.07,-1.43 -6.18,-2.77 -9.34,-4.04 m 65.29,159.17 c 0.34,3.91 0.52,7.87 0.52,11.88 0,0.31 0,0.62 -0.01,0.93 14.59,10.22 30.91,18.11 48.44,23.17 0.44,-3.34 0.79,-6.72 1.04,-10.11 -18.34,-5.53 -35.23,-14.39 -49.99,-25.87"
         style="fill:#000000;fill-opacity:1;fill-rule:nonzero;stroke:none"
         id="path242" />
      <path
         d="M 5858.54,4208.07 H 5532 v 113.6 h 10 v -103.6 h 306.54 v 306.54 h -198.16 v 10 h 208.16 V 4208.07 M 5542,4371.67 h -10 v 157.95 4.99 h 68.38 v -10 H 5542 v -152.94"
         style="fill:#adadad;fill-opacity:1;fill-rule:nonzero;stroke:none"
         id="path244" />
      <path
         d="m 5542,4321.67 h -10 v 50 h 10 v -50 m 108.38,202.94 h -50 v 10 h 50 v -10"
         style="fill:#000000;fill-opacity:1;fill-rule:nonzero;stroke:none"
         id="path246" />
      <path
         d="m 2279.62,4049.8 h -326.53 v 113.59 h 10 V 4059.8 h 306.53 v 306.54 h -198.17 v 10 h 208.17 V 4049.8 m -316.53,163.59 h -10 v 157.95 5 h 68.36 v -10 h -58.36 v -152.95"
         style="fill:#adadad;fill-opacity:1;fill-rule:nonzero;stroke:none"
         id="path248" />
      <path
         d="m 1963.09,4163.39 h -10 v 50 h 10 v -50 m 108.36,202.95 h -50 v 10 h 50 v -10"
         style="fill:#000000;fill-opacity:1;fill-rule:nonzero;stroke:none"
         id="path250" />
      <path
         d="M 2263.73,2028.94 H 1937.2 v 113.59 h 10 v -103.59 h 306.53 v 306.54 h -198.16 v 10 h 208.16 v -326.54 m -316.53,163.59 h -10 v 157.95 5 h 68.37 v -10 h -58.37 v -152.95"
         style="fill:#adadad;fill-opacity:1;fill-rule:nonzero;stroke:none"
         id="path252" />
      <path
         d="m 1947.2,2142.53 h -10 v 50 h 10 v -50 m 108.37,202.95 h -50 v 10 h 50 v -10"
         style="fill:#000000;fill-opacity:1;fill-rule:nonzero;stroke:none"
         id="path254" />
      <path
         d="M 5858.52,495.352 H 5532 v 113.589 h 10 V 505.352 h 306.52 v 306.539 h -198.16 v 10 h 208.16 V 495.352 M 5542,658.941 h -10 v 157.95 5 h 68.36 v -10 H 5542 v -152.95"
         style="fill:#adadad;fill-opacity:1;fill-rule:nonzero;stroke:none"
         id="path256" />
      <path
         d="m 5542,608.941 h -10 v 50 h 10 v -50 m 108.36,202.95 h -50 v 10 h 50 v -10"
         style="fill:#000000;fill-opacity:1;fill-rule:nonzero;stroke:none"
         id="path258" />
      <path
         d="m 4545.43,5556.29 h -326.52 v 113.59 h 10 v -103.59 h 306.52 v 306.54 h -198.16 v 10 h 208.16 v -326.54 m -316.52,163.59 h -10 v 157.95 5 h 68.36 v -10 h -58.36 v -152.95"
         style="fill:#adadad;fill-opacity:1;fill-rule:nonzero;stroke:none"
         id="path260" />
      <path
         d="m 4228.91,5669.88 h -10 v 50 h 10 v -50 m 108.36,202.95 h -50 v 10 h 50 v -10"
         style="fill:#000000;fill-opacity:1;fill-rule:nonzero;stroke:none"
         id="path262" />
      <path
         d="m 3768.9,2654.27 c -14,0 -25.42,4.86 -34.54,12.46 -9.19,7.62 -16.24,17.8 -22.71,28.78 -12.87,21.98 -23.68,47.35 -41.16,63.49 -11.66,10.76 -25.92,17.76 -46.79,17.81 v 10 c 0.03,0 0.07,0 0.11,0 17.35,0 31.44,-4.62 42.87,-12.12 11.46,-7.52 20.24,-17.77 27.7,-28.86 14.82,-22.19 24.84,-47.96 39,-64.13 9.48,-10.79 19.97,-17.35 35.69,-17.43 v -10 c -0.06,0 -0.11,0 -0.17,0"
         style="fill:#adadad;fill-opacity:1;fill-rule:nonzero;stroke:none"
         id="path264" />
      <path
         d="m 4059.63,2654.27 c -14.01,0 -25.43,4.86 -34.55,12.46 -9.18,7.62 -16.24,17.8 -22.71,28.78 -12.86,21.98 -23.67,47.35 -41.15,63.49 -11.66,10.76 -25.91,17.76 -46.78,17.81 v 10 0 c 0.04,0 0.07,0 0.11,0 17.34,0 31.43,-4.62 42.86,-12.12 11.47,-7.52 20.24,-17.77 27.69,-28.86 14.83,-22.19 24.84,-47.96 39,-64.13 9.49,-10.79 19.97,-17.35 35.69,-17.43 v -10 c -0.05,0 -0.11,0 -0.16,0"
         style="fill:#adadad;fill-opacity:1;fill-rule:nonzero;stroke:none"
         id="path266" />
      <path
         d="m 3769.32,2654.27 c -0.09,0 -0.17,0 -0.25,0 v 10 c 11.83,0.04 20.57,3.79 28.33,10.16 7.72,6.38 14.26,15.59 20.47,26.15 12.49,21.1 23.36,47.43 42.97,65.75 13.01,12.17 30.26,20.48 53.36,20.48 0.08,0 0.16,0 0.24,0 v 0 -10 c -15.67,-0.02 -27.58,-4.01 -37.5,-10.49 -9.91,-6.49 -17.86,-15.62 -24.88,-26.07 -14.11,-20.89 -23.98,-46.82 -39.75,-65.11 -10.43,-12.14 -24.28,-20.87 -42.99,-20.87"
         style="fill:#adadad;fill-opacity:1;fill-rule:nonzero;stroke:none"
         id="path268" />
      <path
         d="m 4060.04,2654.27 c -0.08,0 -0.17,0 -0.25,0 v 10 c 11.83,0.04 20.57,3.79 28.32,10.16 7.72,6.38 14.27,15.59 20.47,26.15 12.5,21.1 23.36,47.43 42.97,65.75 13.01,12.17 30.26,20.48 53.35,20.48 0.08,0 0.16,0 0.24,0 v -10 c -15.67,-0.02 -27.57,-4.01 -37.49,-10.49 -9.91,-6.48 -17.86,-15.62 -24.88,-26.07 -14.1,-20.89 -23.97,-46.82 -39.75,-65.11 -10.42,-12.14 -24.28,-20.87 -42.98,-20.87"
         style="fill:#adadad;fill-opacity:1;fill-rule:nonzero;stroke:none"
         id="path270" />
      <path
         d="m 4597.09,371.93 c -14.01,0 -25.43,4.859 -34.55,12.461 -9.18,7.621 -16.24,17.8 -22.71,28.777 -12.86,21.992 -23.67,47.363 -41.15,63.512 -11.67,10.761 -25.92,17.75 -46.8,17.808 v 10 c 0.03,0 0.07,0 0.11,0 17.35,0 31.44,-4.617 42.87,-12.129 11.47,-7.519 20.25,-17.769 27.7,-28.859 14.83,-22.199 24.84,-47.961 39,-64.141 9.49,-10.789 19.98,-17.347 35.69,-17.429 v 0 -10 c -0.05,0 -0.11,0 -0.16,0"
         style="fill:#adadad;fill-opacity:1;fill-rule:nonzero;stroke:none"
         id="path272" />
      <path
         d="m 4887.81,371.93 c -14,0 -25.43,4.859 -34.54,12.461 -9.19,7.621 -16.24,17.8 -22.72,28.777 -12.86,21.98 -23.67,47.344 -41.14,63.492 -11.67,10.762 -25.92,17.75 -46.79,17.809 v 10 0 c 0.04,0 0.08,0 0.12,0 17.34,0 31.43,-4.617 42.85,-12.129 11.47,-7.512 20.25,-17.77 27.7,-28.86 14.82,-22.191 24.84,-47.949 38.99,-64.128 9.49,-10.782 19.98,-17.34 35.69,-17.422 v 0 0 -5 -5 c -0.05,0 -0.11,0 -0.16,0"
         style="fill:#adadad;fill-opacity:1;fill-rule:nonzero;stroke:none"
         id="path274" />
      <path
         d="m 4597.5,371.93 c -0.08,0 -0.17,0 -0.25,0 v 10 c 11.84,0.039 20.58,3.789 28.33,10.16 7.72,6.379 14.27,15.582 20.47,26.148 12.5,21.102 23.36,47.43 42.97,65.742 13.02,12.18 30.27,20.489 53.36,20.489 0.08,0 0.16,0 0.24,0 v 0 -10 c -15.67,-0.02 -27.57,-4.02 -37.5,-10.489 -9.91,-6.492 -17.86,-15.621 -24.88,-26.07 -14.1,-20.89 -23.97,-46.82 -39.75,-65.109 -10.42,-12.141 -24.28,-20.871 -42.99,-20.871"
         style="fill:#adadad;fill-opacity:1;fill-rule:nonzero;stroke:none"
         id="path276" />
      <path
         d="m 4887.98,371.93 -0.01,5 v 5 0 c 11.83,0.039 20.57,3.8 28.32,10.172 7.72,6.367 14.27,15.578 20.47,26.148 12.49,21.09 23.36,47.418 42.96,65.738 13.02,12.172 30.26,20.481 53.34,20.481 0.08,0 0.16,0 0.24,0 h 0.01 l 0.81,-0.059 -1.59,-9.879 0.78,4.867 v -4.929 h -0.01 c -15.66,-0.02 -27.56,-4.02 -37.48,-10.489 -9.91,-6.48 -17.85,-15.609 -24.87,-26.07 -14.11,-20.879 -23.97,-46.808 -39.75,-65.101 -10.42,-12.141 -24.28,-20.879 -42.98,-20.879 -0.08,0 -0.17,0 -0.24,0 v 0"
         style="fill:#adadad;fill-opacity:1;fill-rule:nonzero;stroke:none"
         id="path278" />
      <path
         d="m 4993.51,3662.35 c -14,0 -25.42,4.86 -34.54,12.46 -9.19,7.62 -16.24,17.8 -22.71,28.78 -12.87,21.98 -23.67,47.35 -41.15,63.5 -11.66,10.76 -25.91,17.75 -46.79,17.81 v 10 c 0.04,0 0.08,0 0.12,0 17.34,0 31.43,-4.62 42.86,-12.13 11.46,-7.51 20.24,-17.77 27.69,-28.86 14.82,-22.19 24.84,-47.96 39,-64.13 9.48,-10.79 19.97,-17.35 35.69,-17.43 v -10 c -0.06,0 -0.11,0 -0.17,0"
         style="fill:#adadad;fill-opacity:1;fill-rule:nonzero;stroke:none"
         id="path280" />
      <path
         d="m 5284.23,3662.35 c -14,0 -25.42,4.86 -34.54,12.46 -9.18,7.62 -16.24,17.8 -22.71,28.77 -12.87,21.99 -23.67,47.35 -41.15,63.5 -11.66,10.76 -25.91,17.75 -46.78,17.81 v 10 0 c 0.04,0 0.07,0 0.11,0 17.35,0 31.43,-4.62 42.86,-12.13 11.46,-7.51 20.24,-17.77 27.69,-28.86 14.83,-22.19 24.84,-47.95 39,-64.13 9.49,-10.78 19.97,-17.34 35.69,-17.42 v 0 -5 -5 c -0.06,0 -0.11,0 -0.17,0"
         style="fill:#adadad;fill-opacity:1;fill-rule:nonzero;stroke:none"
         id="path282" />
      <path
         d="m 4993.93,3662.35 c -0.09,0 -0.17,0 -0.25,0 v 10 c 11.83,0.04 20.57,3.79 28.33,10.16 7.72,6.38 14.27,15.58 20.47,26.15 12.5,21.1 23.37,47.43 42.97,65.74 13.02,12.18 30.27,20.49 53.36,20.49 0.08,0 0.16,0 0.24,0 v 0 -10 c -15.67,-0.02 -27.57,-4.02 -37.49,-10.49 -9.92,-6.49 -17.87,-15.62 -24.88,-26.07 -14.11,-20.89 -23.98,-46.82 -39.76,-65.11 -10.43,-12.14 -24.28,-20.87 -42.99,-20.87"
         style="fill:#adadad;fill-opacity:1;fill-rule:nonzero;stroke:none"
         id="path284" />
      <path
         d="m 5284.64,3662.35 c -0.08,0 -0.16,0 -0.24,0 v 5 5 0 c 11.83,0.04 20.57,3.79 28.33,10.16 7.72,6.38 14.26,15.59 20.47,26.15 12.49,21.1 23.36,47.43 42.97,65.75 13.02,12.17 30.27,20.48 53.36,20.48 0.08,0 0.16,0 0.24,0 v -10 c -15.67,-0.02 -27.57,-4.02 -37.5,-10.49 -9.91,-6.49 -17.86,-15.62 -24.88,-26.07 -14.11,-20.89 -23.98,-46.82 -39.75,-65.11 -10.43,-12.14 -24.29,-20.87 -43,-20.87"
         style="fill:#adadad;fill-opacity:1;fill-rule:nonzero;stroke:none"
         id="path286" />
      <path
         d="m 950.695,3810.43 c -14.004,0 -25.425,4.86 -34.543,12.46 -9.183,7.63 -16.242,17.81 -22.714,28.78 -12.864,21.99 -23.668,47.35 -41.149,63.5 -11.664,10.76 -25.918,17.76 -46.793,17.81 v 10 c 0.039,0 0.078,0 0.117,0 17.344,0 31.434,-4.61 42.86,-12.12 11.468,-7.52 20.246,-17.78 27.699,-28.86 14.824,-22.2 24.84,-47.96 39,-64.14 9.484,-10.78 19.973,-17.35 35.687,-17.43 v -10 c -0.054,0 -0.109,0 -0.164,0"
         style="fill:#adadad;fill-opacity:1;fill-rule:nonzero;stroke:none"
         id="path288" />
      <path
         d="m 1241.42,3810.43 c -14.01,0 -25.43,4.86 -34.55,12.46 -9.18,7.63 -16.24,17.8 -22.71,28.78 -12.86,21.98 -23.67,47.35 -41.15,63.49 -11.66,10.76 -25.91,17.76 -46.78,17.81 v 10 0 c 0.04,0 0.08,0 0.12,0 17.34,0 31.42,-4.61 42.85,-12.12 11.47,-7.52 20.25,-17.77 27.7,-28.86 14.82,-22.19 24.83,-47.95 38.99,-64.13 9.49,-10.78 19.98,-17.35 35.69,-17.43 v -10 c -0.05,0 -0.11,0 -0.16,0"
         style="fill:#adadad;fill-opacity:1;fill-rule:nonzero;stroke:none"
         id="path290" />
      <path
         d="m 951.109,3810.43 c -0.082,0 -0.168,0 -0.25,0 v 10 c 11.836,0.04 20.575,3.8 28.332,10.16 7.723,6.38 14.266,15.59 20.473,26.15 12.496,21.1 23.356,47.43 42.966,65.75 13.02,12.17 30.27,20.48 53.36,20.48 0.08,0 0.16,0 0.24,0 v 0 -10 c -15.67,-0.02 -27.57,-4.01 -37.5,-10.49 -9.91,-6.48 -17.86,-15.61 -24.87,-26.07 -14.11,-20.89 -23.98,-46.82 -39.758,-65.11 -10.426,-12.13 -24.286,-20.87 -42.993,-20.87"
         style="fill:#adadad;fill-opacity:1;fill-rule:nonzero;stroke:none"
         id="path292" />
      <path
         d="m 1241.83,3810.43 c -0.08,0 -0.17,0 -0.25,0 v 10 c 11.83,0.05 20.57,3.8 28.33,10.17 7.72,6.38 14.26,15.58 20.47,26.15 12.49,21.09 23.35,47.42 42.96,65.74 13.02,12.18 30.26,20.48 53.35,20.48 0.08,0 0.16,0 0.24,0 h 0.01 l 0.4,-0.01 -0.4,-5.07 v -4.92 h -0.01 c -15.67,-0.02 -27.56,-4.01 -37.49,-10.49 -9.91,-6.48 -17.86,-15.61 -24.87,-26.06 -14.11,-20.89 -23.98,-46.82 -39.75,-65.11 -10.43,-12.14 -24.28,-20.88 -42.99,-20.88"
         style="fill:#adadad;fill-opacity:1;fill-rule:nonzero;stroke:none"
         id="path294" />
      <path
         d="m 3675.59,5310.61 h -10 c -0.02,17.4 4.6,31.52 12.13,42.97 7.51,11.47 17.77,20.25 28.85,27.7 22.2,14.83 47.96,24.85 64.13,39 10.79,9.49 17.35,19.97 17.43,35.69 v 0 h 10 v 0 c 0.04,-14.08 -4.83,-25.55 -12.46,-34.7 -7.62,-9.19 -17.8,-16.25 -28.78,-22.72 -21.98,-12.86 -47.34,-23.67 -63.49,-41.15 -10.76,-11.66 -17.75,-25.91 -17.81,-46.79"
         style="fill:#adadad;fill-opacity:1;fill-rule:nonzero;stroke:none"
         id="path296" />
      <path
         d="m 3675.59,5601.34 h -10 c -0.02,17.4 4.6,31.52 12.13,42.97 7.51,11.47 17.77,20.25 28.85,27.7 22.2,14.82 47.96,24.84 64.13,38.99 10.79,9.49 17.35,19.98 17.43,35.7 v 0 h 10 v 0 c 0.04,-14.08 -4.83,-25.56 -12.46,-34.71 -7.62,-9.19 -17.8,-16.24 -28.78,-22.72 -21.98,-12.86 -47.34,-23.66 -63.49,-41.14 -10.76,-11.67 -17.75,-25.92 -17.81,-46.79"
         style="fill:#adadad;fill-opacity:1;fill-rule:nonzero;stroke:none"
         id="path298" />
      <path
         d="m 3798.13,5455.97 h -10 v 0 c -0.04,11.84 -3.79,20.58 -10.16,28.33 -6.38,7.73 -15.59,14.27 -26.15,20.48 -21.1,12.49 -47.43,23.36 -65.74,42.96 -12.22,13.07 -20.55,30.39 -20.49,53.6 h 10 c 0.02,-15.67 4.01,-27.57 10.49,-37.49 6.49,-9.92 15.62,-17.87 26.07,-24.88 20.89,-14.11 46.82,-23.98 65.11,-39.76 12.19,-10.47 20.95,-24.41 20.87,-43.24 v 0"
         style="fill:#adadad;fill-opacity:1;fill-rule:nonzero;stroke:none"
         id="path300" />
      <path
         d="m 3798.13,5746.7 h -10 v 0 c -0.04,11.83 -3.79,20.57 -10.16,28.32 -6.38,7.72 -15.59,14.27 -26.15,20.47 -21.1,12.49 -47.43,23.36 -65.74,42.97 -12.22,13.06 -20.55,30.38 -20.49,53.59 h 10 c 0.02,-15.66 4.01,-27.57 10.49,-37.49 6.49,-9.91 15.62,-17.86 26.07,-24.88 20.89,-14.11 46.82,-23.97 65.11,-39.75 12.19,-10.47 20.95,-24.4 20.87,-43.23 v 0"
         style="fill:#adadad;fill-opacity:1;fill-rule:nonzero;stroke:none"
         id="path302" />
      <path
         d="m 2784.19,3789.9 h -10 c -0.02,17.39 4.6,31.52 12.12,42.97 7.52,11.47 17.78,20.25 28.86,27.7 22.19,14.83 47.96,24.84 64.13,39 10.79,9.49 17.35,19.97 17.43,35.69 v 0 h 10 v 0 c 0.04,-14.08 -4.83,-25.56 -12.46,-34.71 -7.62,-9.18 -17.8,-16.24 -28.78,-22.71 -21.98,-12.87 -47.34,-23.67 -63.49,-41.15 -10.76,-11.66 -17.75,-25.92 -17.81,-46.79"
         style="fill:#adadad;fill-opacity:1;fill-rule:nonzero;stroke:none"
         id="path304" />
      <path
         d="m 2784.19,4080.63 h -10 c -0.02,17.4 4.6,31.52 12.12,42.97 7.52,11.47 17.78,20.25 28.86,27.7 22.19,14.82 47.96,24.83 64.13,38.99 10.79,9.49 17.35,19.98 17.43,35.69 v 0 h 10 v 0 c 0.04,-14.08 -4.83,-25.55 -12.46,-34.71 -7.62,-9.18 -17.8,-16.24 -28.78,-22.71 -21.98,-12.86 -47.34,-23.67 -63.49,-41.15 -10.76,-11.66 -17.75,-25.91 -17.81,-46.78"
         style="fill:#adadad;fill-opacity:1;fill-rule:nonzero;stroke:none"
         id="path306" />
      <path
         d="m 2906.73,3935.26 h -10 v 0 c -0.04,11.83 -3.79,20.57 -10.16,28.33 -6.38,7.72 -15.59,14.27 -26.15,20.47 -21.1,12.5 -47.43,23.37 -65.75,42.97 -12.21,13.06 -20.54,30.39 -20.48,53.6 h 10 c 0.02,-15.67 4.01,-27.57 10.49,-37.5 6.49,-9.91 15.62,-17.86 26.07,-24.87 20.89,-14.11 46.82,-23.98 65.11,-39.76 12.19,-10.47 20.95,-24.41 20.87,-43.24 v 0"
         style="fill:#adadad;fill-opacity:1;fill-rule:nonzero;stroke:none"
         id="path308" />
      <path
         d="m 2906.73,4225.98 h -10 v 0 c -0.04,11.83 -3.79,20.57 -10.16,28.33 -6.38,7.72 -15.59,14.26 -26.15,20.47 -21.1,12.49 -47.43,23.36 -65.75,42.96 -12.21,13.07 -20.54,30.39 -20.48,53.6 h 10 c 0.02,-15.67 4.01,-27.57 10.49,-37.49 6.49,-9.91 15.62,-17.86 26.07,-24.88 20.89,-14.11 46.82,-23.98 65.11,-39.75 12.19,-10.47 20.95,-24.41 20.87,-43.24 v 0"
         style="fill:#adadad;fill-opacity:1;fill-rule:nonzero;stroke:none"
         id="path310" />
      <path
         d="m 5200.51,1360.6 h -10 c -0.02,17.4 4.6,31.53 12.13,42.98 7.51,11.47 17.77,20.25 28.86,27.7 22.19,14.83 47.95,24.84 64.13,39 10.78,9.49 17.34,19.98 17.42,35.69 v 0 h 10 v 0 c 0.04,-14.08 -4.82,-25.55 -12.46,-34.71 -7.62,-9.18 -17.8,-16.24 -28.77,-22.71 -21.99,-12.86 -47.35,-23.67 -63.5,-41.15 -10.76,-11.67 -17.75,-25.92 -17.81,-46.8"
         style="fill:#adadad;fill-opacity:1;fill-rule:nonzero;stroke:none"
         id="path312" />
      <path
         d="m 5200.51,1651.34 h -10 c -0.02,17.4 4.6,31.52 12.13,42.97 7.51,11.47 17.77,20.25 28.86,27.7 22.19,14.82 47.95,24.84 64.13,38.99 10.78,9.49 17.34,19.98 17.42,35.69 v 0 h 10 v 0 c 0.04,-14.07 -4.82,-25.55 -12.46,-34.7 -7.62,-9.19 -17.8,-16.24 -28.77,-22.72 -21.99,-12.86 -47.35,-23.66 -63.5,-41.14 -10.76,-11.66 -17.75,-25.92 -17.81,-46.79"
         style="fill:#adadad;fill-opacity:1;fill-rule:nonzero;stroke:none"
         id="path314" />
      <path
         d="m 5323.05,1505.97 h -10 v 0 c -0.04,11.84 -3.79,20.58 -10.16,28.33 -6.38,7.73 -15.58,14.27 -26.15,20.47 -21.1,12.5 -47.43,23.36 -65.74,42.97 -12.22,13.06 -20.55,30.39 -20.49,53.6 h 10 c 0.02,-15.67 4.02,-27.57 10.49,-37.5 6.49,-9.91 15.62,-17.86 26.07,-24.87 20.89,-14.11 46.82,-23.98 65.11,-39.76 12.19,-10.47 20.95,-24.4 20.87,-43.24 v 0"
         style="fill:#adadad;fill-opacity:1;fill-rule:nonzero;stroke:none"
         id="path316" />
      <path
         d="m 5323.05,1796.69 h -10 v 0 c -0.04,11.84 -3.79,20.57 -10.16,28.33 -6.38,7.72 -15.58,14.26 -26.15,20.47 -21.1,12.49 -47.43,23.36 -65.74,42.96 -12.22,13.06 -20.55,30.39 -20.49,53.6 h 10 c 0.02,-15.67 4.02,-27.57 10.49,-37.5 6.49,-9.91 15.62,-17.86 26.07,-24.87 20.89,-14.11 46.82,-23.98 65.11,-39.75 12.19,-10.47 20.95,-24.4 20.87,-43.24 v 0"
         style="fill:#adadad;fill-opacity:1;fill-rule:nonzero;stroke:none"
         id="path318" />
      <path
         d="m 2202.46,1131.52 h -10 c -0.02,17.39 4.6,31.52 12.13,42.97 7.51,11.47 17.77,20.25 28.85,27.69 22.2,14.83 47.96,24.84 64.13,39 10.79,9.49 17.35,19.97 17.43,35.69 v 0 h 10 v 0 c 0.04,-14.08 -4.83,-25.55 -12.46,-34.71 -7.62,-9.18 -17.8,-16.24 -28.78,-22.71 -21.98,-12.86 -47.34,-23.67 -63.49,-41.15 -10.76,-11.66 -17.75,-25.91 -17.81,-46.78"
         style="fill:#adadad;fill-opacity:1;fill-rule:nonzero;stroke:none"
         id="path320" />
      <path
         d="m 2202.46,1422.24 h -10 c -0.02,17.4 4.6,31.52 12.13,42.97 7.51,11.47 17.77,20.25 28.85,27.7 22.2,14.82 47.96,24.83 64.13,38.99 10.79,9.49 17.35,19.98 17.43,35.69 v 0 h 10 v 0 c 0.04,-14.07 -4.83,-25.55 -12.46,-34.7 -7.62,-9.19 -17.8,-16.25 -28.78,-22.72 -21.98,-12.86 -47.34,-23.66 -63.49,-41.14 -10.76,-11.67 -17.75,-25.92 -17.81,-46.79"
         style="fill:#adadad;fill-opacity:1;fill-rule:nonzero;stroke:none"
         id="path322" />
      <path
         d="m 2325,1276.87 h -10 v 0 c -0.04,11.84 -3.79,20.58 -10.16,28.33 -6.38,7.73 -15.58,14.27 -26.15,20.48 -21.1,12.49 -47.43,23.36 -65.74,42.97 -12.22,13.06 -20.55,30.38 -20.49,53.59 h 10 c 0.02,-15.67 4.02,-27.57 10.49,-37.49 6.49,-9.91 15.62,-17.86 26.07,-24.88 20.89,-14.11 46.82,-23.98 65.11,-39.76 12.19,-10.47 20.95,-24.4 20.87,-43.24 v 0"
         style="fill:#adadad;fill-opacity:1;fill-rule:nonzero;stroke:none"
         id="path324" />
      <path
         d="m 2325,1567.59 h -10 v 0 c -0.04,11.84 -3.79,20.58 -10.16,28.33 -6.38,7.73 -15.58,14.27 -26.15,20.48 -21.1,12.49 -47.43,23.35 -65.74,42.96 -12.22,13.06 -20.55,30.39 -20.49,53.6 h 10 c 0.02,-15.67 4.02,-27.57 10.49,-37.5 6.49,-9.91 15.62,-17.86 26.07,-24.87 20.89,-14.11 46.82,-23.98 65.11,-39.76 12.19,-10.47 20.95,-24.4 20.87,-43.24 v 0"
         style="fill:#adadad;fill-opacity:1;fill-rule:nonzero;stroke:none"
         id="path326" />
      <path
         d="m 4117.41,2328.06 h 358.691 v 10 H 4117.41 Z"
         style="fill:#adadad;fill-opacity:1;fill-rule:nonzero;stroke:none"
         id="path328" />
      <path
         d="m 591.141,3364.56 h 358.695 v 10 H 591.141 Z"
         style="fill:#adadad;fill-opacity:1;fill-rule:nonzero;stroke:none"
         id="path330" />
      <path
         d="m 4144.22,5031.87 h 358.691 v 10 H 4144.22 Z"
         style="fill:#adadad;fill-opacity:1;fill-rule:nonzero;stroke:none"
         id="path332" />
      <path
         d="m 5558.11,5841.37 h 358.691 v 10.0039 H 5558.11 Z"
         style="fill:#adadad;fill-opacity:1;fill-rule:nonzero;stroke:none"
         id="path334" />
      <path
         d="m 2021.12,495.211 h 358.688 v 10 H 2021.12 Z"
         style="fill:#adadad;fill-opacity:1;fill-rule:nonzero;stroke:none"
         id="path336" />
      <path
         d="m 2945.69,1189.64 -7.07,7.07 253.63,253.64 7.07,-7.07 -253.63,-253.64"
         style="fill:#adadad;fill-opacity:1;fill-rule:nonzero;stroke:none"
         id="path338" />
      <path
         d="m 846.125,5589.2 -7.074,7.07 253.639,253.64 7.07,-7.07 -253.635,-253.64"
         style="fill:#adadad;fill-opacity:1;fill-rule:nonzero;stroke:none"
         id="path340" />
      <path
         d="m 5740.98,2989.08 -7.07,7.07 253.63,253.64 7.07,-7.08 -253.63,-253.63"
         style="fill:#adadad;fill-opacity:1;fill-rule:nonzero;stroke:none"
         id="path342" />
      <path
         d="m 3628.81,1617.44 -13.3,21.17 c -6.32,-3.96 -13.15,-5.79 -20.02,-5.8 -6.27,0 -12.51,1.57 -18.01,4.55 -5.51,2.99 -10.28,7.3 -13.9,13.05 l -0.02,0.03 c -3.97,6.33 -5.79,13.15 -5.8,20.02 -0.01,6.26 1.56,12.49 4.54,17.99 2.99,5.51 7.31,10.29 13.07,13.92 6.28,3.94 13.1,5.76 19.97,5.78 6.27,0 12.52,-1.58 18.03,-4.55 5.52,-2.99 10.29,-7.31 13.9,-13.05 l 0.02,-0.03 c 3.95,-6.29 5.77,-13.11 5.79,-19.98 0,-6.27 -1.57,-12.51 -4.55,-18.03 -2.99,-5.52 -7.31,-10.3 -13.04,-13.92 l 0.02,0.02 13.3,-21.17 13.33,-21.16 c 13.16,8.29 23.47,19.65 30.39,32.49 6.93,12.85 10.54,27.2 10.55,41.77 0.01,15.93 -4.39,32.2 -13.48,46.63 l 0.01,-0.03 c -8.27,13.19 -19.64,23.53 -32.49,30.45 -12.86,6.94 -27.22,10.55 -41.78,10.56 -15.93,0.01 -32.18,-4.38 -46.59,-13.46 -13.18,-8.28 -23.51,-19.63 -30.44,-32.47 -6.94,-12.85 -10.55,-27.2 -10.56,-41.76 -0.01,-15.95 4.4,-32.22 13.5,-46.66 l -0.02,0.04 c 8.27,-13.19 19.63,-23.54 32.48,-30.47 12.85,-6.94 27.21,-10.56 41.78,-10.56 15.93,-0.01 32.19,4.38 46.62,13.46 l 0.03,0.01 -13.33,21.16"
         style="fill:#000000;fill-opacity:1;fill-rule:nonzero;stroke:none"
         id="path344" />
      <path
         d="m 3134.9,3341.6 -13.3,21.17 c -6.32,-3.96 -13.15,-5.79 -20.02,-5.8 -6.27,0 -12.5,1.57 -18.01,4.55 -5.51,2.99 -10.28,7.3 -13.9,13.06 l -0.02,0.02 c -3.96,6.32 -5.79,13.15 -5.8,20.02 0,6.25 1.57,12.48 4.54,17.99 2.99,5.51 7.31,10.28 13.06,13.91 6.29,3.94 13.11,5.77 19.98,5.78 6.27,0 12.52,-1.57 18.03,-4.55 5.52,-2.99 10.29,-7.31 13.91,-13.06 l 0.02,-0.02 c 3.95,-6.29 5.77,-13.11 5.78,-19.98 0.01,-6.26 -1.57,-12.5 -4.55,-18.02 -2.99,-5.52 -7.3,-10.3 -13.04,-13.92 l 0.02,0.02 13.3,-21.17 13.32,-21.16 c 13.17,8.28 23.48,19.64 30.41,32.49 6.93,12.85 10.54,27.2 10.54,41.76 0.02,15.94 -4.38,32.2 -13.47,46.63 l 0.01,-0.03 c -8.28,13.19 -19.64,23.53 -32.5,30.46 -12.86,6.94 -27.21,10.55 -41.78,10.55 -15.93,0.01 -32.18,-4.38 -46.6,-13.46 -13.17,-8.27 -23.5,-19.62 -30.42,-32.46 -6.94,-12.85 -10.56,-27.2 -10.56,-41.76 -0.01,-15.95 4.39,-32.22 13.49,-46.65 l -0.02,0.02 c 8.27,-13.19 19.63,-23.53 32.48,-30.46 12.86,-6.94 27.21,-10.56 41.78,-10.56 15.93,-0.01 32.19,4.38 46.62,13.46 l 0.02,0.01 -13.32,21.16"
         style="fill:#000000;fill-opacity:1;fill-rule:nonzero;stroke:none"
         id="path346" />
      <path
         d="m 875.984,2811.38 -13.296,21.17 c -6.321,-3.96 -13.153,-5.78 -20.028,-5.8 -6.262,0 -12.5,1.58 -18.004,4.55 -5.511,2.99 -10.281,7.31 -13.902,13.06 l -0.016,0.02 c -3.968,6.33 -5.793,13.16 -5.804,20.03 -0.004,6.25 1.566,12.48 4.543,17.99 2.992,5.51 7.308,10.28 13.066,13.92 l -0.008,-0.01 c 6.289,3.95 13.11,5.77 19.985,5.78 6.265,0 12.515,-1.57 18.027,-4.55 5.519,-2.99 10.289,-7.31 13.91,-13.05 l 0.012,-0.02 c 3.953,-6.3 5.777,-13.11 5.789,-19.98 0.004,-6.27 -1.57,-12.52 -4.551,-18.03 -2.988,-5.52 -7.309,-10.3 -13.043,-13.92 l 0.024,0.01 13.296,-21.17 13.325,-21.15 c 13.164,8.28 23.48,19.64 30.402,32.49 6.934,12.85 10.547,27.2 10.547,41.77 0.012,15.93 -4.383,32.2 -13.477,46.62 l 0.012,-0.02 c -8.277,13.19 -19.645,23.52 -32.496,30.45 -12.859,6.94 -27.215,10.55 -41.777,10.55 -15.93,0.01 -32.18,-4.38 -46.598,-13.45 h -0.008 c -13.168,-8.28 -23.496,-19.63 -30.426,-32.47 -6.937,-12.85 -10.554,-27.2 -10.554,-41.76 -0.012,-15.95 4.394,-32.22 13.488,-46.65 l -0.016,0.02 c 8.274,-13.19 19.629,-23.53 32.481,-30.46 12.851,-6.95 27.211,-10.56 41.773,-10.57 15.938,-0.01 32.199,4.39 46.625,13.46 l 0.024,0.02 -13.325,21.15"
         style="fill:#000000;fill-opacity:1;fill-rule:nonzero;stroke:none"
         id="path348" />
      <path
         d="m 1518.22,4784.21 -13.3,21.17 c -6.32,-3.96 -13.15,-5.78 -20.02,-5.79 -6.27,-0.01 -12.5,1.57 -18.01,4.54 -5.51,2.99 -10.28,7.31 -13.9,13.07 l -0.02,0.02 c -3.96,6.32 -5.79,13.15 -5.8,20.02 0,6.25 1.57,12.48 4.54,17.98 2.99,5.51 7.31,10.29 13.07,13.92 6.29,3.94 13.1,5.76 19.97,5.78 6.27,0 12.52,-1.57 18.03,-4.55 5.52,-3 10.29,-7.31 13.91,-13.06 l 0.02,-0.02 c 3.95,-6.3 5.77,-13.11 5.78,-19.98 0.01,-6.26 -1.57,-12.51 -4.55,-18.02 -2.99,-5.52 -7.3,-10.3 -13.04,-13.92 l 0.02,0.01 13.3,-21.17 13.32,-21.15 c 13.17,8.28 23.49,19.64 30.41,32.48 6.93,12.86 10.54,27.21 10.54,41.77 0.02,15.93 -4.38,32.2 -13.47,46.62 l 0.01,-0.02 c -8.28,13.19 -19.64,23.52 -32.5,30.45 -12.85,6.94 -27.21,10.55 -41.78,10.56 -15.93,0.01 -32.18,-4.38 -46.6,-13.46 -13.17,-8.27 -23.5,-19.62 -30.42,-32.47 -6.94,-12.85 -10.56,-27.2 -10.56,-41.75 -0.01,-15.95 4.39,-32.22 13.49,-46.66 l -0.02,0.03 c 8.28,-13.19 19.63,-23.53 32.48,-30.46 12.86,-6.95 27.21,-10.56 41.78,-10.56 15.93,-0.02 32.19,4.38 46.62,13.45 l 0.02,0.02 -13.32,21.15"
         style="fill:#000000;fill-opacity:1;fill-rule:nonzero;stroke:none"
         id="path350" />
      <path
         d="m 4965.98,4815.39 -13.3,21.17 c -6.32,-3.97 -13.15,-5.79 -20.02,-5.8 -6.26,0 -12.5,1.57 -18,4.55 -5.52,2.99 -10.29,7.3 -13.92,13.06 v 0.02 c -3.97,6.32 -5.8,13.15 -5.81,20.02 0,6.25 1.57,12.48 4.55,17.99 2.98,5.51 7.3,10.28 13.05,13.91 6.3,3.94 13.11,5.77 19.99,5.78 6.26,0 12.51,-1.57 18.02,-4.55 5.52,-2.99 10.3,-7.31 13.93,-13.06 l 0.01,-0.02 c 3.95,-6.29 5.77,-13.11 5.78,-19.98 0.01,-6.26 -1.57,-12.5 -4.55,-18.02 -2.99,-5.52 -7.31,-10.3 -13.05,-13.92 l 0.02,0.02 13.3,-21.17 13.32,-21.16 c 13.17,8.28 23.49,19.64 30.41,32.48 6.94,12.86 10.55,27.21 10.55,41.77 0.02,15.94 -4.38,32.2 -13.48,46.62 l 0.01,-0.01 c -8.28,13.18 -19.64,23.52 -32.49,30.44 -12.86,6.94 -27.22,10.56 -41.78,10.56 -15.93,0.01 -32.19,-4.38 -46.6,-13.46 -13.18,-8.27 -23.51,-19.62 -30.43,-32.47 -6.94,-12.85 -10.56,-27.19 -10.56,-41.75 -0.01,-15.95 4.39,-32.22 13.48,-46.65 v 0.01 c 8.27,-13.18 19.63,-23.52 32.47,-30.45 12.86,-6.94 27.21,-10.56 41.78,-10.56 15.93,-0.01 32.19,4.38 46.62,13.46 l 0.02,0.01 -13.32,21.16"
         style="fill:#000000;fill-opacity:1;fill-rule:nonzero;stroke:none"
         id="path352" />
      <path
         d="m 5851.43,2582.3 -13.3,21.17 c -6.32,-3.96 -13.15,-5.79 -20.02,-5.8 -6.27,0 -12.5,1.57 -18.01,4.55 -5.51,2.99 -10.28,7.31 -13.91,13.07 -3.97,6.33 -5.8,13.16 -5.81,20.04 0,6.25 1.57,12.48 4.54,17.99 2.99,5.51 7.31,10.28 13.07,13.91 6.28,3.94 13.1,5.77 19.98,5.78 6.26,0 12.51,-1.57 18.02,-4.55 5.52,-2.99 10.3,-7.31 13.92,-13.06 l 0.01,-0.02 c 3.96,-6.29 5.78,-13.1 5.79,-19.97 0,-6.27 -1.57,-12.51 -4.55,-18.03 -2.99,-5.52 -7.31,-10.3 -13.05,-13.92 l 0.02,0.01 13.3,-21.17 13.32,-21.16 c 13.17,8.28 23.49,19.64 30.41,32.49 6.93,12.86 10.55,27.21 10.55,41.78 0.01,15.93 -4.38,32.2 -13.48,46.62 l 0.01,-0.02 c -8.28,13.19 -19.64,23.52 -32.5,30.45 -12.86,6.94 -27.21,10.55 -41.77,10.55 -15.93,0.01 -32.18,-4.38 -46.6,-13.45 -13.18,-8.28 -23.51,-19.63 -30.44,-32.48 -6.93,-12.85 -10.55,-27.2 -10.55,-41.75 -0.01,-15.95 4.39,-32.22 13.48,-46.65 8.27,-13.17 19.62,-23.51 32.47,-30.45 12.86,-6.94 27.21,-10.55 41.78,-10.56 15.93,-0.01 32.19,4.39 46.62,13.46 l 0.02,0.01 -13.32,21.16"
         style="fill:#000000;fill-opacity:1;fill-rule:nonzero;stroke:none"
         id="path354" />
    </g>
  </g>
</svg>
