<svg transform="scale(1 -1)" width="720" height="720" viewBox="0 0 720 720" xmlns="http://www.w3.org/2000/svg"><rect width="720" height="720" fill="#d9d9d9"/><path d="M 0,720 C 0,720 0,144 0,144 C 38.54545454545453,129.9712918660287 77.09090909090907,115.94258373205741 120,125 C 162.90909090909093,134.05741626794259 210.18181818181824,166.20095693779905 264,175 C 317.81818181818176,183.79904306220095 378.18181818181813,169.25358851674642 431,169 C 483.81818181818187,168.74641148325358 529.0909090909091,182.78468899521533 576,181 C 622.9090909090909,179.21531100478467 671.4545454545455,161.60765550239233 720,144 C 720,144 720,720 720,720 Z" fill="#000000" opacity="0.12"/><path d="M 0,720 C 0,720 0,288 0,288 C 59.01435406698563,290.5837320574163 118.02870813397126,293.16746411483257 165,287 C 211.97129186602874,280.83253588516743 246.89952153110056,265.91387559808607 293,255 C 339.10047846889944,244.0861244019139 396.37320574162675,237.17703349282297 451,238 C 505.62679425837325,238.82296650717703 557.6076555023924,247.377990430622 602,257 C 646.3923444976076,266.622009569378 683.1961722488038,277.311004784689 720,288 C 720,288 720,720 720,720 Z" fill="#000000" opacity="0.24"/><path d="M 0,720 C 0,720 0,432 0,432 C 54.72727272727272,426.9473684210526 109.45454545454544,421.89473684210526 162,437 C 214.54545454545456,452.10526315789474 264.90909090909093,487.3684210526316 313,482 C 361.09090909090907,476.6315789473684 406.90909090909093,430.63157894736844 453,419 C 499.09090909090907,407.36842105263156 545.4545454545454,430.1052631578948 590,438 C 634.5454545454546,445.8947368421052 677.2727272727273,438.9473684210526 720,432 C 720,432 720,720 720,720 Z" fill="#000000" opacity="0.36"/><path d="M 0,720 C 0,720 0,576 0,576 C 35.77033492822966,556.4114832535886 71.54066985645932,536.8229665071771 118,533 C 164.45933014354068,529.1770334928229 221.60765550239245,541.1196172248804 274,546 C 326.39234449760755,550.8803827751196 374.02870813397124,548.6985645933015 424,550 C 473.97129186602876,551.3014354066985 526.2775119617226,556.0861244019138 576,561 C 625.7224880382774,565.9138755980862 672.8612440191387,570.9569377990431 720,576 C 720,576 720,720 720,720 Z" fill="#000000" opacity="0.48"/></svg>