<svg id="visual" viewBox="0 0 960 540" width="960" height="540" xmlns="http://www.w3.org/2000/svg" xmlns:xlink="http://www.w3.org/1999/xlink" version="1.1"><rect x="0" y="0" width="960" height="540" fill="#ffffff"></rect><path d="M0 416L7.7 413.7C15.3 411.3 30.7 406.7 45.8 410.5C61 414.3 76 426.7 91.2 428.5C106.3 430.3 121.7 421.7 137 415.8C152.3 410 167.7 407 183 410.3C198.3 413.7 213.7 423.3 228.8 423.5C244 423.7 259 414.3 274.2 409.2C289.3 404 304.7 403 320 405.7C335.3 408.3 350.7 414.7 365.8 417.8C381 421 396 421 411.2 421.8C426.3 422.7 441.7 424.3 457 427.7C472.3 431 487.7 436 503 437.5C518.3 439 533.7 437 548.8 435.3C564 433.7 579 432.3 594.2 428.2C609.3 424 624.7 417 640 414C655.3 411 670.7 412 685.8 417.7C701 423.3 716 433.7 731.2 433.8C746.3 434 761.7 424 777 423.5C792.3 423 807.7 432 823 430.5C838.3 429 853.7 417 868.8 412.5C884 408 899 411 914.2 413.3C929.3 415.7 944.7 417.3 952.3 418.2L960 419L960 541L952.3 541C944.7 541 929.3 541 914.2 541C899 541 884 541 868.8 541C853.7 541 838.3 541 823 541C807.7 541 792.3 541 777 541C761.7 541 746.3 541 731.2 541C716 541 701 541 685.8 541C670.7 541 655.3 541 640 541C624.7 541 609.3 541 594.2 541C579 541 564 541 548.8 541C533.7 541 518.3 541 503 541C487.7 541 472.3 541 457 541C441.7 541 426.3 541 411.2 541C396 541 381 541 365.8 541C350.7 541 335.3 541 320 541C304.7 541 289.3 541 274.2 541C259 541 244 541 228.8 541C213.7 541 198.3 541 183 541C167.7 541 152.3 541 137 541C121.7 541 106.3 541 91.2 541C76 541 61 541 45.8 541C30.7 541 15.3 541 7.7 541L0 541Z" fill="#9a9a9a"></path><path d="M0 470L7.7 467.7C15.3 465.3 30.7 460.7 45.8 458.8C61 457 76 458 91.2 455.3C106.3 452.7 121.7 446.3 137 443C152.3 439.7 167.7 439.3 183 443C198.3 446.7 213.7 454.3 228.8 456.3C244 458.3 259 454.7 274.2 454C289.3 453.3 304.7 455.7 320 457.7C335.3 459.7 350.7 461.3 365.8 457.5C381 453.7 396 444.3 411.2 439.5C426.3 434.7 441.7 434.3 457 434.2C472.3 434 487.7 434 503 439.7C518.3 445.3 533.7 456.7 548.8 458.8C564 461 579 454 594.2 448C609.3 442 624.7 437 640 440.7C655.3 444.3 670.7 456.7 685.8 459C701 461.3 716 453.7 731.2 453.2C746.3 452.7 761.7 459.3 777 458.8C792.3 458.3 807.7 450.7 823 447.5C838.3 444.3 853.7 445.7 868.8 446C884 446.3 899 445.7 914.2 445.3C929.3 445 944.7 445 952.3 445L960 445L960 541L952.3 541C944.7 541 929.3 541 914.2 541C899 541 884 541 868.8 541C853.7 541 838.3 541 823 541C807.7 541 792.3 541 777 541C761.7 541 746.3 541 731.2 541C716 541 701 541 685.8 541C670.7 541 655.3 541 640 541C624.7 541 609.3 541 594.2 541C579 541 564 541 548.8 541C533.7 541 518.3 541 503 541C487.7 541 472.3 541 457 541C441.7 541 426.3 541 411.2 541C396 541 381 541 365.8 541C350.7 541 335.3 541 320 541C304.7 541 289.3 541 274.2 541C259 541 244 541 228.8 541C213.7 541 198.3 541 183 541C167.7 541 152.3 541 137 541C121.7 541 106.3 541 91.2 541C76 541 61 541 45.8 541C30.7 541 15.3 541 7.7 541L0 541Z" fill="#717171"></path><path d="M0 469L7.7 473.3C15.3 477.7 30.7 486.3 45.8 486.8C61 487.3 76 479.7 91.2 478C106.3 476.3 121.7 480.7 137 482.7C152.3 484.7 167.7 484.3 183 486.5C198.3 488.7 213.7 493.3 228.8 492.2C244 491 259 484 274.2 481.5C289.3 479 304.7 481 320 481.5C335.3 482 350.7 481 365.8 480.5C381 480 396 480 411.2 480.3C426.3 480.7 441.7 481.3 457 478.8C472.3 476.3 487.7 470.7 503 468.3C518.3 466 533.7 467 548.8 471.2C564 475.3 579 482.7 594.2 485C609.3 487.3 624.7 484.7 640 482C655.3 479.3 670.7 476.7 685.8 474.7C701 472.7 716 471.3 731.2 472C746.3 472.7 761.7 475.3 777 476.2C792.3 477 807.7 476 823 477.2C838.3 478.3 853.7 481.7 868.8 483.5C884 485.3 899 485.7 914.2 486.7C929.3 487.7 944.7 489.3 952.3 490.2L960 491L960 541L952.3 541C944.7 541 929.3 541 914.2 541C899 541 884 541 868.8 541C853.7 541 838.3 541 823 541C807.7 541 792.3 541 777 541C761.7 541 746.3 541 731.2 541C716 541 701 541 685.8 541C670.7 541 655.3 541 640 541C624.7 541 609.3 541 594.2 541C579 541 564 541 548.8 541C533.7 541 518.3 541 503 541C487.7 541 472.3 541 457 541C441.7 541 426.3 541 411.2 541C396 541 381 541 365.8 541C350.7 541 335.3 541 320 541C304.7 541 289.3 541 274.2 541C259 541 244 541 228.8 541C213.7 541 198.3 541 183 541C167.7 541 152.3 541 137 541C121.7 541 106.3 541 91.2 541C76 541 61 541 45.8 541C30.7 541 15.3 541 7.7 541L0 541Z" fill="#4c4c4c"></path><path d="M0 491L7.7 496.2C15.3 501.3 30.7 511.7 45.8 512.2C61 512.7 76 503.3 91.2 500.5C106.3 497.7 121.7 501.3 137 501.2C152.3 501 167.7 497 183 497C198.3 497 213.7 501 228.8 502.2C244 503.3 259 501.7 274.2 502C289.3 502.3 304.7 504.7 320 505.7C335.3 506.7 350.7 506.3 365.8 507.2C381 508 396 510 411.2 508.7C426.3 507.3 441.7 502.7 457 499.2C472.3 495.7 487.7 493.3 503 496.7C518.3 500 533.7 509 548.8 509.3C564 509.7 579 501.3 594.2 500C609.3 498.7 624.7 504.3 640 506.8C655.3 509.3 670.7 508.7 685.8 506.3C701 504 716 500 731.2 502.3C746.3 504.7 761.7 513.3 777 515C792.3 516.7 807.7 511.3 823 507.8C838.3 504.3 853.7 502.7 868.8 502.3C884 502 899 503 914.2 505.8C929.3 508.7 944.7 513.3 952.3 515.7L960 518L960 541L952.3 541C944.7 541 929.3 541 914.2 541C899 541 884 541 868.8 541C853.7 541 838.3 541 823 541C807.7 541 792.3 541 777 541C761.7 541 746.3 541 731.2 541C716 541 701 541 685.8 541C670.7 541 655.3 541 640 541C624.7 541 609.3 541 594.2 541C579 541 564 541 548.8 541C533.7 541 518.3 541 503 541C487.7 541 472.3 541 457 541C441.7 541 426.3 541 411.2 541C396 541 381 541 365.8 541C350.7 541 335.3 541 320 541C304.7 541 289.3 541 274.2 541C259 541 244 541 228.8 541C213.7 541 198.3 541 183 541C167.7 541 152.3 541 137 541C121.7 541 106.3 541 91.2 541C76 541 61 541 45.8 541C30.7 541 15.3 541 7.7 541L0 541Z" fill="#292929"></path></svg>